<svg width="25" height="21" viewBox="0 0 25 21" fill="none" xmlns="http://www.w3.org/2000/svg">
    <g opacity="0.8" clip-path="url(#clip0_4611_21812)">
        <g filter="url(#filter0_d_4611_21812)">
            <path
                d="M22.0421 10.9503C22.1617 11.0591 22.542 11.1135 23.183 11.1135L23.179 11.1952H22.7043L22.7003 11.2768C23.2667 11.2768 23.6204 11.4402 23.7614 11.7667L23.7534 11.93H23.4143L23.4104 12.0116L23.8811 12.0933L23.8771 12.175H23.4702L23.4662 12.2566C23.6018 12.2566 23.667 12.311 23.6617 12.4199C22.8558 12.4199 22.1364 12.7737 21.5035 13.4813L21.4995 13.563C22.3745 13.8447 23.0673 14.4706 23.5779 15.4408L23.5739 15.5225C23.409 16.2269 22.9476 16.8801 22.1897 17.482L21.7748 17.5636L21.7708 17.6453H21.9064C21.9011 17.7926 21.4862 17.9559 20.6618 18.1352L20.6697 17.9719H21.0088L21.0168 17.8903C20.7269 17.8903 20.465 17.6998 20.2309 17.3187C20.0288 17.1939 19.9277 16.9553 19.9277 16.6031C19.9277 16.5711 19.9291 16.5375 19.9318 16.5023L20.1431 16.339L20.3386 16.5023H20.4743C21.7508 16.2621 22.4091 15.7722 22.4489 15.0326C21.9144 14.706 21.5607 14.5427 21.3878 14.5427L21.3838 14.6244L20.7176 14.2978L20.7814 14.3794L20.7775 14.5427C20.2136 14.0432 19.9384 13.6622 19.9517 13.3996L20.4823 12.2566L20.8373 11.93L20.8293 12.0933L22.0421 10.9503ZM21.1166 13.1547L21.1125 13.2364L22.3093 12.3383L22.8598 12.175L22.8678 12.0116H22.7322C22.0168 12.3318 21.4782 12.7129 21.1166 13.1547ZM21.4915 16.5023H21.5593L21.703 16.339H21.6351L21.4915 16.5023ZM22.7122 16.5023L22.421 16.9105H22.4888L22.7801 16.5023H22.7122ZM21.8625 17.1554V17.2371H21.9303L22.2136 16.9922L21.8625 17.1554ZM21.0926 17.727L21.0886 17.8086H21.3599L21.703 17.727V17.6453H21.6351L21.0926 17.727Z"
                fill="black" />
        </g>
        <g filter="url(#filter1_d_4611_21812)">
            <path
                d="M16.3088 11.0463H16.5801L16.7836 11.2096L17.2582 11.128C18.0428 11.128 18.7662 11.6723 19.4284 12.7609L19.7675 13.5773L19.6997 13.659L19.7675 14.0672V14.4755C19.7675 15.8747 18.818 16.9361 16.9192 17.6597L16.241 17.7413C16.241 17.6037 16.1506 17.5221 15.9697 17.4964V17.823H15.7663V17.3331L15.6985 17.2515L15.7663 17.1698V17.0882C15.495 16.864 15.3594 16.6735 15.3594 16.5167C15.495 14.0512 15.7211 12.255 16.0375 11.128H16.1053L16.1732 11.2096L16.3088 11.0463ZM16.0375 11.8628L15.6985 14.2305V14.3122H15.7663L16.1053 12.0261V11.8628H16.0375ZM17.1226 12.4343C17.1226 12.5432 17.0322 12.5976 16.8514 12.5976C16.6705 13.5902 16.5349 14.7332 16.4445 16.0268C16.7077 16.0268 17.3859 15.7546 18.479 15.2103V15.1287H18.3433C18.705 14.6836 18.8858 14.2209 18.8858 13.7407V13.4957C18.8858 12.8969 18.5468 12.5432 17.8686 12.4343H17.1226ZM18.479 12.4343V12.516L18.7502 12.6792V12.5976L18.5468 12.4343H18.479ZM19.0893 13.5773L19.0215 14.5571H19.1571V14.3122L19.225 13.9856L19.1571 13.5773H19.0893ZM19.564 14.2305L19.225 15.5369V15.6185H19.2928L19.6319 14.3939V14.2305H19.564ZM18.8858 14.8021L18.7502 15.1287H18.818L18.9537 14.8021H18.8858ZM18.479 16.2717C18.5854 16.2525 18.7436 16.0892 18.9537 15.7819V15.7002L18.479 16.2717ZM16.9192 16.7616V16.8432H17.1904L17.5295 16.68V16.5983H17.4617L16.9192 16.7616ZM16.3766 16.8432L16.4445 17.0882H16.5801L16.7157 16.9249V16.8432H16.6479L16.4445 16.9249L16.3766 16.8432ZM15.6307 17.3331H15.6985V17.4148L15.5628 17.5781H15.495V17.4964L15.6307 17.3331Z"
                fill="black" />
        </g>
        <g filter="url(#filter2_d_4611_21812)">
            <path
                d="M13.2203 10.6957C13.2495 10.859 13.4304 10.9406 13.7628 10.9406L14.3053 13.7982H14.7801V13.8799L14.3731 13.9616V14.0432C14.5088 14.0432 14.5766 14.0976 14.5766 14.2065H15.1192V14.2881C15.1192 14.4098 14.8931 14.5187 14.441 14.6148L14.5766 15.1046L14.5088 15.3496L14.5766 15.8394L14.5088 15.9211H14.5766L14.5088 16.0028L14.5766 16.9825V17.4724L14.5088 17.3908H14.441L14.6444 18.6154H14.5088C14.5088 18.4521 14.4636 18.3705 14.3731 18.3705V18.4521L14.441 18.6971H14.3731L14.3053 18.6154H14.2375C14.2375 18.7788 14.1923 18.8604 14.1019 18.8604L13.7628 17.4724H13.695V17.799H13.6272L13.4916 16.8192L13.695 16.9825V16.9009C13.6578 16.411 13.5899 16.166 13.4916 16.166L13.5594 16.0844V15.8394H13.4237V16.0844H13.3559V15.7578L13.4237 15.6761H13.3559L13.2881 15.7578V15.4312H13.3559L13.4237 15.5129H13.4916L13.4237 15.4312V14.9413L11.9318 15.3496V15.5129L12.4065 15.3496L12.6777 15.4312L13.0168 15.3496V15.5129C12.0674 15.7178 11.5926 15.9899 11.5926 16.3293C11.473 16.9281 11.3374 17.3091 11.1858 17.4724V17.6357H10.9823L10.9145 17.554H10.8467V17.6357L10.6432 17.4724L10.7789 16.9825H10.7111C10.5754 16.9825 10.5076 17.2002 10.5076 17.6357L10.3719 17.4724L10.4398 16.9825L10.2363 16.7376L11.3892 13.39H11.457C11.457 13.5533 11.5022 13.635 11.5926 13.635L11.6605 13.2268L11.5926 13.3084H11.5248V12.9818L11.5926 12.5736L11.6605 12.6552H11.7283L11.6605 12.5736V12.4919L11.7961 12.1653H11.8639L11.9318 12.247H11.9996V12.1653C11.9996 12.0565 11.9318 12.002 11.7961 12.002L12.1352 10.859H12.4065L12.3387 10.9406V11.0222C12.6525 10.8045 12.9464 10.6957 13.2203 10.6957ZM12.8134 12.5736L12.2709 14.2881H12.4065C12.8586 14.2881 13.1072 14.1249 13.1525 13.7982L12.8812 12.5736H12.8134ZM12.2031 13.0634L12.0674 13.635L11.9996 13.5533H11.9318L11.9996 13.8799H12.0674L12.2709 13.1451V13.0634H12.2031ZM11.457 13.7982L11.3892 13.8799V14.0432H11.457L11.5248 13.7982H11.457ZM11.8639 14.1249L11.7961 14.4514H11.8639L11.9318 14.3698V14.1249H11.8639ZM11.2536 14.2065L11.1858 14.5331H11.2536L11.3892 14.2065H11.2536ZM12.4065 14.4514V14.5331H12.5421C12.949 14.4786 13.1525 14.397 13.1525 14.2881H13.0846L12.4065 14.4514ZM13.3559 16.2477H13.4916V16.7376H13.4237L13.3559 16.2477ZM14.3053 16.8192V16.9825L14.3731 17.3091H14.441V17.1458L14.3731 16.8192H14.3053ZM13.6272 17.0641V17.2274L13.8306 17.1458V16.9825L13.6272 17.0641Z"
                fill="black" />
        </g>
        <g filter="url(#filter3_d_4611_21812)">
            <path
                d="M10.1718 11.0703L10.499 11.3441C10.4032 11.8276 10.2303 12.0597 9.98039 12.0405L8.20914 12.1365L8.20119 12.2998L8.53627 12.3286L8.94716 12.2806L9.011 12.3719L9.07881 12.3767L9.55751 12.3286L9.69313 12.343L9.68916 12.4247L8.11339 12.6216L7.98975 13.6782L8.05757 13.683L9.90059 13.5053L9.9604 13.5918L9.95642 13.6734L9.8208 13.659V13.7407L10.2875 13.8655L10.2835 13.9472C10.1851 14.2514 9.53622 14.4979 8.33681 14.6868L7.65462 14.7156L7.71846 14.7973L7.39133 15.8346H7.32352L7.36345 15.0998L7.29564 15.095L7.16399 16.2285C8.51764 16.0108 9.47374 15.9243 10.0322 15.9691L10.3633 16.0796L10.3594 16.2429L10.2237 16.2333L10.2835 16.3198L10.2716 16.5647C10.1413 16.7696 9.8647 16.856 9.44182 16.824L9.43785 16.9057L9.98039 16.9489L9.9684 17.1122L6.8129 17.6693L6.74509 17.6645C6.52701 17.6069 6.41797 17.5221 6.41797 17.41V17.3956L6.42995 17.1506L6.61742 16.2669L6.55364 16.1805L6.68926 16.1853L6.6653 16.5935L6.73316 16.6031C6.75974 16.331 6.8129 16.1997 6.8927 16.2093L6.82886 16.118L6.87674 15.3064L6.74112 15.292L6.64934 15.6954L6.72516 15.6185L6.79297 15.6234L6.76503 16.1132L6.69722 16.1036L6.7092 15.8635L6.64139 15.8586L6.63338 16.022L6.56557 16.0171L6.57358 15.8539L6.78899 14.4755L6.72118 14.4706L6.87674 14.0769L6.8129 13.9904L6.81693 13.9087L6.96454 12.5304L7.02832 12.6168L7.09618 12.6216L7.10413 12.4583L7.06023 12.0453L7.16797 11.3152L7.17995 11.0703L7.24776 11.0799L7.3116 11.1664L7.38338 11.0895L7.45119 11.0991L7.51503 11.1807L7.58681 11.104L7.7903 11.1232L10.1718 11.0703ZM6.77701 14.6388L6.74509 15.2103L6.8129 15.2151L6.84482 14.6483L6.77701 14.6388ZM9.01497 14.7444H9.08278L9.07483 14.8261L7.84613 14.975L7.78229 14.8837L7.78627 14.8068L8.40065 14.7733L8.39667 14.8549L9.01497 14.7444Z"
                fill="black" />
        </g>
        <g filter="url(#filter4_d_4611_21812)">
            <path
                d="M2.82943 11.0223H2.89724V11.2673H2.96506V11.104H3.23633C3.32675 11.104 3.37196 11.2673 3.37196 11.5938L3.57541 11.6755C3.57541 11.5122 3.62063 11.4305 3.71104 11.4305L3.77886 11.5122V11.5938L3.43978 13.7983L4.45703 13.7166H5.1352L5.20302 13.3084L5.1352 13.2268H5.27083L5.20302 12.6553V12.5736H5.33865L5.27083 12.492V12.3286H5.40647V12.1654H5.27083V12.0837H5.40647L5.33865 12.0021V11.4305L5.40647 11.5122H5.47429V11.1856L5.40647 11.104V11.0223H5.60991L5.27083 13.7983C5.36126 13.7983 5.49689 12.9002 5.67772 11.104L5.94901 11.0223C5.99422 11.4578 6.06203 11.6755 6.15244 11.6755H6.22025C6.22025 11.5122 6.26546 11.4305 6.35593 11.4305H6.42374C6.19765 13.3132 5.8586 15.5177 5.40647 18.044H5.33865L5.27083 17.9623L5.33865 17.8806V17.2275H5.27083L5.06738 18.044H4.86393C4.77351 18.044 4.7283 17.8806 4.7283 17.5541H4.66048V17.8806H4.59267C4.50224 17.8806 4.45703 17.799 4.45703 17.6357C4.45703 17.2419 4.59267 16.3166 4.86393 14.8597H4.79612L3.9145 14.9414L3.30414 14.8597C3.16851 16.1661 3.03288 17.037 2.89724 17.4724H2.69379C2.60337 17.4724 2.55816 17.2547 2.55816 16.8193H2.49034L2.42253 17.3908L2.28689 17.2275V16.9825L2.35471 16.9009V16.8193L2.28689 16.7376H2.21908L2.15126 16.8193H2.08344L2.01562 16.4926C2.19647 14.6548 2.39992 13.3212 2.62598 12.492H2.69379L2.62598 12.4103V12.1654L2.82943 11.2673H2.76161L2.82943 11.0223ZM2.89724 11.3489V11.9204H2.96506V11.3489H2.89724ZM2.82943 12.0021L2.76161 12.6553V12.8185H2.82943L2.89724 12.1654V12.0021H2.82943ZM2.69379 12.9002V13.2268H2.76161V12.9002H2.69379ZM2.62598 13.3084L2.55816 13.7166V13.7983H2.62598L2.69379 13.4717V13.3084H2.62598ZM2.49034 14.1249V14.4515H2.55816V14.1249H2.49034ZM5.06738 14.9414L4.99957 15.4313V15.5129H5.06738L5.1352 15.1046V14.9414H5.06738ZM4.93175 15.5945V15.9212H4.99957V15.5945H4.93175ZM5.40647 16.4926L5.33865 16.9009V17.1458H5.40647L5.47429 16.5743V16.4926H5.40647ZM2.08344 16.9009H2.15126V17.3092H2.08344V16.9009Z"
                fill="black" />
        </g>
        <g filter="url(#filter5_d_4611_21812)">
            <path
                d="M24.1556 1.52655L24.359 1.6082V1.77149H24.1556L24.2912 2.01643C24.1928 2.28859 23.8311 2.42467 23.2062 2.42467L22.7314 2.50631L22.6636 2.75126H22.7314C22.5958 3.13868 22.3245 4.88049 21.9177 7.97666L22.1211 9.0381H22.0533C21.9522 9.0381 21.8618 8.7659 21.782 8.22164L21.8498 7.40514V7.32349H21.782V7.48675C21.6464 7.48675 21.5785 7.54125 21.5785 7.6501V7.73174L21.7142 9.0381V9.11974H21.5785L21.3073 8.87475L21.2394 8.95646H21.1716C20.9908 8.48577 20.9004 8.07751 20.9004 7.73174L20.9682 7.81338H21.036L20.9004 7.24184L21.1038 7.1602V6.75196H20.9682V6.67031C21.1038 6.67031 21.1716 6.61588 21.1716 6.50702V6.42538H21.036C21.036 5.98992 21.1038 5.7722 21.2394 5.7722V4.71079C21.3113 4.63394 21.4017 4.06241 21.5107 2.9962L21.036 3.07785L20.0866 2.9962V2.91455L20.4257 2.8329V2.91455L20.4935 2.8329H21.5107V2.58797L20.4257 2.75126L20.3578 2.66961H20.29L19.8831 2.75126L19.6797 2.58797L19.7475 2.17973L19.6797 2.09808C19.6797 1.82593 19.9509 1.68985 20.4935 1.68985L24.1556 1.52655ZM23.7487 1.77149V1.85314H24.0199V1.77149H23.7487ZM21.2394 6.34372L21.1038 8.13993H21.2394L21.1716 7.73174V7.56846L21.3073 7.32349H21.2394L21.3073 7.24184V7.1602L21.2394 7.07855V6.9969L21.3751 6.67031L21.3073 6.34372H21.2394Z"
                fill="black" />
        </g>
        <g filter="url(#filter6_d_4611_21812)">
            <path
                d="M17.4015 1.6322H18.2153C19.1647 1.84672 19.6395 2.3366 19.6395 3.10185V3.59173L18.9613 4.73479H19.0291L19.7073 3.99997V4.16326C19.4759 4.78441 19.1821 5.19265 18.8257 5.38796L18.4188 5.55126V5.87785C18.5172 5.87785 18.9919 6.58545 19.843 8.00064C20.0238 8.09035 20.2046 8.30805 20.3855 8.65382V8.73546L20.0464 8.4089V8.49054C20.2724 8.77874 20.3855 8.99644 20.3855 9.14372H20.3176L19.9786 9.38864H19.9108L19.7751 9.14372L19.7073 9.22536H19.6395C18.7353 8.33526 18.1023 7.43717 17.7406 6.53102L17.4015 5.71455C17.242 5.71455 17.1516 6.04114 17.1303 6.69431C17.1595 7.23863 17.1369 7.57002 17.0625 7.68851C16.9294 7.81979 16.9068 7.95107 16.9946 8.08235V8.24562H16.7912C16.7007 8.24562 16.6555 8.13677 16.6555 7.919H16.5877C16.5877 8.13677 16.5026 8.21841 16.3324 8.16399L16.0332 7.68366L16.113 6.93926V6.61267L16.5199 4.32655H16.5877V4.65314H16.6555L16.9946 2.93855C16.9042 2.93855 16.859 3.04742 16.859 3.26514H16.7912V3.10185H16.3843V3.0202C16.3843 2.91134 16.5199 2.82969 16.7912 2.77526V2.69361H16.6555L16.2486 2.8569H16.1808C16.1808 2.74804 16.2712 2.69361 16.4521 2.69361V2.61197C16.2712 2.61197 16.1808 2.53031 16.1808 2.36702L17.4015 1.6322ZM17.4694 4.57149H17.5372C18.2473 4.16166 18.7446 3.72621 19.0291 3.26514V3.10185C19.0291 2.91614 18.7579 2.72563 18.2153 2.53031L17.8084 2.69361L17.4694 4.57149ZM18.8257 2.53031C18.9161 2.77686 19.0065 2.91294 19.0969 2.93855V2.77526L18.8257 2.53031ZM19.2326 3.0202L19.1647 3.42843H19.2326L19.3004 3.34679V3.0202H19.2326ZM16.7233 3.26514H16.7912V3.51008L16.7233 3.83667H16.6555V3.59173L16.7233 3.26514ZM19.0291 3.59173L18.6901 4.16326H18.7579L19.0969 3.67338V3.59173H19.0291ZM19.7073 3.75502H19.843L19.7751 3.99997H19.7073V3.75502ZM16.5877 3.99997H16.6555V4.32655H16.5877V3.99997ZM16.4521 5.06138V5.38796H16.5199V5.06138H16.4521ZM18.4866 7.51081V7.59244L18.7579 7.919C18.6701 7.67251 18.5797 7.53638 18.4866 7.51081ZM18.8257 8.08235V8.16399L19.0969 8.4089V8.32726L18.8257 8.08235Z"
                fill="black" />
        </g>
        <g filter="url(#filter7_d_4611_21812)">
            <path
                d="M9.73824 1.67548L10.0654 1.94923C9.96961 2.43272 9.79674 2.66485 9.54679 2.64564L7.77555 2.74169L7.7676 2.90498L8.10268 2.9338L8.51357 2.88578L8.5774 2.97703L8.64521 2.98183L9.12392 2.9338L9.25954 2.94821L9.25556 3.02986L7.6798 3.22677L7.55616 4.28338L7.62397 4.28818L9.467 4.11048L9.5268 4.19693L9.52283 4.27858L9.38721 4.26417V4.34582L9.85393 4.47069L9.84995 4.55234C9.75153 4.85651 9.10262 5.10305 7.90322 5.29196L7.22103 5.32078L7.28486 5.40243L6.95774 6.43982H6.88993L6.92985 5.705L6.86204 5.7002L6.7304 6.83365C8.08405 6.61592 9.04015 6.52948 9.59864 6.5743L9.92975 6.68476L9.92577 6.84806L9.79009 6.83845L9.84995 6.9249L9.83797 7.16984C9.70769 7.37476 9.43111 7.46122 9.00823 7.42922L9.00426 7.51086L9.54679 7.55407L9.53481 7.71735L6.37931 8.27447L6.3115 8.26968C6.09342 8.21204 5.98438 8.12719 5.98438 8.01512V8.0007L5.99636 7.75578L6.18383 6.87207L6.12005 6.78562L6.25567 6.79043L6.23171 7.19866L6.29957 7.20826C6.32615 6.93611 6.37931 6.80483 6.4591 6.81444L6.39527 6.72319L6.44314 5.91152L6.30752 5.89711L6.21575 6.30055L6.29156 6.2237L6.35938 6.2285L6.33143 6.71838L6.26362 6.70878L6.27561 6.46864L6.2078 6.46384L6.19979 6.62713L6.13198 6.62233L6.13999 6.45904L6.3554 5.08064L6.28759 5.07584L6.44314 4.68201L6.37931 4.59556L6.38334 4.51392L6.53094 3.13552L6.59472 3.22197L6.66259 3.22677L6.67054 3.06348L6.62664 2.65044L6.73437 1.92042L6.74636 1.67548L6.81417 1.68508L6.878 1.77154L6.94979 1.69469L7.0176 1.7043L7.08143 1.78594L7.15322 1.7091L7.35671 1.72831L9.73824 1.67548ZM6.34342 5.24394L6.3115 5.81546L6.37931 5.82026L6.41123 5.25354L6.34342 5.24394ZM8.58138 5.34959H8.64919L8.64124 5.43124L7.41253 5.58013L7.3487 5.48887L7.35268 5.41203L7.96705 5.37841L7.96308 5.46006L8.58138 5.34959Z"
                fill="black" />
        </g>
        <g filter="url(#filter8_d_4611_21812)">
            <path
                d="M2.39193 1.62744H2.45974V1.87239H2.52756V1.70909H2.79883C2.88925 1.70909 2.93446 1.87239 2.93446 2.19897L3.13791 2.28062C3.13791 2.11732 3.18313 2.03568 3.27354 2.03568L3.34136 2.11732V2.19897L3.00228 4.40344L4.01953 4.3218H4.6977L4.76552 3.91356L4.6977 3.83191H4.83333L4.76552 3.26039V3.17873H4.90115L4.83333 3.09709V2.9338H4.96897V2.7705H4.83333V2.68885H4.96897L4.90115 2.60721V2.03568L4.96897 2.11732H5.03679V1.79073L4.96897 1.70909V1.62744H5.17242L4.83333 4.40344C4.92376 4.40344 5.05939 3.50532 5.24023 1.70909L5.51151 1.62744C5.55672 2.06289 5.62453 2.28062 5.71494 2.28062H5.78275C5.78275 2.11732 5.82796 2.03568 5.91843 2.03568H5.98624C5.76015 3.91836 5.42108 6.12283 4.96897 8.64908H4.90115L4.83333 8.56744L4.90115 8.4858V7.83262H4.83333L4.62988 8.64908H4.42643C4.33601 8.64908 4.2908 8.4858 4.2908 8.15918H4.22298V8.4858H4.15517C4.06474 8.4858 4.01953 8.40416 4.01953 8.24089C4.01953 7.84705 4.15517 6.92169 4.42643 5.46485H4.35862L3.477 5.5465L2.86664 5.46485C2.73101 6.77121 2.59538 7.64213 2.45974 8.07754H2.25629C2.16587 8.07754 2.12066 7.85984 2.12066 7.42436H2.05284L1.98503 7.9959L1.84939 7.83262V7.5877L1.91721 7.506V7.42436L1.84939 7.34273H1.78158L1.71376 7.42436H1.64594L1.57812 7.0978C1.75897 5.25993 1.96242 3.92637 2.18848 3.09709H2.25629L2.18848 3.01544V2.7705L2.39193 1.87239H2.32411L2.39193 1.62744ZM2.45974 1.95403V2.52556H2.52756V1.95403H2.45974ZM2.39193 2.60721L2.32411 3.26039V3.42368H2.39193L2.45974 2.7705V2.60721H2.39193ZM2.25629 3.50532V3.83191H2.32411V3.50532H2.25629ZM2.18848 3.91356L2.12066 4.3218V4.40344H2.18848L2.25629 4.07685V3.91356H2.18848ZM2.05284 4.73003V5.05662H2.12066V4.73003H2.05284ZM4.62988 5.5465L4.56207 6.03638V6.11803H4.62988L4.6977 5.7098V5.5465H4.62988ZM4.49425 6.19968V6.52626H4.56207V6.19968H4.49425ZM4.96897 7.0978L4.90115 7.506V7.75098H4.96897L5.03679 7.17944V7.0978H4.96897ZM1.64594 7.506H1.71376V7.91426H1.64594V7.506Z"
                fill="black" />
        </g>
        <g filter="url(#filter9_d_4611_21812)">
            <path
                d="M14.1611 2.25373C14.2217 2.23877 14.2762 2.10574 14.3231 2.0344C14.3716 1.96054 14.4073 1.89723 14.4619 1.8355C14.5592 1.72547 14.6469 1.60829 14.7607 1.5189C14.8696 1.4333 14.9781 1.34668 15.0973 1.28625C15.158 1.25549 15.1899 1.31117 15.2355 1.31694C15.2694 1.32121 15.3034 1.29363 15.3372 1.30094C15.4184 1.31844 15.5555 1.48073 15.6153 1.58012C15.8317 1.93964 15.8556 2.63313 15.859 3.08673C15.8603 3.25319 15.8471 3.43686 15.8305 3.60877C15.8124 3.79664 15.7877 4.03673 15.7542 4.23253C15.6784 4.6749 15.5995 5.12022 15.4961 5.54773C15.4021 5.93636 15.285 6.30429 15.1755 6.66189C15.0253 7.15268 14.8093 7.5811 14.603 8.0154C14.4425 8.35343 14.2262 8.67251 14.0064 8.90661C13.9514 8.96523 13.9007 9.01304 13.8429 9.04786C13.7951 9.07677 13.7598 9.123 13.7151 9.1449C13.6288 9.18713 13.5744 9.13323 13.4922 9.09835C13.4348 9.07402 13.3621 9.067 13.3086 9.02458C13.0463 8.81658 12.7951 8.57802 12.5828 8.25553C12.3806 7.94845 12.1849 7.65284 11.9982 7.33328C11.7867 6.97136 11.6139 6.61636 11.4327 6.20978C11.2549 5.81073 11.1166 5.43117 10.9703 5.0332C10.9082 4.86431 10.8735 4.67909 10.8146 4.50893C10.8107 4.49791 10.7719 4.40189 10.7686 4.38791C10.7657 4.36104 10.7628 4.33416 10.7598 4.3072C10.7648 4.24059 10.747 4.1929 10.7064 4.16405C10.6953 4.11576 10.6936 4.04572 10.6879 3.99372C10.6816 3.93577 10.6753 3.87782 10.669 3.81987C10.6453 3.80418 10.6301 3.77675 10.6234 3.73745C10.5329 3.30717 10.5073 2.61102 10.7749 2.37575C11.0335 2.1485 11.3713 2.42517 11.6124 2.68787C11.6924 2.77504 11.7769 2.83075 11.8555 2.92673C11.9468 3.03827 12.0223 3.14797 12.104 3.27328C12.2257 3.45976 12.3733 3.62038 12.4708 3.82669C12.5562 4.00763 12.67 4.16065 12.7657 4.3344C12.8209 4.4346 12.8584 4.55431 12.9104 4.6558C12.9293 4.69286 12.9615 4.72728 12.979 4.76178C12.9938 4.79098 13.0195 4.88815 13.0332 4.907C13.1688 5.09521 13.2018 4.6901 13.2398 4.53659C13.2665 4.42853 13.3155 4.34732 13.3486 4.24237C13.388 4.11729 13.4074 4.00202 13.4495 3.8906C13.6612 3.33058 13.9068 2.78863 14.1611 2.25373C14.1727 2.2509 14.1151 2.35049 14.1611 2.25373ZM13.8583 3.34828C13.8936 3.34482 13.8729 3.30277 13.8883 3.28524C13.916 3.25363 13.9412 3.26157 13.9716 3.21862C14.0198 3.15047 14.0646 3.05902 14.1109 2.98597C14.2131 2.82483 14.2746 2.59777 14.3759 2.43591C14.4631 2.29673 14.5457 2.13342 14.6394 2.02241C14.6779 1.97677 14.7084 1.91793 14.7457 1.87101C14.7575 1.85614 14.765 1.81739 14.7716 1.8049C14.7889 1.77189 14.8164 1.83873 14.8246 1.76224C14.7439 1.73421 14.5938 1.94363 14.5369 2.02676C14.4638 2.13376 14.3857 2.24123 14.3168 2.34887C14.2638 2.43187 14.2345 2.55241 14.1835 2.63719C14.1546 2.6851 14.1354 2.67614 14.097 2.74126C14.07 2.7871 14.0481 2.84415 14.0241 2.8943C13.9939 2.95792 13.9636 3.02146 13.9334 3.08508C13.9213 3.11045 13.9092 3.13589 13.8971 3.16134C13.8727 3.1926 13.8697 3.23396 13.8883 3.28524C13.8789 3.31662 13.8115 3.35587 13.8425 3.40374C13.8477 3.38526 13.853 3.36677 13.8583 3.34828C13.8835 3.34578 13.8559 3.36987 13.8583 3.34828ZM12.4939 7.06251C12.4927 7.0486 12.4522 6.97041 12.4487 6.96245C12.4304 6.92117 12.4127 6.86742 12.3914 6.82772C12.3601 6.76991 12.3077 6.65525 12.2685 6.63997C12.2917 6.85379 12.4258 6.9638 12.4966 7.10266C12.5244 7.15707 12.678 7.46792 12.7126 7.41262C12.6575 7.35523 12.6948 7.33982 12.6514 7.27486C12.628 7.23975 12.599 7.23222 12.5784 7.20178C12.5466 7.15497 12.5408 7.09904 12.4939 7.06251C12.5073 7.07296 12.4905 7.02269 12.4939 7.06251ZM14.6113 2.82157C14.6359 2.80578 14.6704 2.83822 14.677 2.77708C14.644 2.76563 14.5631 2.82699 14.5955 2.87696C14.6008 2.85846 14.606 2.84006 14.6113 2.82157C14.6334 2.80734 14.609 2.84309 14.6113 2.82157ZM11.9078 3.32159C11.8981 3.28881 11.892 3.23494 11.8654 3.27745C11.9369 3.35193 11.8654 3.32392 11.9123 3.40227C11.9319 3.4349 11.9833 3.48078 12.0068 3.51031C12.0385 3.55016 12.0612 3.57911 12.0826 3.61416C12.0997 3.64214 12.1122 3.67782 12.1368 3.71443C12.1642 3.75498 12.2108 3.7804 12.2344 3.81812C12.256 3.85274 12.2759 3.91521 12.2987 3.96715C12.3508 4.08595 12.4256 4.19795 12.4878 4.30704C12.6078 4.5174 12.7259 4.73206 12.8322 4.95938C12.8881 5.07898 12.9334 5.2036 12.9791 5.3317C13.0021 5.3963 13.0344 5.45077 13.0618 5.50989C13.0651 5.5405 13.0684 5.57111 13.0718 5.60165C13.1071 5.62218 13.1424 5.64264 13.1778 5.66318C13.1853 5.57891 13.0928 5.38381 13.0609 5.29738C13.0137 5.16989 12.9422 5.07628 12.8907 4.9525C12.7957 4.72389 12.677 4.4856 12.56 4.2993C12.512 4.22277 12.4629 4.13631 12.4189 4.0541C12.3702 3.96319 12.303 3.91335 12.2538 3.83412C12.2503 3.80214 12.2469 3.77008 12.2434 3.7381C12.2256 3.72603 12.2093 3.70992 12.1948 3.68967C12.1624 3.64109 12.1052 3.61424 12.0779 3.57022C12.0753 3.54684 12.0728 3.52354 12.0703 3.50017C12.0713 3.46795 12.0592 3.44955 12.0342 3.44497C12.0069 3.39505 11.9493 3.32907 11.9078 3.32159C11.9709 3.33303 11.895 3.27839 11.9078 3.32159ZM11.8898 5.19078C11.88 5.158 11.8739 5.10413 11.8473 5.14665C11.8646 5.1661 11.8747 5.15713 11.8779 5.1197C11.907 5.38803 12.0088 5.55957 12.1039 5.7991C12.1581 5.93563 12.2987 6.30554 12.4045 6.24349C12.2049 5.94601 12.1076 5.45622 11.8898 5.19078C11.9361 5.2473 11.8769 5.14757 11.8898 5.19078ZM11.296 4.50968C11.2842 4.46987 11.3025 4.4179 11.2629 4.40321C11.2573 4.46172 11.2538 4.48271 11.2901 4.45493C11.3265 4.79065 11.4574 5.10626 11.5897 5.39187C11.6725 5.57039 11.7488 5.77608 11.8395 5.94342C11.8777 6.01399 11.9147 6.08468 11.9526 6.15817C11.9798 6.21075 12.0479 6.35707 12.0833 6.38891C12.1604 6.45826 12.1617 6.36513 12.1358 6.28702C12.1287 6.26546 12.0737 6.189 12.0639 6.16924C12.0488 6.13901 12.0294 6.1172 12.0173 6.08254C11.9513 5.89266 11.8763 5.74609 11.7916 5.57642C11.7055 5.4041 11.6157 5.2384 11.5347 5.05483C11.4595 4.88488 11.4018 4.63313 11.296 4.50968C11.3382 4.55889 11.2854 4.47395 11.296 4.50968ZM15.5533 4.71433C15.4912 4.71163 15.4164 5.07138 15.3898 5.14803C15.3593 5.23641 15.3072 5.30703 15.2781 5.39517C15.2433 5.50069 15.2257 5.65767 15.2012 5.7801C15.1237 6.16704 15.025 6.51954 14.9037 6.8663C14.8824 6.92711 14.8447 6.99314 14.8237 7.05732C14.8136 7.08842 14.797 7.18365 14.7916 7.1969C14.752 7.29265 14.7188 7.24747 14.6755 7.30005C14.5459 7.45769 14.4474 7.77959 14.3487 7.98707C14.2679 8.1569 14.191 8.33533 14.107 8.50031C14.0716 8.56976 14.0293 8.61559 13.9879 8.67566C13.9694 8.70241 13.9571 8.74786 13.9328 8.76667C13.8966 8.79461 13.8358 8.75717 13.8006 8.78746C13.7334 8.8451 13.7604 8.93749 13.6585 8.90405C13.5989 8.88438 13.5496 8.81743 13.5017 8.76261C13.4455 8.69835 13.4296 8.65107 13.3774 8.70346C13.375 8.70589 13.324 8.90222 13.326 8.91192C13.335 8.95618 13.5477 9.04615 13.5763 9.05008C13.6447 9.05946 13.7155 9.01828 13.7701 8.99041C13.8641 8.94248 13.9449 8.8409 14.0249 8.74163C14.432 8.23651 14.7351 7.56635 14.9976 6.85222C15.1381 6.46999 15.2532 6.07789 15.3628 5.65809C15.412 5.46951 15.4517 5.29653 15.4914 5.09342C15.518 4.95694 15.6049 4.73022 15.5625 4.60136C15.5275 4.62794 15.5563 4.67219 15.5533 4.71433C15.556 4.67681 15.5224 4.71292 15.5533 4.71433ZM10.8006 2.65995C10.6862 2.74704 10.701 2.95365 10.7023 3.11508C10.693 3.13692 10.6836 3.15875 10.6743 3.18059C10.682 3.25148 10.6897 3.32237 10.6974 3.39326C10.708 3.49111 10.7125 3.61207 10.7315 3.70759C10.7519 3.8097 10.7697 3.85593 10.7918 3.95335C10.7988 4.01731 10.8057 4.08135 10.8127 4.14531C10.846 4.16113 10.8622 4.1918 10.8615 4.23746C10.8904 4.38214 10.9077 4.50612 10.9427 4.64691C10.9711 4.6649 10.9863 4.69434 10.9883 4.73531C10.9926 4.76452 10.997 4.79372 11.0014 4.823C11.0091 4.84541 11.0369 4.9053 11.0467 4.92747C11.0923 5.03112 11.1109 5.16419 11.1527 5.27029C11.2378 5.48637 11.3212 5.70496 11.4091 5.91433C11.83 6.9173 12.3203 7.82169 12.9384 8.57409C12.9502 8.44674 12.8155 8.3129 12.7625 8.21074C12.7013 8.09271 12.6314 7.99186 12.5696 7.87277C12.4647 7.67008 12.3579 7.50353 12.2415 7.32271C12.0135 6.96843 11.7952 6.53772 11.6118 6.13296C11.4971 5.8798 11.4133 5.62495 11.3162 5.36661C11.2702 5.24405 11.2384 5.10053 11.2003 4.98438C11.1537 4.84224 11.1296 4.67977 11.0781 4.54197C11.0517 4.47139 11.0416 4.38576 11.0155 4.31475C10.9838 4.22835 10.9633 4.14617 10.9518 4.04109C10.938 3.91385 10.9073 3.85944 10.8808 3.74395C10.8589 3.64843 10.8679 3.53837 10.8481 3.44196C10.8172 3.42466 10.8032 3.39272 10.8059 3.34606C10.8004 3.29542 10.7949 3.24471 10.7894 3.194C10.7852 3.09104 10.7952 3.06475 10.7963 2.96817C10.7975 2.86328 10.7942 2.83854 10.8101 2.7479C10.7787 2.69174 10.7809 2.66159 10.8166 2.65728C10.8342 2.64654 10.8342 2.62996 10.8167 2.60754C10.8113 2.62496 10.806 2.64245 10.8006 2.65995C10.8033 2.64141 10.7251 2.71746 10.8006 2.65995ZM14.701 3.05528C14.5501 3.13277 14.447 3.41518 14.3583 3.59998C14.2771 3.76928 14.2128 3.92964 14.151 4.11168C14.0909 4.28873 14.0444 4.46844 13.9907 4.65431C13.96 4.76068 13.9404 4.86785 13.9183 4.98052C13.8935 5.10686 13.8443 5.32736 13.8732 5.44099C13.958 5.37025 13.9683 5.07706 13.996 4.94607C14.035 4.76142 14.0742 4.60378 14.1333 4.4333C14.2095 4.21368 14.3018 3.99943 14.3978 3.80008C14.4597 3.67153 14.7493 3.21775 14.701 3.05528C14.7058 3.07155 14.6363 3.08846 14.701 3.05528ZM15.1197 1.57502C15.0745 1.58212 14.8487 1.59465 14.8682 1.72643C14.9703 1.71035 15.0888 1.66212 15.1922 1.67543C15.2845 1.68732 15.3614 1.76985 15.4366 1.85986C15.5129 1.95117 15.5668 2.0295 15.6076 2.16481C15.616 2.1929 15.654 2.42655 15.6969 2.40648C15.7762 2.36945 15.5494 1.75638 15.5122 1.70429C15.4757 1.65305 15.3702 1.56046 15.3249 1.54281C15.3231 1.54215 15.2085 1.53169 15.2083 1.53171C15.1575 1.54102 15.1702 1.47622 15.1197 1.57502C15.1307 1.55329 15.06 1.58441 15.1197 1.57502ZM13.121 7.40286C13.0074 7.26453 12.8929 7.11976 12.7952 6.95748C12.765 6.9074 12.7521 6.81285 12.7018 6.8042C12.6108 6.78862 12.7044 7.01885 12.731 7.08437C12.7893 7.22807 12.9115 7.39006 12.996 7.49612C13.0237 7.53081 13.1395 7.6933 13.1713 7.57546C13.192 7.49887 13.1087 7.47723 13.121 7.40286C13.1079 7.48208 13.058 7.32612 13.121 7.40286ZM15.5529 3.04244C15.5444 3.03711 15.5359 3.0317 15.5275 3.02637C15.5263 3.21017 15.5127 3.41012 15.4836 3.58731C15.4704 3.66753 15.4436 3.74245 15.4289 3.82168C15.4162 3.88934 15.407 4.04034 15.4495 4.1046C15.5454 4.24974 15.5502 3.86431 15.561 3.7775C15.5698 3.70672 15.6049 3.6308 15.6091 3.56091C15.6183 3.40675 15.5697 3.19823 15.5529 3.04244C15.5713 3.21277 15.5444 3.03711 15.5529 3.04244ZM14.2233 7.54654C14.1817 7.63389 14.1402 7.72123 14.0987 7.80858C14.0662 7.87684 14.0153 7.92005 13.9958 7.98274C13.9563 8.11002 13.9654 8.37566 14.0757 8.21625C14.1369 8.12779 14.1992 7.97146 14.2387 7.85717C14.2864 7.71894 14.3813 7.53376 14.2233 7.54654C14.2548 7.54399 14.1606 7.67848 14.2233 7.54654ZM11.1991 2.77528C11.1351 2.78536 11.0359 2.76705 10.9981 2.84782C10.9617 2.92541 10.9795 3.07912 11.0418 3.08807C11.0593 3.09065 11.0635 3.04353 11.0784 3.03815C11.11 3.02684 11.1447 3.01727 11.1796 3.01178C11.253 3.00023 11.3646 3.01465 11.4215 2.94422C11.3903 2.90784 11.3473 2.84288 11.3127 2.81728C11.2671 2.78364 11.258 2.84246 11.1991 2.77528C11.2146 2.79291 11.1397 2.78464 11.1991 2.77528ZM11.2846 3.72517C11.2848 3.76797 11.2914 3.80877 11.3042 3.8477C11.3378 3.77698 11.3597 3.71436 11.4079 3.67968C11.4523 3.64776 11.516 3.66638 11.5641 3.64565C11.5595 3.60462 11.4854 3.56278 11.4643 3.54975C11.4205 3.52265 11.4057 3.51576 11.3536 3.49888C11.3197 3.48793 11.2899 3.42981 11.2537 3.46247C11.1897 3.52008 11.239 3.66646 11.2846 3.72517C11.2954 3.76739 11.2698 3.7062 11.2846 3.72517ZM13.6793 4.53C13.6147 4.68677 13.4769 5.06238 13.5221 5.25872C13.5809 5.13492 13.6345 5.03532 13.6588 4.88156C13.6764 4.77046 13.7099 4.6402 13.6793 4.53C13.6908 4.57141 13.65 4.60122 13.6793 4.53ZM12.8204 6.33928C12.7997 6.14854 12.6927 6.00732 12.6019 5.87825C12.5454 6.01253 12.8011 6.44587 12.863 6.53294C12.8948 6.46589 12.8547 6.38378 12.8204 6.33928C12.8352 6.35849 12.8164 6.30212 12.8204 6.33928ZM13.0885 8.4411C13.1551 8.52267 13.2185 8.65835 13.2951 8.6032C13.2144 8.41238 13.1146 8.19507 12.9661 8.31592C13.0159 8.3491 13.0706 8.35894 13.0885 8.4411C13.1471 8.51297 13.0898 8.44713 13.0885 8.4411ZM15.5307 2.67333C15.5451 2.67888 15.4953 2.76873 15.5515 2.78197C15.5686 2.74046 15.5557 2.6924 15.5495 2.64387C15.5383 2.55497 15.5112 2.54768 15.4942 2.47578C15.4829 2.428 15.4932 2.35071 15.4759 2.3075C15.454 2.25294 15.3604 2.16568 15.3276 2.12545C15.296 2.19192 15.3843 2.33238 15.4073 2.38761C15.4529 2.49699 15.4656 2.58987 15.5307 2.67333C15.5473 2.67977 15.4988 2.6325 15.5307 2.67333ZM15.102 2.59218C15.0202 2.55827 15.043 2.61051 14.9991 2.70138C14.9828 2.73507 14.9079 2.68894 14.9325 2.80107C14.9469 2.8662 15.0464 2.88824 15.0775 2.86222C15.1419 2.80816 15.1118 2.68225 15.102 2.59218C15.1089 2.65568 15.0867 2.58584 15.102 2.59218ZM15.3571 2.90726C15.3424 2.82633 15.3536 2.64057 15.2647 2.73462C15.2779 2.72079 15.2528 2.97254 15.2528 2.96495C15.2529 3.01428 15.2588 3.16065 15.2946 3.18135C15.3688 3.22428 15.3286 2.97077 15.3571 2.90726C15.3472 2.92943 15.3458 2.84492 15.3571 2.90726ZM13.1308 7.84169C13.144 7.96235 13.1756 7.93002 13.2219 8.01874C13.247 8.06681 13.2183 8.1969 13.2852 8.15481C13.3446 8.11743 13.2892 7.98071 13.2629 7.92431C13.2125 7.81658 13.2188 7.82786 13.1308 7.84169C13.1713 7.83533 13.1355 7.88451 13.1308 7.84169ZM11.5319 3.32862C11.6262 3.44336 11.7204 3.55808 11.8147 3.67282C11.8355 3.53866 11.7328 3.46383 11.661 3.38636C11.599 3.31945 11.593 3.2857 11.5319 3.32862C11.6319 3.45035 11.5533 3.31364 11.5319 3.32862ZM13.8209 8.08786C13.8924 8.05369 13.9048 8.01284 13.8689 7.88445C13.857 7.84169 13.8115 7.74169 13.7893 7.73094C13.7172 7.69612 13.7937 7.83894 13.792 7.82117C13.8006 7.91022 13.8112 7.99907 13.8209 8.08786C13.8542 8.07192 13.8088 7.9769 13.8209 8.08786ZM12.2616 5.11826C12.2425 5.22363 12.3582 5.43389 12.4135 5.49659C12.4526 5.4051 12.317 5.17823 12.2616 5.11826C12.2762 5.13408 12.2578 5.13898 12.2616 5.11826ZM12.9217 5.76908C12.8991 5.84086 12.9587 6.05251 13.0081 6.04722C13.1005 6.03724 12.9482 5.79426 12.9217 5.76908C12.9811 5.82541 12.8815 5.89691 12.9217 5.76908ZM13.6327 8.05468C13.6411 8.13231 13.6421 8.32648 13.7239 8.31723C13.7332 8.2752 13.7267 8.16661 13.7134 8.12405C13.686 8.03658 13.701 8.04392 13.6327 8.05468C13.6608 8.05022 13.6415 8.13592 13.6327 8.05468ZM15.3732 4.17183C15.3164 4.2019 15.2621 4.4496 15.3282 4.51555C15.343 4.44886 15.4186 4.22772 15.3732 4.17183C15.4305 4.24241 15.3086 4.20591 15.3732 4.17183ZM13.6602 7.01334C13.6226 7.05891 13.5603 7.19262 13.6284 7.27453C13.666 7.22888 13.7283 7.09517 13.6602 7.01334C13.6892 7.0482 13.6376 7.04075 13.6602 7.01334ZM13.0161 7.89271C13.0309 7.8409 12.9552 7.69612 12.9319 7.69363C12.9107 7.69127 12.8884 7.7411 12.8961 7.77946C12.9026 7.81159 12.9994 7.87684 13.0161 7.89271C13.0145 7.89874 12.978 7.85671 13.0161 7.89271ZM14.0499 7.45402C14.0361 7.39912 14.0427 7.33232 14.0101 7.28951C13.9625 7.40171 13.9482 7.47002 14.0499 7.45402C14.0329 7.38684 14.0188 7.45894 14.0499 7.45402ZM15.0261 2.25639C15.044 2.2782 15.1457 2.45039 15.1458 2.34544C15.1458 2.37201 15.104 2.25474 15.0967 2.24915C15.0617 2.22199 15.0722 2.21668 15.0261 2.25639C15.0625 2.30069 15.041 2.24343 15.0261 2.25639ZM13.2049 5.19239C13.2152 5.2374 13.2255 5.28239 13.2357 5.32732C13.255 5.28665 13.274 5.2457 13.2927 5.20435C13.2634 5.20044 13.2341 5.19646 13.2049 5.19239C13.2463 5.1981 13.219 5.25422 13.2049 5.19239ZM15.094 3.18164C15.0584 3.15085 15.0336 3.13778 15.0245 3.20891C15.049 3.22132 15.0702 3.22991 15.094 3.18164ZM11.5662 4.0193C11.5499 4.0338 11.5131 3.96926 11.5084 4.04799C11.5326 4.07524 11.5524 4.07018 11.5662 4.0193ZM13.5312 5.81186C13.5033 5.77792 13.5062 5.83114 13.5223 5.85083C13.5253 5.83781 13.5283 5.8248 13.5312 5.81186C13.5283 5.82448 13.5256 5.80493 13.5312 5.81186ZM13.5092 6.0194C13.5288 5.97798 13.495 5.97865 13.4836 6.00267C13.4921 6.0083 13.5006 6.01386 13.5092 6.0194C13.5132 6.01103 13.5008 6.01397 13.5092 6.0194ZM12.5153 6.6301C12.5097 6.61844 12.504 6.60687 12.4984 6.5952C12.487 6.61922 12.4956 6.67153 12.5153 6.6301C12.5113 6.63855 12.5098 6.61873 12.5153 6.6301ZM13.8061 8.58497C13.834 8.61894 13.8311 8.56563 13.815 8.54602C13.812 8.55907 13.8091 8.57199 13.8061 8.58497C13.8118 8.59192 13.809 8.57231 13.8061 8.58497Z"
                fill="#FF3131" />
        </g>
    </g>
    <defs>
        <filter id="filter0_d_4611_21812" x="-9.07227" y="0.950256" width="43.9531" height="47.1849"
            filterUnits="userSpaceOnUse" color-interpolation-filters="sRGB">
            <feFlood flood-opacity="0" result="BackgroundImageFix" />
            <feColorMatrix in="SourceAlpha" type="matrix" values="0 0 0 0 0 0 0 0 0 0 0 0 0 0 0 0 0 0 127 0"
                result="hardAlpha" />
            <feOffset dx="-9" dy="10" />
            <feGaussianBlur stdDeviation="10" />
            <feComposite in2="hardAlpha" operator="out" />
            <feColorMatrix type="matrix" values="0 0 0 0 0.984314 0 0 0 0 0.305882 0 0 0 0 0.945098 0 0 0 1 0" />
            <feBlend mode="normal" in2="BackgroundImageFix" result="effect1_dropShadow_4611_21812" />
            <feBlend mode="normal" in="SourceGraphic" in2="effect1_dropShadow_4611_21812" result="shape" />
        </filter>
        <filter id="filter1_d_4611_21812" x="-13.6406" y="1.04633" width="44.4082" height="46.7767"
            filterUnits="userSpaceOnUse" color-interpolation-filters="sRGB">
            <feFlood flood-opacity="0" result="BackgroundImageFix" />
            <feColorMatrix in="SourceAlpha" type="matrix" values="0 0 0 0 0 0 0 0 0 0 0 0 0 0 0 0 0 0 127 0"
                result="hardAlpha" />
            <feOffset dx="-9" dy="10" />
            <feGaussianBlur stdDeviation="10" />
            <feComposite in2="hardAlpha" operator="out" />
            <feColorMatrix type="matrix" values="0 0 0 0 0.984314 0 0 0 0 0.305882 0 0 0 0 0.945098 0 0 0 1 0" />
            <feBlend mode="normal" in2="BackgroundImageFix" result="effect1_dropShadow_4611_21812" />
            <feBlend mode="normal" in="SourceGraphic" in2="effect1_dropShadow_4611_21812" result="shape" />
        </filter>
        <filter id="filter2_d_4611_21812" x="-18.7637" y="0.695679" width="44.8828" height="48.1647"
            filterUnits="userSpaceOnUse" color-interpolation-filters="sRGB">
            <feFlood flood-opacity="0" result="BackgroundImageFix" />
            <feColorMatrix in="SourceAlpha" type="matrix" values="0 0 0 0 0 0 0 0 0 0 0 0 0 0 0 0 0 0 127 0"
                result="hardAlpha" />
            <feOffset dx="-9" dy="10" />
            <feGaussianBlur stdDeviation="10" />
            <feComposite in2="hardAlpha" operator="out" />
            <feColorMatrix type="matrix" values="0 0 0 0 0.984314 0 0 0 0 0.305882 0 0 0 0 0.945098 0 0 0 1 0" />
            <feBlend mode="normal" in2="BackgroundImageFix" result="effect1_dropShadow_4611_21812" />
            <feBlend mode="normal" in="SourceGraphic" in2="effect1_dropShadow_4611_21812" result="shape" />
        </filter>
        <filter id="filter3_d_4611_21812" x="-22.582" y="1.07031" width="44.0801" height="46.599"
            filterUnits="userSpaceOnUse" color-interpolation-filters="sRGB">
            <feFlood flood-opacity="0" result="BackgroundImageFix" />
            <feColorMatrix in="SourceAlpha" type="matrix" values="0 0 0 0 0 0 0 0 0 0 0 0 0 0 0 0 0 0 127 0"
                result="hardAlpha" />
            <feOffset dx="-9" dy="10" />
            <feGaussianBlur stdDeviation="10" />
            <feComposite in2="hardAlpha" operator="out" />
            <feColorMatrix type="matrix" values="0 0 0 0 0.984314 0 0 0 0 0.305882 0 0 0 0 0.945098 0 0 0 1 0" />
            <feBlend mode="normal" in2="BackgroundImageFix" result="effect1_dropShadow_4611_21812" />
            <feBlend mode="normal" in="SourceGraphic" in2="effect1_dropShadow_4611_21812" result="shape" />
        </filter>
        <filter id="filter4_d_4611_21812" x="-26.9844" y="1.02228" width="44.4082" height="47.0217"
            filterUnits="userSpaceOnUse" color-interpolation-filters="sRGB">
            <feFlood flood-opacity="0" result="BackgroundImageFix" />
            <feColorMatrix in="SourceAlpha" type="matrix" values="0 0 0 0 0 0 0 0 0 0 0 0 0 0 0 0 0 0 127 0"
                result="hardAlpha" />
            <feOffset dx="-9" dy="10" />
            <feGaussianBlur stdDeviation="10" />
            <feComposite in2="hardAlpha" operator="out" />
            <feColorMatrix type="matrix" values="0 0 0 0 0.984314 0 0 0 0 0.305882 0 0 0 0 0.945098 0 0 0 1 0" />
            <feBlend mode="normal" in2="BackgroundImageFix" result="effect1_dropShadow_4611_21812" />
            <feBlend mode="normal" in="SourceGraphic" in2="effect1_dropShadow_4611_21812" result="shape" />
        </filter>
        <filter id="filter5_d_4611_21812" x="-9.32031" y="-8.47345" width="44.6797" height="47.5932"
            filterUnits="userSpaceOnUse" color-interpolation-filters="sRGB">
            <feFlood flood-opacity="0" result="BackgroundImageFix" />
            <feColorMatrix in="SourceAlpha" type="matrix" values="0 0 0 0 0 0 0 0 0 0 0 0 0 0 0 0 0 0 127 0"
                result="hardAlpha" />
            <feOffset dx="-9" dy="10" />
            <feGaussianBlur stdDeviation="10" />
            <feComposite in2="hardAlpha" operator="out" />
            <feColorMatrix type="matrix" values="0 0 0 0 0.984314 0 0 0 0 0.305882 0 0 0 0 0.945098 0 0 0 1 0" />
            <feBlend mode="normal" in2="BackgroundImageFix" result="effect1_dropShadow_4611_21812" />
            <feBlend mode="normal" in="SourceGraphic" in2="effect1_dropShadow_4611_21812" result="shape" />
        </filter>
        <filter id="filter6_d_4611_21812" x="-12.9668" y="-8.3678" width="44.3516" height="47.7564"
            filterUnits="userSpaceOnUse" color-interpolation-filters="sRGB">
            <feFlood flood-opacity="0" result="BackgroundImageFix" />
            <feColorMatrix in="SourceAlpha" type="matrix" values="0 0 0 0 0 0 0 0 0 0 0 0 0 0 0 0 0 0 127 0"
                result="hardAlpha" />
            <feOffset dx="-9" dy="10" />
            <feGaussianBlur stdDeviation="10" />
            <feComposite in2="hardAlpha" operator="out" />
            <feColorMatrix type="matrix" values="0 0 0 0 0.984314 0 0 0 0 0.305882 0 0 0 0 0.945098 0 0 0 1 0" />
            <feBlend mode="normal" in2="BackgroundImageFix" result="effect1_dropShadow_4611_21812" />
            <feBlend mode="normal" in="SourceGraphic" in2="effect1_dropShadow_4611_21812" result="shape" />
        </filter>
        <filter id="filter7_d_4611_21812" x="-23.0156" y="-8.32452" width="44.0801" height="46.599"
            filterUnits="userSpaceOnUse" color-interpolation-filters="sRGB">
            <feFlood flood-opacity="0" result="BackgroundImageFix" />
            <feColorMatrix in="SourceAlpha" type="matrix" values="0 0 0 0 0 0 0 0 0 0 0 0 0 0 0 0 0 0 127 0"
                result="hardAlpha" />
            <feOffset dx="-9" dy="10" />
            <feGaussianBlur stdDeviation="10" />
            <feComposite in2="hardAlpha" operator="out" />
            <feColorMatrix type="matrix" values="0 0 0 0 0.984314 0 0 0 0 0.305882 0 0 0 0 0.945098 0 0 0 1 0" />
            <feBlend mode="normal" in2="BackgroundImageFix" result="effect1_dropShadow_4611_21812" />
            <feBlend mode="normal" in="SourceGraphic" in2="effect1_dropShadow_4611_21812" result="shape" />
        </filter>
        <filter id="filter8_d_4611_21812" x="-27.4219" y="-8.37256" width="44.4082" height="47.0217"
            filterUnits="userSpaceOnUse" color-interpolation-filters="sRGB">
            <feFlood flood-opacity="0" result="BackgroundImageFix" />
            <feColorMatrix in="SourceAlpha" type="matrix" values="0 0 0 0 0 0 0 0 0 0 0 0 0 0 0 0 0 0 127 0"
                result="hardAlpha" />
            <feOffset dx="-9" dy="10" />
            <feGaussianBlur stdDeviation="10" />
            <feComposite in2="hardAlpha" operator="out" />
            <feColorMatrix type="matrix" values="0 0 0 0 0.984314 0 0 0 0 0.305882 0 0 0 0 0.945098 0 0 0 1 0" />
            <feBlend mode="normal" in2="BackgroundImageFix" result="effect1_dropShadow_4611_21812" />
            <feBlend mode="normal" in="SourceGraphic" in2="effect1_dropShadow_4611_21812" result="shape" />
        </filter>
        <filter id="filter9_d_4611_21812" x="0.560547" y="-3.72296" width="15.2988" height="12.8834"
            filterUnits="userSpaceOnUse" color-interpolation-filters="sRGB">
            <feFlood flood-opacity="0" result="BackgroundImageFix" />
            <feColorMatrix in="SourceAlpha" type="matrix" values="0 0 0 0 0 0 0 0 0 0 0 0 0 0 0 0 0 0 127 0"
                result="hardAlpha" />
            <feOffset dx="-8" dy="-3" />
            <feGaussianBlur stdDeviation="1" />
            <feComposite in2="hardAlpha" operator="out" />
            <feColorMatrix type="matrix" values="0 0 0 0 0.984314 0 0 0 0 0.305882 0 0 0 0 0.945098 0 0 0 1 0" />
            <feBlend mode="normal" in2="BackgroundImageFix" result="effect1_dropShadow_4611_21812" />
            <feBlend mode="normal" in="SourceGraphic" in2="effect1_dropShadow_4611_21812" result="shape" />
        </filter>
        <clipPath id="clip0_4611_21812">
            <rect width="25" height="20" fill="white" transform="translate(0 0.859619)" />
        </clipPath>
    </defs>
</svg>