<svg width="843" height="761" viewBox="0 0 843 761" fill="none" xmlns="http://www.w3.org/2000/svg">
<path d="M189 187L193.456 199.044L205.5 203.5L193.456 207.956L189 220L184.544 207.956L172.5 203.5L184.544 199.044L189 187Z" fill="#F9E10B"/>
<path d="M655.5 349L658.471 361.044L666.5 365.5L658.471 369.956L655.5 382L652.529 369.956L644.5 365.5L652.529 361.044L655.5 349Z" fill="white"/>
<path d="M256.5 621L259.471 630.854L267.5 634.5L259.471 638.146L256.5 648L253.529 638.146L245.5 634.5L253.529 630.854L256.5 621Z" fill="#F9E10B"/>
<g opacity="0.6" filter="url(#filter0_f_543_5683)">
<path d="M274.783 586.894C217.935 542.743 165.388 382.352 146.22 307.676C129.533 249.681 146.22 263.244 238.318 289.435C330.416 315.627 274.783 242.197 364.544 160.349C454.304 78.5013 416.904 263.244 509.002 365.671C601.1 468.098 622.138 270.727 685.251 263.244C748.364 255.761 619.333 552.284 601.1 586.894C582.868 621.504 345.844 642.083 274.783 586.894Z" fill="url(#paint0_linear_543_5683)"/>
</g>
<g opacity="0.2" filter="url(#filter1_f_543_5683)">
<ellipse cx="453" cy="669.5" rx="116.5" ry="9.5" fill="#151212"/>
</g>
<defs>
<filter id="filter0_f_543_5683" x="0.5" y="0" width="842" height="761" filterUnits="userSpaceOnUse" color-interpolation-filters="sRGB">
<feFlood flood-opacity="0" result="BackgroundImageFix"/>
<feBlend mode="normal" in="SourceGraphic" in2="BackgroundImageFix" result="shape"/>
<feGaussianBlur stdDeviation="70" result="effect1_foregroundBlur_543_5683"/>
</filter>
<filter id="filter1_f_543_5683" x="316.5" y="640" width="273" height="59" filterUnits="userSpaceOnUse" color-interpolation-filters="sRGB">
<feFlood flood-opacity="0" result="BackgroundImageFix"/>
<feBlend mode="normal" in="SourceGraphic" in2="BackgroundImageFix" result="shape"/>
<feGaussianBlur stdDeviation="10" result="effect1_foregroundBlur_543_5683"/>
</filter>
<linearGradient id="paint0_linear_543_5683" x1="532.845" y1="126.207" x2="751.027" y2="592.902" gradientUnits="userSpaceOnUse">
<stop stop-color="#F6CA2A"/>
<stop offset="1" stop-color="#3AF4BC" stop-opacity="0.58"/>
</linearGradient>
</defs>
</svg>
