<svg width="7" height="7" viewBox="0 0 7 7" fill="none" xmlns="http://www.w3.org/2000/svg">
<path d="M6.48657 0.126111C6.37178 0.0622375 6.24553 0.0216178 6.11503 0.00657503C5.98453 -0.00846772 5.85234 0.00236149 5.72603 0.0384435C5.59972 0.0745255 5.48177 0.135153 5.3789 0.216857C5.27604 0.298562 5.1903 0.399742 5.12657 0.514611L3.27007 3.85561L2.20757 2.79311C2.11532 2.6976 2.00498 2.62142 1.88297 2.56901C1.76097 2.5166 1.62975 2.48901 1.49697 2.48786C1.36419 2.48671 1.23251 2.51201 1.10962 2.56229C0.986719 2.61257 0.875067 2.68682 0.781174 2.78072C0.687282 2.87461 0.613029 2.98626 0.562748 3.10916C0.512467 3.23205 0.487165 3.36373 0.488319 3.49651C0.489473 3.62929 0.517059 3.76051 0.569468 3.88252C0.621877 4.00452 0.698059 4.11486 0.793569 4.20711L2.79357 6.20711C2.98257 6.39661 3.23757 6.50061 3.50057 6.50061L3.63907 6.49061C3.79234 6.46917 3.93855 6.41245 4.06618 6.3249C4.19381 6.23736 4.29937 6.12139 4.37457 5.98611L6.87457 1.48611C6.93839 1.37134 6.97899 1.24511 6.99403 1.11465C7.00908 0.984188 6.99828 0.852039 6.96225 0.72575C6.92622 0.599461 6.86567 0.481505 6.78405 0.378619C6.70243 0.275732 6.60135 0.18993 6.48657 0.126111Z" fill="white"/>
</svg>
