<svg width="20" height="21" viewBox="0 0 20 21" fill="none" xmlns="http://www.w3.org/2000/svg">
<path d="M17.6453 8.92539C17.3508 8.61758 17.0461 8.30039 16.9312 8.02148C16.825 7.76602 16.8187 7.34258 16.8125 6.93242C16.8008 6.16992 16.7883 5.30586 16.1875 4.70508C15.5867 4.1043 14.7227 4.0918 13.9602 4.08008C13.55 4.07383 13.1266 4.06758 12.8711 3.96133C12.593 3.84648 12.275 3.5418 11.9672 3.24727C11.4281 2.7293 10.8156 2.14258 10 2.14258C9.18437 2.14258 8.57266 2.7293 8.03281 3.24727C7.725 3.5418 7.40781 3.84648 7.12891 3.96133C6.875 4.06758 6.45 4.07383 6.03984 4.08008C5.27734 4.0918 4.41328 4.1043 3.8125 4.70508C3.21172 5.30586 3.20312 6.16992 3.1875 6.93242C3.18125 7.34258 3.175 7.76602 3.06875 8.02148C2.95391 8.29961 2.64922 8.61758 2.35469 8.92539C1.83672 9.46445 1.25 10.077 1.25 10.8926C1.25 11.7082 1.83672 12.3199 2.35469 12.8598C2.64922 13.1676 2.95391 13.4848 3.06875 13.7637C3.175 14.0191 3.18125 14.4426 3.1875 14.8527C3.19922 15.6152 3.21172 16.4793 3.8125 17.0801C4.41328 17.6809 5.27734 17.6934 6.03984 17.7051C6.45 17.7113 6.87344 17.7176 7.12891 17.8238C7.40703 17.9387 7.725 18.2434 8.03281 18.5379C8.57188 19.0559 9.18437 19.6426 10 19.6426C10.8156 19.6426 11.4273 19.0559 11.9672 18.5379C12.275 18.2434 12.5922 17.9387 12.8711 17.8238C13.1266 17.7176 13.55 17.7113 13.9602 17.7051C14.7227 17.6934 15.5867 17.6809 16.1875 17.0801C16.7883 16.4793 16.8008 15.6152 16.8125 14.8527C16.8187 14.4426 16.825 14.0191 16.9312 13.7637C17.0461 13.4855 17.3508 13.1676 17.6453 12.8598C18.1633 12.3207 18.75 11.7082 18.75 10.8926C18.75 10.077 18.1633 9.46523 17.6453 8.92539ZM13.5672 9.45977L9.19219 13.8348C9.13414 13.8929 9.06521 13.939 8.98934 13.9704C8.91346 14.0019 8.83213 14.0181 8.75 14.0181C8.66787 14.0181 8.58654 14.0019 8.51066 13.9704C8.43479 13.939 8.36586 13.8929 8.30781 13.8348L6.43281 11.9598C6.31554 11.8425 6.24965 11.6834 6.24965 11.5176C6.24965 11.3517 6.31554 11.1927 6.43281 11.0754C6.55009 10.9581 6.70915 10.8922 6.875 10.8922C7.04085 10.8922 7.19991 10.9581 7.31719 11.0754L8.75 12.509L12.6828 8.57539C12.7409 8.51732 12.8098 8.47126 12.8857 8.43983C12.9616 8.40841 13.0429 8.39223 13.125 8.39223C13.2071 8.39223 13.2884 8.40841 13.3643 8.43983C13.4402 8.47126 13.5091 8.51732 13.5672 8.57539C13.6253 8.63346 13.6713 8.7024 13.7027 8.77827C13.7342 8.85414 13.7503 8.93546 13.7503 9.01758C13.7503 9.0997 13.7342 9.18102 13.7027 9.25689C13.6713 9.33276 13.6253 9.4017 13.5672 9.45977Z" fill="#FB4EF1"/>
</svg>
