<svg width="30" height="30" viewBox="0 0 30 30" fill="none" xmlns="http://www.w3.org/2000/svg">
<path d="M12.6891 2.95811C13.3394 0.0793674 17.4412 0.0793684 18.0914 2.95811V2.95811C18.5129 4.82383 20.6539 5.71067 22.2712 4.68941V4.68941C24.7666 3.11364 27.6669 6.01403 26.0912 8.50942V8.50942C25.0699 10.1267 25.9567 12.2677 27.8225 12.6891V12.6891C30.7012 13.3394 30.7012 17.4412 27.8225 18.0914V18.0914C25.9567 18.5129 25.0699 20.6539 26.0912 22.2712V22.2712C27.6669 24.7666 24.7666 27.6669 22.2712 26.0912V26.0912C20.6539 25.0699 18.5129 25.9567 18.0914 27.8225V27.8225C17.4412 30.7012 13.3394 30.7012 12.6891 27.8225V27.8225C12.2677 25.9567 10.1267 25.0699 8.50942 26.0912V26.0912C6.01403 27.6669 3.11364 24.7666 4.68941 22.2712V22.2712C5.71067 20.6539 4.82383 18.5129 2.95811 18.0914V18.0914C0.0793681 17.4412 0.0793684 13.3394 2.95811 12.6891V12.6891C4.82383 12.2677 5.71067 10.1267 4.68941 8.50942V8.50942C3.11364 6.01403 6.01403 3.11364 8.50942 4.68941V4.68941C10.1267 5.71067 12.2677 4.82383 12.6891 2.95811V2.95811Z" fill="url(#paint0_linear_105_15574)"/>
<path d="M12.6891 2.95811C13.3394 0.0793674 17.4412 0.0793684 18.0914 2.95811V2.95811C18.5129 4.82383 20.6539 5.71067 22.2712 4.68941V4.68941C24.7666 3.11364 27.6669 6.01403 26.0912 8.50942V8.50942C25.0699 10.1267 25.9567 12.2677 27.8225 12.6891V12.6891C30.7012 13.3394 30.7012 17.4412 27.8225 18.0914V18.0914C25.9567 18.5129 25.0699 20.6539 26.0912 22.2712V22.2712C27.6669 24.7666 24.7666 27.6669 22.2712 26.0912V26.0912C20.6539 25.0699 18.5129 25.9567 18.0914 27.8225V27.8225C17.4412 30.7012 13.3394 30.7012 12.6891 27.8225V27.8225C12.2677 25.9567 10.1267 25.0699 8.50942 26.0912V26.0912C6.01403 27.6669 3.11364 24.7666 4.68941 22.2712V22.2712C5.71067 20.6539 4.82383 18.5129 2.95811 18.0914V18.0914C0.0793681 17.4412 0.0793684 13.3394 2.95811 12.6891V12.6891C4.82383 12.2677 5.71067 10.1267 4.68941 8.50942V8.50942C3.11364 6.01403 6.01403 3.11364 8.50942 4.68941V4.68941C10.1267 5.71067 12.2677 4.82383 12.6891 2.95811V2.95811Z" fill="url(#paint1_linear_105_15574)"/>
<defs>
<linearGradient id="paint0_linear_105_15574" x1="2.2918" y1="2.2918" x2="26.2304" y2="33.4572" gradientUnits="userSpaceOnUse">
<stop stop-color="#FF8DB6"/>
<stop offset="1" stop-color="#FFB7D7"/>
</linearGradient>
<linearGradient id="paint1_linear_105_15574" x1="15.3903" y1="-9" x2="15.3903" y2="39.7806" gradientUnits="userSpaceOnUse">
<stop stop-color="#2BD7EF"/>
<stop offset="1" stop-color="#FB4EF1"/>
</linearGradient>
</defs>
</svg>
