<svg version="1.2" xmlns="http://www.w3.org/2000/svg" viewBox="0 0 521 1182" width="521" height="1182"><defs><filter x="-50%" y="-50%" width="200%" height="200%" id="f1"> <feGaussianBlur stdDeviation="78.5"/> </filter><linearGradient id="P" gradientUnits="userSpaceOnUse"/><linearGradient id="g1" x2="1" href="#P" gradientTransform="matrix(246.864,547.556,-439.75,198.26,108.581,483.604)"><stop offset=".04" stop-color="#5d35ff" stop-opacity="1"/><stop offset=".06" stop-color="#1888ef" stop-opacity="1"/><stop offset=".47" stop-color="#1888ef" stop-opacity="1"/><stop offset="1" stop-color="#3af4bc" stop-opacity=".58"/></linearGradient></defs><style>.a{filter:url(#f1);fill:url(#g1)}</style><g style="opacity:.1"><path class="a" d="m191.8 475.2c-88.4-105.5 171.9-136.8 18.1-266.1l-237.1-51.8v92.6l-28.2 158.2-109.9 615.1-106.2 595.3c-0.1 20.3 25.7 100.7 98.2 6.1 90.7-118.3 203-60.2 220.5-158.3 18.3-102.5-39.8-293.6 60.8-340.9 80.5-37.8 19.2-207.8 71.3-256.6 28.3-90.3 185.9 28.5 184.3-102.3-2-163.5-83.4-185.9-171.8-291.3z"/></g></svg>