<svg width="34" height="34" viewBox="0 0 34 34" fill="none" xmlns="http://www.w3.org/2000/svg">
<rect width="34" height="34" rx="10" fill="white"/>
<g clip-path="url(#clip0_614_25706)">
<path d="M6.96012 10.6525C12.5064 5.22522 21.4951 5.22522 27.0399 10.6525L27.7072 11.3056C27.7731 11.3693 27.8255 11.4457 27.8613 11.5302C27.897 11.6146 27.9155 11.7054 27.9155 11.7971C27.9155 11.8889 27.897 11.9796 27.8613 12.0641C27.8255 12.1485 27.7731 12.2249 27.7072 12.2887L25.4249 14.5228C25.3581 14.5887 25.2681 14.6257 25.1742 14.6257C25.0803 14.6257 24.9903 14.5887 24.9234 14.5228L24.004 13.6246C20.1365 9.83788 13.865 9.83788 9.99745 13.6246L9.01428 14.588C8.94689 14.6533 8.8567 14.6899 8.76283 14.6899C8.66895 14.6899 8.57876 14.6533 8.51137 14.588L6.22912 12.3525C6.16327 12.2888 6.1109 12.2125 6.07514 12.1282C6.03937 12.0439 6.02094 11.9532 6.02094 11.8616C6.02094 11.77 6.03937 11.6793 6.07514 11.595C6.1109 11.5107 6.16327 11.4344 6.22912 11.3707L6.96012 10.6525ZM31.7603 15.2751L33.7918 17.2641C33.8577 17.3278 33.9101 17.4042 33.9458 17.4887C33.9816 17.5731 34.0001 17.6639 34.0001 17.7556C34.0001 17.8474 33.9816 17.9381 33.9458 18.0226C33.9101 18.107 33.8577 18.1834 33.7918 18.2472L24.6316 27.2161C24.4972 27.3471 24.317 27.4203 24.1294 27.4203C23.9418 27.4203 23.7616 27.3471 23.6272 27.2161L17.1275 20.8511C17.0941 20.8177 17.0487 20.7989 17.0014 20.7989C16.9542 20.7989 16.9088 20.8177 16.8754 20.8511L10.3743 27.2161C10.2399 27.3471 10.0597 27.4203 9.87208 27.4203C9.68445 27.4203 9.50425 27.3471 9.36987 27.2161L0.208284 18.2472C0.142393 18.1834 0.0899998 18.107 0.0542191 18.0226C0.0184383 17.9381 0 17.8474 0 17.7556C0 17.6639 0.0184383 17.5731 0.0542191 17.4887C0.0899998 17.4042 0.142393 17.3278 0.208284 17.2641L2.23978 15.2751C2.37417 15.1441 2.55437 15.0709 2.74199 15.0709C2.92961 15.0709 3.10982 15.1441 3.2442 15.2751L9.74528 21.6401C9.81612 21.7081 9.92803 21.7081 9.99745 21.6401L16.4985 15.2751C16.6329 15.1441 16.8131 15.0709 17.0007 15.0709C17.1884 15.0709 17.3686 15.1441 17.5029 15.2751L24.004 21.6401C24.0749 21.7081 24.1854 21.7081 24.2562 21.6401L30.7573 15.2751C30.8914 15.1442 31.0714 15.071 31.2588 15.071C31.4462 15.071 31.6261 15.1442 31.7603 15.2751Z" fill="#699BF7"/>
</g>
<defs>
<clipPath id="clip0_614_25706">
<rect width="34" height="34" fill="white"/>
</clipPath>
</defs>
</svg>
