<svg width="13" height="12" viewBox="0 0 13 12" fill="none" xmlns="http://www.w3.org/2000/svg">
<path d="M6.49988 12C9.81359 12 12.4999 9.31371 12.4999 6C12.4999 2.68629 9.81359 0 6.49988 0C3.18617 0 0.499878 2.68629 0.499878 6C0.499878 9.31371 3.18617 12 6.49988 12Z" fill="#3749E9"/>
<path d="M8.94729 6.5516C8.93667 6.55093 6.53148 7.97626 6.49998 7.98843C6.4929 7.98434 4.0666 6.54835 4.05505 6.54981C4.06093 6.55843 6.49836 9.99988 6.49998 9.99988C6.50165 9.99988 8.94729 6.5516 8.94729 6.5516Z" fill="white"/>
<path d="M6.50142 2L4.06323 6.07783L6.50142 7.5221L8.93964 6.07783L6.50142 2Z" fill="white"/>
</svg>
