<svg width="20" height="20" viewBox="0 0 20 20" fill="none" xmlns="http://www.w3.org/2000/svg">
<path d="M10 20C15.5228 20 20 15.5228 20 10C20 4.47715 15.5228 0 10 0C4.47715 0 0 4.47715 0 10C0 15.5228 4.47715 20 10 20Z" fill="#FB4EF1"/>
<path d="M14.0795 10.921C14.0618 10.9198 10.0532 13.2954 10.0007 13.3157C9.98886 13.3089 5.94502 10.9155 5.92578 10.918C5.93557 10.9323 9.99796 16.6681 10.0007 16.6681C10.0034 16.6681 14.0795 10.921 14.0795 10.921Z" fill="white"/>
<path d="M10.0031 3.33398L5.93945 10.1304L10.0031 12.5375L14.0668 10.1304L10.0031 3.33398Z" fill="white"/>
</svg>
