<svg width="20" height="20" viewBox="0 0 20 20" fill="none" xmlns="http://www.w3.org/2000/svg">
<path d="M9.99935 13.3333C10.4596 13.3333 10.8327 12.9602 10.8327 12.5C10.8327 12.0397 10.4596 11.6666 9.99935 11.6666C9.53911 11.6666 9.16602 12.0397 9.16602 12.5C9.16602 12.9602 9.53911 13.3333 9.99935 13.3333Z" fill="url(#paint0_linear_8282_16176)"/>
<path d="M14.1673 6.66663H8.33398V4.99996C8.33398 4.55793 8.50958 4.13401 8.82214 3.82145C9.1347 3.50889 9.55862 3.33329 10.0007 3.33329C10.4427 3.33329 10.8666 3.50889 11.1792 3.82145C11.4917 4.13401 11.6673 4.55793 11.6673 4.99996C11.6673 5.22097 11.7551 5.43293 11.9114 5.58921C12.0677 5.74549 12.2796 5.83329 12.5007 5.83329C12.7217 5.83329 12.9336 5.74549 13.0899 5.58921C13.2462 5.43293 13.334 5.22097 13.334 4.99996C13.334 4.1159 12.9828 3.26806 12.3577 2.64294C11.7326 2.01782 10.8847 1.66663 10.0007 1.66663C9.1166 1.66663 8.26875 2.01782 7.64363 2.64294C7.01851 3.26806 6.66732 4.1159 6.66732 4.99996V6.66663H5.83398C5.17094 6.66663 4.53506 6.93002 4.06622 7.39886C3.59738 7.8677 3.33398 8.50358 3.33398 9.16663V15.8333C3.33398 16.4963 3.59738 17.1322 4.06622 17.6011C4.53506 18.0699 5.17094 18.3333 5.83398 18.3333H14.1673C14.8304 18.3333 15.4662 18.0699 15.9351 17.6011C16.4039 17.1322 16.6673 16.4963 16.6673 15.8333V9.16663C16.6673 8.50358 16.4039 7.8677 15.9351 7.39886C15.4662 6.93002 14.8304 6.66663 14.1673 6.66663ZM10.0007 15C9.5062 15 9.02285 14.8533 8.61173 14.5786C8.2006 14.3039 7.88017 13.9135 7.69095 13.4567C7.50173 12.9999 7.45222 12.4972 7.54869 12.0122C7.64515 11.5273 7.88325 11.0818 8.23288 10.7322C8.58251 10.3826 9.02797 10.1445 9.51293 10.048C9.99788 9.95153 10.5005 10.001 10.9574 10.1903C11.4142 10.3795 11.8046 10.6999 12.0793 11.111C12.354 11.5222 12.5007 12.0055 12.5007 12.5C12.5007 13.163 12.2373 13.7989 11.7684 14.2677C11.2996 14.7366 10.6637 15 10.0007 15Z" fill="url(#paint1_linear_8282_16176)"/>
<defs>
<linearGradient id="paint0_linear_8282_16176" x1="8.84901" y1="12.5" x2="11.1881" y2="12.51" gradientUnits="userSpaceOnUse">
<stop stop-color="#2BD7EF"/>
<stop offset="1" stop-color="#FB4EF1"/>
</linearGradient>
<linearGradient id="paint1_linear_8282_16176" x1="0.797961" y1="9.99996" x2="19.5105" y2="10.0645" gradientUnits="userSpaceOnUse">
<stop stop-color="#2BD7EF"/>
<stop offset="1" stop-color="#FB4EF1"/>
</linearGradient>
</defs>
</svg>
