<svg width="24" height="25" viewBox="0 0 24 25" fill="none" xmlns="http://www.w3.org/2000/svg">
<path d="M13.7516 4.10702C13.7504 4.04984 13.6879 4.01236 13.6386 4.0413C10.083 6.12753 10.2033 11.4812 10.2439 12.3064C10.2465 12.3596 10.1961 12.3945 10.1474 12.3727C9.78007 12.2088 8.55136 11.5077 8.50179 9.4498C8.50041 9.39254 8.43866 9.35514 8.3892 9.38403C6.36247 10.5679 5.00024 12.7759 5.00024 15.226C5.00024 18.9534 8.13425 21.9751 12.0002 21.9751C15.8662 21.9751 19.0002 18.9534 19.0002 15.226C19.0002 9.79375 13.8481 8.63898 13.7516 4.10702Z" fill="url(#paint0_linear_1_17422)"/>
<defs>
<linearGradient id="paint0_linear_1_17422" x1="5.05004" y1="3.75083" x2="15.5459" y2="4.82373" gradientUnits="userSpaceOnUse">
<stop stop-color="#2BD7EF"/>
<stop offset="1" stop-color="#FB4EF1"/>
</linearGradient>
</defs>
</svg>
