<svg width="20" height="20" viewBox="0 0 20 20" fill="none" xmlns="http://www.w3.org/2000/svg">
<path d="M3.74935 1.66663C2.59935 1.66663 1.66602 2.59996 1.66602 3.74996V5.68663C1.66646 6.13219 1.78598 6.56954 2.01219 6.95341C2.23841 7.33728 2.56311 7.65371 2.95268 7.86996L7.74602 10.535C6.74201 11.0418 5.93822 11.8724 5.4645 12.8924C4.99079 13.9125 4.87482 15.0625 5.13533 16.1566C5.39585 17.2507 6.01763 18.225 6.90022 18.9221C7.78281 19.6192 8.87466 19.9984 9.99935 19.9984C11.124 19.9984 12.2159 19.6192 13.0985 18.9221C13.9811 18.225 14.6028 17.2507 14.8634 16.1566C15.1239 15.0625 15.0079 13.9125 14.5342 12.8924C14.0605 11.8724 13.2567 11.0418 12.2527 10.535L17.0477 7.87163C17.4372 7.65502 17.7617 7.33823 17.9876 6.95406C18.2136 6.56989 18.3327 6.13231 18.3327 5.68663V3.74996C18.3327 2.59996 17.3993 1.66663 16.2493 1.66663H3.74935ZM8.33268 8.95329V3.33329H11.666V8.95329L9.99935 9.87996L8.33268 8.95329ZM13.3327 15C13.3327 15.884 12.9815 16.7319 12.3564 17.357C11.7312 17.9821 10.8834 18.3333 9.99935 18.3333C9.11529 18.3333 8.26745 17.9821 7.64233 17.357C7.0172 16.7319 6.66602 15.884 6.66602 15C6.66602 14.1159 7.0172 13.2681 7.64233 12.6429C8.26745 12.0178 9.11529 11.6666 9.99935 11.6666C10.8834 11.6666 11.7312 12.0178 12.3564 12.6429C12.9815 13.2681 13.3327 14.1159 13.3327 15Z" fill="black"/>
</svg>
