<svg width="29" height="29" viewBox="0 0 29 29" fill="none" xmlns="http://www.w3.org/2000/svg">
<g clip-path="url(#clip0_4_28169)">
<path d="M26.3214 11.8594C26.2967 11.7347 26.2455 11.6169 26.1713 11.5138C26.097 11.4107 26.0014 11.3249 25.891 11.262L22.5912 9.38143L22.5779 5.66232C22.5775 5.53423 22.5493 5.40776 22.4952 5.29164C22.4412 5.17552 22.3626 5.07251 22.2648 4.98974C21.0678 3.97721 19.6894 3.20127 18.2028 2.70318C18.0857 2.66355 17.9617 2.64889 17.8386 2.66013C17.7155 2.67137 17.5961 2.70827 17.4882 2.76845L14.1596 4.62911L10.8276 2.76513C10.7196 2.70461 10.6001 2.66744 10.4768 2.656C10.3535 2.64457 10.2292 2.65913 10.1119 2.69875C8.62621 3.20005 7.24926 3.97899 6.05428 4.99416C5.95667 5.07682 5.87814 5.17964 5.8241 5.29556C5.77005 5.41148 5.74178 5.53774 5.74122 5.66564L5.72462 9.38807L2.42477 11.2686C2.31437 11.3315 2.21879 11.4174 2.14454 11.5205C2.07029 11.6235 2.0191 11.7414 1.99445 11.866C1.69244 13.3836 1.69244 14.9459 1.99445 16.4635C2.0191 16.5881 2.07029 16.7059 2.14454 16.809C2.21879 16.9121 2.31437 16.998 2.42477 17.0608L5.72462 18.9414L5.7379 22.6616C5.7383 22.7897 5.7665 22.9162 5.82055 23.0323C5.8746 23.1484 5.95321 23.2514 6.05096 23.3342C7.24797 24.3467 8.62641 25.1227 10.113 25.6208C10.2301 25.6604 10.3541 25.675 10.4772 25.6638C10.6003 25.6526 10.7197 25.6157 10.8276 25.5555L14.1596 23.6893L17.4915 25.5533C17.6234 25.6267 17.772 25.6649 17.9229 25.6639C18.0196 25.6639 18.1156 25.6482 18.2072 25.6174C19.6925 25.1164 21.0694 24.3382 22.2648 23.3242C22.3624 23.2416 22.441 23.1388 22.495 23.0228C22.5491 22.9069 22.5773 22.7807 22.5779 22.6528L22.5945 18.9303L25.8943 17.0498C26.0047 16.9869 26.1003 16.901 26.1746 16.7979C26.2488 16.6949 26.3 16.577 26.3247 16.4524C26.625 14.936 26.6239 13.3753 26.3214 11.8594ZM14.1596 18.5841C13.2844 18.5841 12.4289 18.3246 11.7012 17.8384C10.9736 17.3521 10.4064 16.6611 10.0715 15.8525C9.73659 15.044 9.64896 14.1543 9.8197 13.296C9.99043 12.4376 10.4119 11.6492 11.0307 11.0303C11.6495 10.4115 12.438 9.99008 13.2963 9.81934C14.1546 9.64861 15.0443 9.73623 15.8529 10.0711C16.6614 10.4061 17.3525 10.9732 17.8387 11.7009C18.3249 12.4285 18.5844 13.284 18.5844 14.1592C18.5844 15.3328 18.1182 16.4582 17.2884 17.2881C16.4586 18.1179 15.3331 18.5841 14.1596 18.5841Z" fill="#191820"/>
</g>
<defs>
<clipPath id="clip0_4_28169">
<rect width="28.3193" height="28.3193" fill="white"/>
</clipPath>
</defs>
</svg>
