<svg width="22" height="23" viewBox="0 0 22 23" fill="none" xmlns="http://www.w3.org/2000/svg">
<g clip-path="url(#clip0_243_1519)">
<rect x="-0.000106812" y="0.666016" width="22" height="22" rx="11" fill="#191820"/>
<path d="M18.5999 11.9623V12.592C18.5986 13.6573 18.2119 14.6862 17.5111 15.4886C16.8104 16.291 15.843 16.8128 14.7875 16.9576C15.2184 17.5089 15.4522 18.1886 15.4518 18.8882V22.0364C15.4518 22.2034 15.3855 22.3635 15.2674 22.4816C15.1493 22.5997 14.9892 22.666 14.8222 22.666H9.78513C9.61814 22.666 9.45799 22.5997 9.33991 22.4816C9.22183 22.3635 9.1555 22.2034 9.1555 22.0364V20.7771H7.26661C6.43167 20.7771 5.63092 20.4455 5.04053 19.8551C4.45014 19.2647 4.11846 18.4639 4.11846 17.629C4.11846 17.128 3.91945 16.6476 3.56522 16.2933C3.21098 15.9391 2.73054 15.7401 2.22957 15.7401C2.06258 15.7401 1.90243 15.6738 1.78436 15.5557C1.66628 15.4376 1.59994 15.2775 1.59994 15.1105C1.59994 14.9435 1.66628 14.7833 1.78436 14.6653C1.90243 14.5472 2.06258 14.4808 2.22957 14.4808C2.64299 14.4808 3.05236 14.5623 3.43432 14.7205C3.81627 14.8787 4.16332 15.1106 4.45565 15.4029C4.74798 15.6952 4.97987 16.0423 5.13808 16.4242C5.29629 16.8062 5.37772 17.2156 5.37772 17.629C5.37772 18.13 5.57673 18.6104 5.93096 18.9646C6.2852 19.3189 6.76564 19.5179 7.26661 19.5179H9.1555V18.8882C9.15509 18.1886 9.38894 17.5089 9.81976 16.9576C8.76431 16.8128 7.79689 16.291 7.09615 15.4886C6.39541 14.6862 6.00867 13.6573 6.00735 12.592V11.9623C6.01519 11.1798 6.22357 10.4124 6.61258 9.73343C6.42013 9.11262 6.35839 8.45866 6.43127 7.81279C6.50415 7.16692 6.71005 6.54316 7.03601 5.98084C7.09128 5.8851 7.17078 5.80561 7.26653 5.75034C7.36227 5.69508 7.47088 5.666 7.58142 5.66603C8.31479 5.66449 9.03836 5.8345 9.69431 6.16248C10.3503 6.49045 10.9204 6.9673 11.3592 7.55491H13.2481C13.6869 6.9673 14.257 6.49045 14.913 6.16248C15.5689 5.8345 16.2925 5.66449 17.0259 5.66603C17.1364 5.666 17.245 5.69508 17.3408 5.75034C17.4365 5.80561 17.516 5.8851 17.5713 5.98084C17.8973 6.54315 18.1032 7.16695 18.1759 7.81284C18.2486 8.45874 18.1867 9.1127 17.9939 9.73343C18.3837 10.4122 18.5924 11.1797 18.5999 11.9623Z" fill="white"/>
</g>
<defs>
<clipPath id="clip0_243_1519">
<rect x="-0.000106812" y="0.666016" width="22" height="22" rx="11" fill="white"/>
</clipPath>
</defs>
</svg>
