<svg width="605" height="573" viewBox="0 0 605 573" fill="none" xmlns="http://www.w3.org/2000/svg">
<g opacity="0.5" filter="url(#filter0_f_1_16611)">
<path d="M200.033 441.636C160.225 408.477 123.428 288.017 110.005 231.931C98.3201 188.375 110.005 198.561 174.498 218.232C238.991 237.903 200.033 182.754 262.889 121.283C325.745 59.8119 299.555 198.561 364.047 275.488C428.54 352.415 443.272 204.182 487.467 198.561C531.663 192.941 441.308 415.643 428.54 441.636C415.772 467.63 249.794 483.086 200.033 441.636Z" fill="url(#paint0_linear_1_16611)"/>
</g>
<path d="M187.23 467.251L189.311 474.652L194.933 477.39L189.311 480.129L187.23 487.529L185.15 480.129L179.527 477.39L185.15 474.652L187.23 467.251Z" fill="#F9E10B"/>
<defs>
<filter id="filter0_f_1_16611" x="0.85408" y="0.85408" width="603.838" height="571.543" filterUnits="userSpaceOnUse" color-interpolation-filters="sRGB">
<feFlood flood-opacity="0" result="BackgroundImageFix"/>
<feBlend mode="normal" in="SourceGraphic" in2="BackgroundImageFix" result="shape"/>
<feGaussianBlur stdDeviation="52.573" result="effect1_foregroundBlur_1_16611"/>
</filter>
<linearGradient id="paint0_linear_1_16611" x1="380.744" y1="95.6409" x2="551.877" y2="436.948" gradientUnits="userSpaceOnUse">
<stop stop-color="#F6CA2A"/>
<stop offset="1" stop-color="#3AF4BC" stop-opacity="0.58"/>
</linearGradient>
</defs>
</svg>
