<svg width="1920" height="1993" viewBox="0 0 1920 1993" fill="none" xmlns="http://www.w3.org/2000/svg">
<g opacity="0.1" filter="url(#filter0_f_548_22711)">
<path d="M403.899 1895.72C339.895 1840.86 528.294 1824.54 417.003 1757.26L245.292 1730.3L245.292 1778.52L224.853 1860.8L145.341 2180.88L68.389 2490.66C68.3596 2501.23 86.9972 2543.05 139.525 2493.81C205.185 2432.26 286.477 2462.48 299.146 2411.48C312.398 2358.13 270.372 2258.69 343.214 2234.08C401.488 2214.38 357.093 2125.95 394.816 2100.56C415.32 2053.56 529.413 2115.4 528.252 2047.33C526.801 1962.24 467.903 1950.58 403.899 1895.72Z" fill="url(#paint0_linear_548_22711)"/>
</g>
<path d="M1279.35 902.715C1217.71 925.478 1168.56 952.031 1167.81 1024.64C1167.06 1097.25 1065.48 1149.66 1118.49 1203.16C1193.34 1278.68 1326.93 1288.64 1445.41 1263.91C1540.2 1244.13 1545.29 1223.73 1535.98 1216.01" stroke="url(#paint1_radial_548_22711)" stroke-width="1.08296"/>
<path d="M1300.78 895.493C1239.15 918.256 1190 944.809 1189.24 1017.42C1188.49 1090.03 1086.91 1142.44 1139.93 1195.93C1214.77 1271.46 1348.37 1281.41 1466.85 1256.69C1561.63 1236.91 1566.72 1216.51 1557.42 1208.79" stroke="url(#paint2_radial_548_22711)" stroke-width="1.08296"/>
<path d="M1322.21 888.272C1260.58 911.036 1211.43 937.588 1210.68 1010.2C1209.92 1082.81 1108.34 1135.22 1161.36 1188.71C1236.21 1264.23 1369.8 1274.19 1488.28 1249.47C1583.06 1229.69 1588.15 1209.29 1578.85 1201.57" stroke="url(#paint3_radial_548_22711)" stroke-width="1.08296"/>
<path d="M1343.65 881.051C1282.01 903.814 1232.86 930.367 1232.11 1002.98C1231.36 1075.59 1129.78 1128 1182.79 1181.49C1257.64 1257.01 1391.23 1266.97 1509.71 1242.25C1604.5 1222.47 1609.59 1202.07 1600.28 1194.34" stroke="url(#paint4_radial_548_22711)" stroke-width="1.08296"/>
<g opacity="0.15" filter="url(#filter1_f_548_22711)">
<path d="M239.475 1212.73C91.4508 1305 391.209 1346 445.056 1451.39C474.935 1545.71 511.516 1548.23 667.817 1540.29C824.118 1532.36 680.477 1454.98 783.721 1356.47C886.964 1257.96 546.852 1294.72 363.921 1311.51C180.991 1328.31 821.802 998.097 742.225 968.26C662.648 938.424 387.499 1120.45 239.475 1212.73Z" fill="url(#paint5_linear_548_22711)"/>
</g>
<g opacity="0.3" filter="url(#filter2_f_548_22711)">
<path d="M1340.99 1408.35C1340.99 1408.35 1115.56 1386.11 1227.78 1307.11C1335.66 1248.55 1312.79 1180.68 1268.47 1071.82C1250.1 1026.7 1213.36 985.252 1168.95 1026.7C1124.54 1068.14 875.9 1079.77 971.535 1194.14C1067.17 1308.52 1104.11 1291.35 1098.46 1356.37C1084.91 1512.16 1340.99 1408.35 1340.99 1408.35Z" fill="url(#paint6_linear_548_22711)"/>
</g>
<g opacity="0.4" filter="url(#filter3_f_548_22711)">
<path d="M1072.02 1701.39C1038.3 1657.77 1094.34 1683.18 1193.16 1646.74C1329.66 1653.43 1145.26 1685.35 1145.26 1740.16C1145.26 1760.94 1105.74 1745.01 1072.02 1701.39Z" fill="url(#paint7_linear_548_22711)"/>
</g>
<g opacity="0.3" filter="url(#filter4_f_548_22711)">
<path d="M524.317 672.271C560.293 625.743 500.498 652.84 395.05 613.978C249.407 621.108 446.161 655.157 446.161 713.629C446.161 735.797 488.34 718.799 524.317 672.271Z" fill="url(#paint8_linear_548_22711)"/>
</g>
<path d="M1342.61 1746.39C1275.82 1759.67 1220.19 1778.48 1198.9 1849.46C1177.61 1920.44 1063.31 1956.9 1100.08 2017.03C1151.99 2101.92 1279.97 2131.2 1402.97 2124.31C1501.37 2118.8 1512.12 2099.58 1505.2 2090.65" stroke="url(#paint9_radial_548_22711)" stroke-width="1.08296"/>
<path d="M1365.64 1742.45C1298.85 1755.73 1243.21 1774.54 1221.92 1845.52C1200.64 1916.5 1086.34 1952.97 1123.11 2013.1C1175.02 2097.98 1303 2127.26 1426 2120.37C1524.4 2114.87 1535.15 2095.64 1528.23 2086.72" stroke="url(#paint10_radial_548_22711)" stroke-width="1.08296"/>
<path d="M1388.67 1738.52C1321.88 1751.79 1266.24 1770.61 1244.95 1841.59C1223.66 1912.57 1109.37 1949.03 1146.14 2009.16C1198.04 2094.04 1326.03 2123.33 1449.03 2116.44C1547.43 2110.93 1558.18 2091.7 1551.26 2082.78" stroke="url(#paint11_radial_548_22711)" stroke-width="1.08296"/>
<path d="M1411.7 1734.58C1344.91 1747.86 1289.27 1766.67 1267.98 1837.65C1246.69 1908.63 1132.4 1945.09 1169.17 2005.22C1221.07 2090.11 1349.06 2119.39 1472.06 2112.5C1570.46 2106.99 1581.21 2087.77 1574.29 2078.84" stroke="url(#paint12_radial_548_22711)" stroke-width="1.08296"/>
<path d="M313.78 206.887C373.583 208.45 425.558 216.265 463.18 272.842C500.802 329.42 606.962 343.642 592.791 399.438C572.784 478.209 473.401 521.189 368.147 533.067C283.943 542.57 269.561 527.962 272.896 519.47" stroke="url(#paint13_radial_548_22711)"/>
<path d="M293.338 206.887C353.141 208.45 405.116 216.265 442.738 272.842C480.36 329.42 586.52 343.642 572.348 399.438C552.341 478.209 452.959 521.189 347.704 533.067C263.501 542.57 249.119 527.962 252.454 519.47" stroke="url(#paint14_radial_548_22711)"/>
<path d="M272.895 206.887C332.699 208.45 384.674 216.265 422.295 272.842C459.917 329.42 566.078 343.642 551.906 399.438C531.899 478.209 432.516 521.189 327.262 533.067C243.059 542.57 228.677 527.962 232.011 519.47" stroke="url(#paint15_radial_548_22711)"/>
<path d="M252.453 206.887C312.256 208.45 364.231 216.265 401.853 272.842C439.475 329.42 545.635 343.642 531.464 399.438C511.457 478.209 412.074 521.189 306.82 533.067C222.616 542.57 208.234 527.962 211.569 519.47" stroke="url(#paint16_radial_548_22711)"/>
<path d="M1293.07 322.104C1227.47 337.981 1173.44 358.866 1157.93 429.873C1142.41 500.879 1031.26 541.629 1072.83 599.513C1131.51 681.231 1261.64 704.87 1383.88 692.983C1481.67 683.473 1490.85 664.034 1483.22 655.503" stroke="url(#paint17_radial_548_22711)" stroke-width="1.08296"/>
<path d="M1315.74 317.264C1250.14 333.141 1196.12 354.026 1180.6 425.033C1165.09 496.039 1053.94 536.789 1095.5 594.673C1154.18 676.391 1284.32 700.031 1406.55 688.143C1504.34 678.633 1513.52 659.194 1505.89 650.663" stroke="url(#paint18_radial_548_22711)" stroke-width="1.08296"/>
<path d="M1338.41 312.423C1272.81 328.3 1218.79 349.184 1203.27 420.191C1187.76 491.198 1076.61 531.947 1118.17 589.831C1176.85 671.549 1306.99 695.189 1429.22 683.301C1527.01 673.791 1536.2 654.352 1528.56 645.821" stroke="url(#paint19_radial_548_22711)" stroke-width="1.08296"/>
<path d="M1361.08 307.582C1295.48 323.459 1241.46 344.344 1225.94 415.35C1210.43 486.357 1099.28 527.106 1140.85 584.99C1199.53 666.709 1329.66 690.348 1451.9 678.46C1549.68 668.95 1558.87 649.511 1551.24 640.981" stroke="url(#paint20_radial_548_22711)" stroke-width="1.08296"/>
<g opacity="0.1" filter="url(#filter5_f_548_22711)">
<path d="M1192.94 320.857C1195.81 255.758 1048.29 320.198 1075.27 227.117L1214.72 172.953L1293.7 223.548L1600.93 420.371L1898.27 610.855C1906.56 618.404 1925.94 655.85 1849.85 641.851C1754.75 624.353 1720.23 678.806 1671.28 647.445C1620.08 614.642 1572.36 526.537 1501 538.359C1443.92 547.816 1406.5 466.625 1359.66 463.705C1308.23 438.368 1275 528.7 1222.58 479.541C1157.07 418.093 1190.07 385.956 1192.94 320.857Z" fill="url(#paint21_linear_548_22711)"/>
</g>
<defs>
<filter id="filter0_f_548_22711" x="-88.6111" y="1573.3" width="773.872" height="1101" filterUnits="userSpaceOnUse" color-interpolation-filters="sRGB">
<feFlood flood-opacity="0" result="BackgroundImageFix"/>
<feBlend mode="normal" in="SourceGraphic" in2="BackgroundImageFix" result="shape"/>
<feGaussianBlur stdDeviation="78.5" result="effect1_foregroundBlur_548_22711"/>
</filter>
<filter id="filter1_f_548_22711" x="41.8179" y="807.995" width="918.016" height="892.16" filterUnits="userSpaceOnUse" color-interpolation-filters="sRGB">
<feFlood flood-opacity="0" result="BackgroundImageFix"/>
<feBlend mode="normal" in="SourceGraphic" in2="BackgroundImageFix" result="shape"/>
<feGaussianBlur stdDeviation="78.5" result="effect1_foregroundBlur_548_22711"/>
</filter>
<filter id="filter2_f_548_22711" x="649.823" y="709.62" width="991.165" height="1032.61" filterUnits="userSpaceOnUse" color-interpolation-filters="sRGB">
<feFlood flood-opacity="0" result="BackgroundImageFix"/>
<feBlend mode="normal" in="SourceGraphic" in2="BackgroundImageFix" result="shape"/>
<feGaussianBlur stdDeviation="150" result="effect1_foregroundBlur_548_22711"/>
</filter>
<filter id="filter3_f_548_22711" x="905.183" y="1489.74" width="495.309" height="416.455" filterUnits="userSpaceOnUse" color-interpolation-filters="sRGB">
<feFlood flood-opacity="0" result="BackgroundImageFix"/>
<feBlend mode="normal" in="SourceGraphic" in2="BackgroundImageFix" result="shape"/>
<feGaussianBlur stdDeviation="78.5" result="effect1_foregroundBlur_548_22711"/>
</filter>
<filter id="filter4_f_548_22711" x="184.349" y="456.978" width="507.462" height="423.292" filterUnits="userSpaceOnUse" color-interpolation-filters="sRGB">
<feFlood flood-opacity="0" result="BackgroundImageFix"/>
<feBlend mode="normal" in="SourceGraphic" in2="BackgroundImageFix" result="shape"/>
<feGaussianBlur stdDeviation="78.5" result="effect1_foregroundBlur_548_22711"/>
</filter>
<filter id="filter5_f_548_22711" x="865.976" y="-33.0474" width="1246.74" height="896.433" filterUnits="userSpaceOnUse" color-interpolation-filters="sRGB">
<feFlood flood-opacity="0" result="BackgroundImageFix"/>
<feBlend mode="normal" in="SourceGraphic" in2="BackgroundImageFix" result="shape"/>
<feGaussianBlur stdDeviation="103" result="effect1_foregroundBlur_548_22711"/>
</filter>
<linearGradient id="paint0_linear_548_22711" x1="343.61" y1="1900.11" x2="444.14" y2="2210.37" gradientUnits="userSpaceOnUse">
<stop offset="0.0364583" stop-color="#5D35FF"/>
<stop offset="0.0625" stop-color="#1888EF"/>
<stop offset="0.473958" stop-color="#1888EF"/>
<stop offset="1" stop-color="#3AF4BC" stop-opacity="0.58"/>
</linearGradient>
<radialGradient id="paint1_radial_548_22711" cx="0" cy="0" r="1" gradientUnits="userSpaceOnUse" gradientTransform="translate(1266.66 1117.54) rotate(56.8849) scale(206.094 172.254)">
<stop stop-color="#48BC65"/>
<stop offset="1" stop-color="#48BC65" stop-opacity="0"/>
</radialGradient>
<radialGradient id="paint2_radial_548_22711" cx="0" cy="0" r="1" gradientUnits="userSpaceOnUse" gradientTransform="translate(1288.09 1110.32) rotate(56.8849) scale(206.094 172.254)">
<stop stop-color="#48BC65"/>
<stop offset="1" stop-color="#48BC65" stop-opacity="0"/>
</radialGradient>
<radialGradient id="paint3_radial_548_22711" cx="0" cy="0" r="1" gradientUnits="userSpaceOnUse" gradientTransform="translate(1309.52 1103.1) rotate(56.8849) scale(206.094 172.254)">
<stop stop-color="#48BC65"/>
<stop offset="1" stop-color="#48BC65" stop-opacity="0"/>
</radialGradient>
<radialGradient id="paint4_radial_548_22711" cx="0" cy="0" r="1" gradientUnits="userSpaceOnUse" gradientTransform="translate(1330.96 1095.88) rotate(56.8849) scale(206.094 172.254)">
<stop stop-color="#48BC65"/>
<stop offset="1" stop-color="#48BC65" stop-opacity="0"/>
</radialGradient>
<linearGradient id="paint5_linear_548_22711" x1="171.601" y1="1328.27" x2="246.93" y2="1097.39" gradientUnits="userSpaceOnUse">
<stop stop-color="#5D35FF"/>
<stop offset="0.473958" stop-color="#1888EF"/>
<stop offset="1" stop-color="#3AF4BC" stop-opacity="0.58"/>
</linearGradient>
<linearGradient id="paint6_linear_548_22711" x1="1288.24" y1="1482.58" x2="1004.92" y2="1328.23" gradientUnits="userSpaceOnUse">
<stop stop-color="#5D35FF"/>
<stop offset="1" stop-color="#3AF4BC" stop-opacity="0.58"/>
</linearGradient>
<linearGradient id="paint7_linear_548_22711" x1="1096.63" y1="1684.21" x2="1252.72" y2="1719.38" gradientUnits="userSpaceOnUse">
<stop stop-color="#6946F5"/>
<stop offset="0.466146" stop-color="#1861EF"/>
<stop offset="1" stop-color="#29E9AF"/>
</linearGradient>
<linearGradient id="paint8_linear_548_22711" x1="498.058" y1="653.943" x2="331.509" y2="691.483" gradientUnits="userSpaceOnUse">
<stop stop-color="#6946F5"/>
<stop offset="0.466146" stop-color="#1861EF"/>
<stop offset="1" stop-color="#29E9AF"/>
</linearGradient>
<radialGradient id="paint9_radial_548_22711" cx="0" cy="0" r="1" gradientUnits="userSpaceOnUse" gradientTransform="translate(1269.38 1954.87) rotate(71.6887) scale(195.364 181.715)">
<stop stop-color="#48BC65"/>
<stop offset="1" stop-color="#48BC65" stop-opacity="0"/>
</radialGradient>
<radialGradient id="paint10_radial_548_22711" cx="0" cy="0" r="1" gradientUnits="userSpaceOnUse" gradientTransform="translate(1292.41 1950.93) rotate(71.6887) scale(195.364 181.715)">
<stop stop-color="#48BC65"/>
<stop offset="1" stop-color="#48BC65" stop-opacity="0"/>
</radialGradient>
<radialGradient id="paint11_radial_548_22711" cx="0" cy="0" r="1" gradientUnits="userSpaceOnUse" gradientTransform="translate(1315.44 1947) rotate(71.6887) scale(195.364 181.715)">
<stop stop-color="#48BC65"/>
<stop offset="1" stop-color="#48BC65" stop-opacity="0"/>
</radialGradient>
<radialGradient id="paint12_radial_548_22711" cx="0" cy="0" r="1" gradientUnits="userSpaceOnUse" gradientTransform="translate(1338.47 1943.06) rotate(71.6887) scale(195.364 181.715)">
<stop stop-color="#48BC65"/>
<stop offset="1" stop-color="#48BC65" stop-opacity="0"/>
</radialGradient>
<radialGradient id="paint13_radial_548_22711" cx="0" cy="0" r="1" gradientUnits="userSpaceOnUse" gradientTransform="translate(433.273 371.526) rotate(90) scale(164.639 160.811)">
<stop stop-color="#48BC65"/>
<stop offset="1" stop-color="#48BC65" stop-opacity="0"/>
</radialGradient>
<radialGradient id="paint14_radial_548_22711" cx="0" cy="0" r="1" gradientUnits="userSpaceOnUse" gradientTransform="translate(412.831 371.526) rotate(90) scale(164.639 160.811)">
<stop stop-color="#48BC65"/>
<stop offset="1" stop-color="#48BC65" stop-opacity="0"/>
</radialGradient>
<radialGradient id="paint15_radial_548_22711" cx="0" cy="0" r="1" gradientUnits="userSpaceOnUse" gradientTransform="translate(392.388 371.526) rotate(90) scale(164.639 160.811)">
<stop stop-color="#48BC65"/>
<stop offset="1" stop-color="#48BC65" stop-opacity="0"/>
</radialGradient>
<radialGradient id="paint16_radial_548_22711" cx="0" cy="0" r="1" gradientUnits="userSpaceOnUse" gradientTransform="translate(371.946 371.526) rotate(90) scale(164.639 160.811)">
<stop stop-color="#48BC65"/>
<stop offset="1" stop-color="#48BC65" stop-opacity="0"/>
</radialGradient>
<radialGradient id="paint17_radial_548_22711" cx="0" cy="0" r="1" gradientUnits="userSpaceOnUse" gradientTransform="translate(1236.81 531.103) rotate(67.1161) scale(196.14 179.121)">
<stop stop-color="#48BC65"/>
<stop offset="1" stop-color="#48BC65" stop-opacity="0"/>
</radialGradient>
<radialGradient id="paint18_radial_548_22711" cx="0" cy="0" r="1" gradientUnits="userSpaceOnUse" gradientTransform="translate(1259.49 526.263) rotate(67.1161) scale(196.14 179.121)">
<stop stop-color="#48BC65"/>
<stop offset="1" stop-color="#48BC65" stop-opacity="0"/>
</radialGradient>
<radialGradient id="paint19_radial_548_22711" cx="0" cy="0" r="1" gradientUnits="userSpaceOnUse" gradientTransform="translate(1282.16 521.421) rotate(67.1161) scale(196.14 179.121)">
<stop stop-color="#48BC65"/>
<stop offset="1" stop-color="#48BC65" stop-opacity="0"/>
</radialGradient>
<radialGradient id="paint20_radial_548_22711" cx="0" cy="0" r="1" gradientUnits="userSpaceOnUse" gradientTransform="translate(1304.83 516.58) rotate(67.1161) scale(196.14 179.121)">
<stop stop-color="#48BC65"/>
<stop offset="1" stop-color="#48BC65" stop-opacity="0"/>
</radialGradient>
<linearGradient id="paint21_linear_548_22711" x1="1239.5" y1="299.643" x2="1289.98" y2="583.566" gradientUnits="userSpaceOnUse">
<stop offset="0.0364583" stop-color="#5D35FF"/>
<stop offset="0.0625" stop-color="#1888EF"/>
<stop offset="0.473958" stop-color="#1888EF"/>
<stop offset="1" stop-color="#3AF4BC" stop-opacity="0.58"/>
</linearGradient>
</defs>
</svg>
