<svg width="27" height="28" viewBox="0 0 27 28" fill="none" xmlns="http://www.w3.org/2000/svg">
<g opacity="0.4">
<path d="M26.2059 7.29786L13.6101 14.585L1.01428 7.29786C1.53118 6.29062 2.31739 5.44654 3.28543 4.85951L10.7259 0.735223C11.6237 0.295183 12.6102 0.0664062 13.6101 0.0664062C14.6099 0.0664063 15.5965 0.295183 16.4943 0.735223L23.9347 4.85951C24.9027 5.44659 25.6889 6.29066 26.2059 7.29786Z" fill="url(#paint0_linear_105_15580)"/>
<path d="M26.2059 7.29786L13.6101 14.585L1.01428 7.29786C1.53118 6.29062 2.31739 5.44654 3.28543 4.85951L10.7259 0.735223C11.6237 0.295183 12.6102 0.0664062 13.6101 0.0664062C14.6099 0.0664063 15.5965 0.295183 16.4943 0.735223L23.9347 4.85951C24.9027 5.44659 25.6889 6.29066 26.2059 7.29786Z" fill="url(#paint1_linear_105_15580)"/>
</g>
<g opacity="0.6">
<path d="M13.61 14.586V27.9342C12.6079 27.9542 11.6167 27.7243 10.7258 27.2654L3.28532 23.1411C2.39659 22.5824 1.65455 21.8191 1.12125 20.9149C0.587956 20.0108 0.278914 18.992 0.219971 17.9439V10.0576C0.255242 9.08695 0.527934 8.1397 1.01417 7.29883L13.61 14.586Z" fill="url(#paint2_linear_105_15580)"/>
<path d="M13.61 14.586V27.9342C12.6079 27.9542 11.6167 27.7243 10.7258 27.2654L3.28532 23.1411C2.39659 22.5824 1.65455 21.8191 1.12125 20.9149C0.587956 20.0108 0.278914 18.992 0.219971 17.9439V10.0576C0.255242 9.08695 0.527934 8.1397 1.01417 7.29883L13.61 14.586Z" fill="url(#paint3_linear_105_15580)"/>
</g>
<path d="M27.0001 10.0576V17.9439C26.9412 18.992 26.6321 20.0107 26.0988 20.9149C25.5655 21.8191 24.8235 22.5824 23.9348 23.1411L16.4943 27.2654C15.6034 27.7243 14.6121 27.9542 13.6101 27.9342V14.586L26.2059 7.29883C26.6921 8.13971 26.9648 9.08695 27.0001 10.0576Z" fill="url(#paint4_linear_105_15580)"/>
<path d="M27.0001 10.0576V17.9439C26.9412 18.992 26.6321 20.0107 26.0988 20.9149C25.5655 21.8191 24.8235 22.5824 23.9348 23.1411L16.4943 27.2654C15.6034 27.7243 14.6121 27.9542 13.6101 27.9342V14.586L26.2059 7.29883C26.6921 8.13971 26.9648 9.08695 27.0001 10.0576Z" fill="url(#paint5_linear_105_15580)"/>
<defs>
<linearGradient id="paint0_linear_105_15580" x1="1.01428" y1="7.32572" x2="26.2059" y2="7.32572" gradientUnits="userSpaceOnUse">
<stop stop-color="#46FFFE"/>
<stop offset="1" stop-color="#831FFF"/>
</linearGradient>
<linearGradient id="paint1_linear_105_15580" x1="13.6101" y1="0.0664062" x2="13.6101" y2="14.585" gradientUnits="userSpaceOnUse">
<stop stop-color="#2BD7EF"/>
<stop offset="1" stop-color="#FB4EF1"/>
</linearGradient>
<linearGradient id="paint2_linear_105_15580" x1="0.219971" y1="17.6165" x2="13.61" y2="17.6165" gradientUnits="userSpaceOnUse">
<stop stop-color="#46FFFE"/>
<stop offset="1" stop-color="#831FFF"/>
</linearGradient>
<linearGradient id="paint3_linear_105_15580" x1="3.5" y1="10" x2="7" y2="24" gradientUnits="userSpaceOnUse">
<stop stop-color="#2BD7EF"/>
<stop offset="1" stop-color="#FB4EF1"/>
</linearGradient>
<linearGradient id="paint4_linear_105_15580" x1="13.6101" y1="17.6165" x2="27.0001" y2="17.6165" gradientUnits="userSpaceOnUse">
<stop stop-color="#46FFFE"/>
<stop offset="1" stop-color="#831FFF"/>
</linearGradient>
<linearGradient id="paint5_linear_105_15580" x1="20.3051" y1="7.29883" x2="20.3051" y2="27.9354" gradientUnits="userSpaceOnUse">
<stop stop-color="#2BD7EF"/>
<stop offset="1" stop-color="#FB4EF1"/>
</linearGradient>
</defs>
</svg>
