<svg width="20" height="20" viewBox="0 0 20 20" fill="none" xmlns="http://www.w3.org/2000/svg">
<mask id="mask0_101_15262" style="mask-type:luminance" maskUnits="userSpaceOnUse" x="1" y="1" width="18" height="17">
<path fill-rule="evenodd" clip-rule="evenodd" d="M1.66663 1.66699H17.6858V17.3325H1.66663V1.66699Z" fill="white" stroke="white"/>
</mask>
<g mask="url(#mask0_101_15262)">
<path fill-rule="evenodd" clip-rule="evenodd" d="M9.67662 2.87346C5.94011 2.87346 2.90023 5.84538 2.90023 9.49936C2.90023 13.1533 5.94011 16.1261 9.67662 16.1261C13.4123 16.1261 16.4522 13.1533 16.4522 9.49936C16.4522 5.84538 13.4123 2.87346 9.67662 2.87346ZM9.6766 17.3325C5.2599 17.3325 1.6665 13.8185 1.6665 9.49936C1.6665 5.18022 5.2599 1.66699 9.6766 1.66699C14.0933 1.66699 17.6859 5.18022 17.6859 9.49936C17.6859 13.8185 14.0933 17.3325 9.6766 17.3325Z" fill="#565660"/>
<path d="M9.67662 2.37346C5.67463 2.37346 2.40023 5.55869 2.40023 9.49936H3.40023C3.40023 6.13207 6.20558 3.37346 9.67662 3.37346V2.37346ZM2.40023 9.49936C2.40023 13.44 5.67455 16.6261 9.67662 16.6261V15.6261C6.20566 15.6261 3.40023 12.8667 3.40023 9.49936H2.40023ZM9.67662 16.6261C13.6779 16.6261 16.9522 13.4399 16.9522 9.49936H15.9522C15.9522 12.8668 13.1467 15.6261 9.67662 15.6261V16.6261ZM16.9522 9.49936C16.9522 5.55873 13.6778 2.37346 9.67662 2.37346V3.37346C13.1468 3.37346 15.9522 6.13203 15.9522 9.49936H16.9522ZM9.6766 16.8325C5.52546 16.8325 2.1665 13.5319 2.1665 9.49936H1.1665C1.1665 14.1051 4.99435 17.8325 9.6766 17.8325V16.8325ZM2.1665 9.49936C2.1665 5.46689 5.52539 2.16699 9.6766 2.16699V1.16699C4.99442 1.16699 1.1665 4.89354 1.1665 9.49936H2.1665ZM9.6766 2.16699C13.8277 2.16699 17.1859 5.46683 17.1859 9.49936H18.1859C18.1859 4.89361 14.3589 1.16699 9.6766 1.16699V2.16699ZM17.1859 9.49936C17.1859 13.532 13.8277 16.8325 9.6766 16.8325V17.8325C14.3589 17.8325 18.1859 14.105 18.1859 9.49936H17.1859Z" fill="#565660"/>
</g>
<mask id="mask1_101_15262" style="mask-type:luminance" maskUnits="userSpaceOnUse" x="13" y="13" width="6" height="6">
<path fill-rule="evenodd" clip-rule="evenodd" d="M14.2012 14.2998H18.3333V18.3332H14.2012V14.2998Z" fill="white" stroke="white"/>
</mask>
<g mask="url(#mask1_101_15262)">
<path fill-rule="evenodd" clip-rule="evenodd" d="M17.7166 18.3332C17.5596 18.3332 17.4016 18.2745 17.2807 18.1571L14.3823 15.3307C14.1413 15.0951 14.1405 14.713 14.3815 14.4774C14.6217 14.2401 15.0123 14.2417 15.2541 14.4757L18.1526 17.3029C18.3935 17.5386 18.3944 17.9198 18.1534 18.1555C18.0333 18.2745 17.8746 18.3332 17.7166 18.3332Z" fill="#565660"/>
<path d="M17.7166 18.3332C17.5595 18.3332 17.4016 18.2745 17.2807 18.1571L14.3823 15.3307C14.1413 15.0951 14.1405 14.713 14.3815 14.4774C14.6217 14.2401 15.0123 14.2417 15.2541 14.4757L18.1526 17.3029C18.3935 17.5386 18.3944 17.9198 18.1534 18.1555C18.0333 18.2745 17.8746 18.3332 17.7166 18.3332" stroke="#565660"/>
</g>
</svg>
