<svg width="137" height="40" viewBox="0 0 137 40" fill="none" xmlns="http://www.w3.org/2000/svg">
<rect width="40" height="40" rx="20" fill="white"/>
<path d="M14.4185 10.2817L9.85791 18.1806H19.0222L23.5826 10.2817H14.4185Z" fill="white"/>
<path d="M12.8197 7.51196L6.66064 18.1797H9.85798L14.4183 10.2808H23.5826L25.1811 7.51196H12.8197Z" fill="#073FB8"/>
<path d="M11.7792 5.64282L4.54053 18.1806H6.66071L12.8197 7.51289H25.1812L26.2608 5.64282H11.7792Z" fill="#5302C2"/>
<path d="M10.4957 3.42212L0.903564 20.0365C7.30173 20.0381 13.7139 20.0339 20.1121 20.0318C23.312 14.5018 26.4758 8.95921 29.689 3.437L10.4957 3.42212ZM11.7786 5.644H26.2602L19.0224 18.1805H4.54055L11.7786 5.644Z" fill="url(#paint0_linear_10659_21191)"/>
<path d="M4.53857 21.8889L11.7789 34.4294H26.2595L25.2059 32.6044H12.82L6.63354 21.8889H4.53857Z" fill="url(#paint1_linear_10659_21191)"/>
<path d="M6.6333 21.8889L12.8198 32.6044H25.2056L23.607 29.8355H14.4185L9.83063 21.8889H6.6333Z" fill="url(#paint2_linear_10659_21191)"/>
<path d="M9.83057 21.8889L14.4186 29.8355H23.6069L19.0188 21.8889H9.83057Z" fill="white"/>
<path d="M0.907959 20.0293L10.4958 36.6511H29.6804L20.0952 20.0293H0.907959ZM4.53833 21.8888H19.0189L26.2592 34.4292H11.7786L4.53833 21.8888Z" fill="url(#paint3_linear_10659_21191)"/>
<path d="M29.4596 7.48242L28.3745 9.36208L34.5494 20.0573L28.3906 30.7247L29.4634 32.5835L36.7074 20.0361L29.4596 7.48242Z" fill="url(#paint4_linear_10659_21191)"/>
<path d="M26.7762 12.1311L22.2158 20.03L26.7921 27.9565L31.3524 20.0576L26.7762 12.1311Z" fill="white"/>
<path d="M28.3748 9.36328L26.7764 12.1321L31.3526 20.0585L26.7923 27.9571L28.3909 30.7259L34.5498 20.0585L28.3748 9.36328Z" fill="url(#paint5_linear_10659_21191)"/>
<path d="M29.6863 3.43164C26.482 8.965 23.293 14.5072 20.0986 20.0462C23.2951 25.5777 26.4828 31.1143 29.6846 36.6426L39.2727 20.0357L29.6863 3.43164ZM29.4597 7.48287L36.707 20.0357L29.463 32.5827L22.2157 20.0299L29.4597 7.48287Z" fill="url(#paint6_linear_10659_21191)"/>
<g clip-path="url(#clip0_10659_21191)">
<path d="M53.696 25V15.448H50.432V13.8H59.024V15.448H55.744V25H53.696ZM62.9116 25.192C62.1116 25.192 61.4023 25.0213 60.7836 24.68C60.165 24.3387 59.6796 23.8587 59.3276 23.24C58.9756 22.6213 58.7996 21.9067 58.7996 21.096C58.7996 20.2747 58.9703 19.544 59.3116 18.904C59.6636 18.264 60.1436 17.768 60.7516 17.416C61.3703 17.0533 62.0956 16.872 62.9276 16.872C63.7063 16.872 64.3943 17.0427 64.9916 17.384C65.589 17.7253 66.053 18.1947 66.3836 18.792C66.725 19.3787 66.8956 20.0347 66.8956 20.76C66.8956 20.8773 66.8903 21 66.8796 21.128C66.8796 21.256 66.8743 21.3893 66.8636 21.528H60.8316C60.8743 22.1467 61.0876 22.632 61.4716 22.984C61.8663 23.336 62.341 23.512 62.8956 23.512C63.3116 23.512 63.6583 23.4213 63.9356 23.24C64.2236 23.048 64.437 22.8027 64.5756 22.504H66.6556C66.5063 23.0053 66.2556 23.464 65.9036 23.88C65.5623 24.2853 65.1356 24.6053 64.6236 24.84C64.1223 25.0747 63.5516 25.192 62.9116 25.192ZM62.9276 18.536C62.4263 18.536 61.9836 18.68 61.5996 18.968C61.2156 19.2453 60.9703 19.672 60.8636 20.248H64.8156C64.7836 19.7253 64.5916 19.3093 64.2396 19C63.8876 18.6907 63.4503 18.536 62.9276 18.536ZM71.8981 25.192C71.1941 25.192 70.5755 25.08 70.0421 24.856C69.5088 24.6213 69.0821 24.3013 68.7621 23.896C68.4421 23.4907 68.2501 23.0213 68.1861 22.488H70.2501C70.3141 22.7973 70.4848 23.064 70.7621 23.288C71.0501 23.5013 71.4181 23.608 71.8661 23.608C72.3141 23.608 72.6395 23.5173 72.8421 23.336C73.0555 23.1547 73.1621 22.9467 73.1621 22.712C73.1621 22.3707 73.0128 22.1413 72.7141 22.024C72.4155 21.896 71.9995 21.7733 71.4661 21.656C71.1248 21.5813 70.7781 21.4907 70.4261 21.384C70.0741 21.2773 69.7488 21.144 69.4501 20.984C69.1621 20.8133 68.9275 20.6 68.7461 20.344C68.5648 20.0773 68.4741 19.752 68.4741 19.368C68.4741 18.664 68.7515 18.072 69.3061 17.592C69.8715 17.112 70.6608 16.872 71.6741 16.872C72.6128 16.872 73.3595 17.0907 73.9141 17.528C74.4795 17.9653 74.8155 18.568 74.9221 19.336H72.9861C72.8688 18.7493 72.4261 18.456 71.6581 18.456C71.2741 18.456 70.9755 18.5307 70.7621 18.68C70.5595 18.8293 70.4581 19.016 70.4581 19.24C70.4581 19.4747 70.6128 19.6613 70.9221 19.8C71.2315 19.9387 71.6421 20.0667 72.1541 20.184C72.7088 20.312 73.2155 20.456 73.6741 20.616C74.1435 20.7653 74.5168 20.9947 74.7941 21.304C75.0715 21.6027 75.2101 22.0347 75.2101 22.6C75.2208 23.0907 75.0928 23.5333 74.8261 23.928C74.5595 24.3227 74.1755 24.632 73.6741 24.856C73.1728 25.08 72.5808 25.192 71.8981 25.192ZM80.3044 25.192C79.6004 25.192 78.9817 25.08 78.4484 24.856C77.915 24.6213 77.4884 24.3013 77.1684 23.896C76.8484 23.4907 76.6564 23.0213 76.5924 22.488H78.6564C78.7204 22.7973 78.891 23.064 79.1684 23.288C79.4564 23.5013 79.8244 23.608 80.2724 23.608C80.7204 23.608 81.0457 23.5173 81.2484 23.336C81.4617 23.1547 81.5684 22.9467 81.5684 22.712C81.5684 22.3707 81.419 22.1413 81.1204 22.024C80.8217 21.896 80.4057 21.7733 79.8724 21.656C79.531 21.5813 79.1844 21.4907 78.8324 21.384C78.4804 21.2773 78.155 21.144 77.8564 20.984C77.5684 20.8133 77.3337 20.6 77.1524 20.344C76.971 20.0773 76.8804 19.752 76.8804 19.368C76.8804 18.664 77.1577 18.072 77.7124 17.592C78.2777 17.112 79.067 16.872 80.0804 16.872C81.019 16.872 81.7657 17.0907 82.3204 17.528C82.8857 17.9653 83.2217 18.568 83.3284 19.336H81.3924C81.275 18.7493 80.8324 18.456 80.0644 18.456C79.6804 18.456 79.3817 18.5307 79.1684 18.68C78.9657 18.8293 78.8644 19.016 78.8644 19.24C78.8644 19.4747 79.019 19.6613 79.3284 19.8C79.6377 19.9387 80.0484 20.0667 80.5604 20.184C81.115 20.312 81.6217 20.456 82.0804 20.616C82.5497 20.7653 82.923 20.9947 83.2004 21.304C83.4777 21.6027 83.6164 22.0347 83.6164 22.6C83.627 23.0907 83.499 23.5333 83.2324 23.928C82.9657 24.3227 82.5817 24.632 82.0804 24.856C81.579 25.08 80.987 25.192 80.3044 25.192ZM89.2866 25.192C88.4866 25.192 87.7773 25.0213 87.1586 24.68C86.54 24.3387 86.0546 23.8587 85.7026 23.24C85.3506 22.6213 85.1746 21.9067 85.1746 21.096C85.1746 20.2747 85.3453 19.544 85.6866 18.904C86.0386 18.264 86.5186 17.768 87.1266 17.416C87.7453 17.0533 88.4706 16.872 89.3026 16.872C90.0813 16.872 90.7693 17.0427 91.3666 17.384C91.964 17.7253 92.428 18.1947 92.7586 18.792C93.1 19.3787 93.2706 20.0347 93.2706 20.76C93.2706 20.8773 93.2653 21 93.2546 21.128C93.2546 21.256 93.2493 21.3893 93.2386 21.528H87.2066C87.2493 22.1467 87.4626 22.632 87.8466 22.984C88.2413 23.336 88.716 23.512 89.2706 23.512C89.6866 23.512 90.0333 23.4213 90.3106 23.24C90.5986 23.048 90.812 22.8027 90.9506 22.504H93.0306C92.8813 23.0053 92.6306 23.464 92.2786 23.88C91.9373 24.2853 91.5106 24.6053 90.9986 24.84C90.4973 25.0747 89.9266 25.192 89.2866 25.192ZM89.3026 18.536C88.8013 18.536 88.3586 18.68 87.9746 18.968C87.5906 19.2453 87.3453 19.672 87.2386 20.248H91.1906C91.1586 19.7253 90.9666 19.3093 90.6146 19C90.2626 18.6907 89.8253 18.536 89.3026 18.536ZM94.9931 25V17.064H96.8171L97.0091 18.552C97.2971 18.04 97.6865 17.6347 98.1771 17.336C98.6785 17.0267 99.2651 16.872 99.9371 16.872V19.032H99.3611C98.9131 19.032 98.5131 19.1013 98.1611 19.24C97.8091 19.3787 97.5318 19.6187 97.3291 19.96C97.1371 20.3013 97.0411 20.776 97.0411 21.384V25H94.9931ZM104.073 25.192C103.39 25.192 102.83 25.0853 102.393 24.872C101.956 24.648 101.63 24.3547 101.417 23.992C101.204 23.6293 101.097 23.2293 101.097 22.792C101.097 22.056 101.385 21.4587 101.961 21C102.537 20.5413 103.401 20.312 104.553 20.312H106.569V20.12C106.569 19.576 106.414 19.176 106.105 18.92C105.796 18.664 105.412 18.536 104.953 18.536C104.537 18.536 104.174 18.6373 103.865 18.84C103.556 19.032 103.364 19.32 103.289 19.704H101.289C101.342 19.128 101.534 18.6267 101.865 18.2C102.206 17.7733 102.644 17.448 103.177 17.224C103.71 16.9893 104.308 16.872 104.969 16.872C106.1 16.872 106.99 17.1547 107.641 17.72C108.292 18.2853 108.617 19.0853 108.617 20.12V25H106.873L106.681 23.72C106.446 24.1467 106.116 24.4987 105.689 24.776C105.273 25.0533 104.734 25.192 104.073 25.192ZM104.537 23.592C105.124 23.592 105.577 23.4 105.897 23.016C106.228 22.632 106.436 22.1573 106.521 21.592H104.777C104.233 21.592 103.844 21.6933 103.609 21.896C103.374 22.088 103.257 22.328 103.257 22.616C103.257 22.9253 103.374 23.1653 103.609 23.336C103.844 23.5067 104.153 23.592 104.537 23.592ZM114.459 25.192C113.649 25.192 112.934 25.016 112.315 24.664C111.697 24.312 111.206 23.8213 110.843 23.192C110.491 22.5627 110.315 21.8427 110.315 21.032C110.315 20.2213 110.491 19.5013 110.843 18.872C111.206 18.2427 111.697 17.752 112.315 17.4C112.934 17.048 113.649 16.872 114.459 16.872C115.473 16.872 116.326 17.1387 117.019 17.672C117.713 18.1947 118.155 18.92 118.347 19.848H116.187C116.081 19.464 115.867 19.1653 115.547 18.952C115.238 18.728 114.87 18.616 114.443 18.616C113.878 18.616 113.398 18.8293 113.003 19.256C112.609 19.6827 112.411 20.2747 112.411 21.032C112.411 21.7893 112.609 22.3813 113.003 22.808C113.398 23.2347 113.878 23.448 114.443 23.448C114.87 23.448 115.238 23.3413 115.547 23.128C115.867 22.9147 116.081 22.6107 116.187 22.216H118.347C118.155 23.112 117.713 23.832 117.019 24.376C116.326 24.92 115.473 25.192 114.459 25.192ZM123.592 25C122.76 25 122.093 24.7973 121.592 24.392C121.09 23.9867 120.84 23.2667 120.84 22.232V18.776H119.48V17.064H120.84L121.08 14.936H122.888V17.064H125.032V18.776H122.888V22.248C122.888 22.632 122.968 22.8987 123.128 23.048C123.298 23.1867 123.586 23.256 123.992 23.256H124.984V25H123.592ZM126.294 25L129.798 19.336L126.246 13.8H128.598L131.11 17.704L133.414 13.8H135.718L132.214 19.432L135.798 25H133.446L130.902 21.048L128.598 25H126.294Z" fill="black"/>
</g>
<defs>
<linearGradient id="paint0_linear_10659_21191" x1="13.1711" y1="8.0075" x2="18.4096" y2="17.3619" gradientUnits="userSpaceOnUse">
<stop stop-color="#8122E2"/>
<stop offset="1" stop-color="#FF56EF"/>
</linearGradient>
<linearGradient id="paint1_linear_10659_21191" x1="13.1714" y1="22.3762" x2="18.4847" y2="34.0505" gradientUnits="userSpaceOnUse">
<stop stop-color="#5302C2"/>
<stop offset="1" stop-color="#31CEF0"/>
</linearGradient>
<linearGradient id="paint2_linear_10659_21191" x1="13.9944" y1="22.2265" x2="20.6547" y2="34.7241" gradientUnits="userSpaceOnUse">
<stop stop-color="#073FB8"/>
<stop offset="1" stop-color="#31CEF0"/>
</linearGradient>
<linearGradient id="paint3_linear_10659_21191" x1="20.1308" y1="19.1582" x2="10.9261" y2="36.071" gradientUnits="userSpaceOnUse">
<stop stop-color="#FF56EF"/>
<stop offset="1" stop-color="#31CEF0"/>
</linearGradient>
<linearGradient id="paint4_linear_10659_21191" x1="25.444" y1="15.2654" x2="32.7779" y2="26.0417" gradientUnits="userSpaceOnUse">
<stop stop-color="#5302C2"/>
<stop offset="1" stop-color="#31CEF0"/>
</linearGradient>
<linearGradient id="paint5_linear_10659_21191" x1="25.4444" y1="14.7427" x2="32.9279" y2="25.519" gradientUnits="userSpaceOnUse">
<stop stop-color="#073FB8"/>
<stop offset="1" stop-color="#31CEF0"/>
</linearGradient>
<linearGradient id="paint6_linear_10659_21191" x1="19.1579" y1="19.9804" x2="38.4654" y2="20.2049" gradientUnits="userSpaceOnUse">
<stop stop-color="#FF55F3"/>
<stop offset="1" stop-color="#31CEF0"/>
</linearGradient>
<clipPath id="clip0_10659_21191">
<rect width="87" height="20" fill="white" transform="translate(50 10)"/>
</clipPath>
</defs>
</svg>
