<svg width="175" height="36" viewBox="0 0 175 36" fill="none" xmlns="http://www.w3.org/2000/svg">
<path d="M28.2247 9.17383L32.9932 17.8453L28.0701 26.1071L23.3325 17.7525L28.2247 9.17383Z" fill="url(#paint0_linear_673_22)"/>
<path d="M9.74567 15.7972L14.3905 7.11028L24.4377 7.04073L25.9834 4.328L12.8912 4.49803L6.6156 15.6503L9.74567 15.7972Z" fill="#0640BB"/>
<path d="M26.7563 2.33402L19.3059 15.4107H4.01885L11.4924 2.33402H26.7563ZM30.7674 0H10.1399L0 17.7448H20.6507L30.7674 0Z" fill="url(#paint1_linear_673_22)"/>
<path d="M26.7562 2.33405H11.4923L4.0188 15.4108L6.73925 15.4185L12.8912 4.49804L25.6201 4.32801L26.7562 2.33405Z" fill="#5606C6"/>
<path d="M6.08232 20.0711H4.0188L11.5541 33.256H26.7639L25.5892 31.177L12.9453 31.3007L6.70834 20.0711H6.08232Z" fill="url(#paint2_linear_673_22)"/>
<path d="M27.1891 9.62977L32.004 17.8066L27.0577 26.0375L28.9976 29.1057L35.5051 17.7525L29.1367 6.21375L27.1891 9.62977Z" fill="url(#paint3_linear_673_22)"/>
<path d="M30.7905 4.65262L29.523 6.90936L35.505 17.7525L29.3298 28.5184L30.7828 30.8911L38.3104 17.7989L30.7905 4.65262Z" fill="url(#paint4_linear_673_22)"/>
<path d="M30.7752 4.69896L38.2796 17.7525H40.9691L30.7674 0L20.6508 17.7448H20.6585L23.3326 17.7525L30.7752 4.69896Z" fill="url(#paint5_linear_673_22)"/>
<path d="M20.6584 17.7448L30.7674 35.59L41 17.8066L40.9691 17.7525H38.2796L38.3105 17.8066L30.7829 30.8911L23.3325 17.7525" fill="url(#paint6_linear_673_22)"/>
<path d="M9.05017 20.0711H19.2982L24.43 29.1367L14.0274 29.1521L9.05017 20.0711Z" fill="url(#paint7_linear_673_22)"/>
<path d="M24.6 27.9851L14.7075 28.0856L10.2017 19.5301H6.40698L12.9453 31.3007L26.2075 31.177L24.6 27.9851Z" fill="url(#paint8_linear_673_22)"/>
<path d="M11.5542 33.256L4.01885 20.0711H19.2596L20.6275 17.7448H0L10.2017 35.5823L11.5542 33.256Z" fill="url(#paint9_linear_673_22)"/>
<path d="M30.7674 35.59L20.6507 17.7448H20.6275L19.2595 20.0711H19.2982L26.764 33.256H11.5542L10.2017 35.5823V35.59H30.7674Z" fill="url(#paint10_linear_673_22)"/>
<path d="M19.2982 15.4107L24.0667 7.04071L14.3905 7.11027L9.95435 15.4107H19.2982Z" fill="white"/>
<path d="M50.5323 25.7949V11.4669H45.6363V8.99492H58.5243V11.4669H53.6043V25.7949H50.5323ZM64.3557 26.0829C63.1557 26.0829 62.0917 25.8269 61.1637 25.3149C60.2357 24.8029 59.5077 24.0829 58.9797 23.1549C58.4517 22.2269 58.1877 21.1549 58.1877 19.9389C58.1877 18.7069 58.4437 17.6109 58.9557 16.6509C59.4837 15.6909 60.2037 14.9469 61.1157 14.4189C62.0437 13.8749 63.1317 13.6029 64.3797 13.6029C65.5477 13.6029 66.5797 13.8589 67.4757 14.3709C68.3717 14.8829 69.0677 15.5869 69.5637 16.4829C70.0757 17.3629 70.3317 18.3469 70.3317 19.4349C70.3317 19.6109 70.3237 19.7949 70.3077 19.9869C70.3077 20.1789 70.2997 20.3789 70.2837 20.5869H61.2357C61.2997 21.5149 61.6197 22.2429 62.1957 22.7709C62.7877 23.2989 63.4997 23.5629 64.3317 23.5629C64.9557 23.5629 65.4757 23.4269 65.8917 23.1549C66.3237 22.8669 66.6437 22.4989 66.8517 22.0509H69.9717C69.7477 22.8029 69.3717 23.4909 68.8437 24.1149C68.3317 24.7229 67.6917 25.2029 66.9237 25.5549C66.1717 25.9069 65.3157 26.0829 64.3557 26.0829ZM64.3797 16.0989C63.6277 16.0989 62.9637 16.3149 62.3877 16.7469C61.8117 17.1629 61.4437 17.8029 61.2837 18.6669H67.2117C67.1637 17.8829 66.8757 17.2589 66.3477 16.7949C65.8197 16.3309 65.1637 16.0989 64.3797 16.0989ZM77.8355 26.0829C76.7795 26.0829 75.8515 25.9149 75.0515 25.5789C74.2515 25.2269 73.6115 24.7469 73.1315 24.1389C72.6515 23.5309 72.3635 22.8269 72.2675 22.0269H75.3635C75.4595 22.4909 75.7155 22.8909 76.1315 23.2269C76.5635 23.5469 77.1155 23.7069 77.7875 23.7069C78.4595 23.7069 78.9475 23.5709 79.2515 23.2989C79.5715 23.0269 79.7315 22.7149 79.7315 22.3629C79.7315 21.8509 79.5075 21.5069 79.0595 21.3309C78.6115 21.1389 77.9875 20.9549 77.1875 20.7789C76.6755 20.6669 76.1555 20.5309 75.6275 20.3709C75.0995 20.2109 74.6115 20.0109 74.1635 19.7709C73.7315 19.5149 73.3795 19.1949 73.1075 18.8109C72.8355 18.4109 72.6995 17.9229 72.6995 17.3469C72.6995 16.2909 73.1155 15.4029 73.9475 14.6829C74.7955 13.9629 75.9795 13.6029 77.4995 13.6029C78.9075 13.6029 80.0275 13.9309 80.8595 14.5869C81.7075 15.2429 82.2115 16.1469 82.3715 17.2989H79.4675C79.2915 16.4189 78.6275 15.9789 77.4755 15.9789C76.8995 15.9789 76.4515 16.0909 76.1315 16.3149C75.8275 16.5389 75.6755 16.8189 75.6755 17.1549C75.6755 17.5069 75.9075 17.7869 76.3715 17.9949C76.8355 18.2029 77.4515 18.3949 78.2195 18.5709C79.0515 18.7629 79.8115 18.9789 80.4995 19.2189C81.2035 19.4429 81.7635 19.7869 82.1795 20.2509C82.5955 20.6989 82.8035 21.3469 82.8035 22.1949C82.8195 22.9309 82.6275 23.5949 82.2275 24.1869C81.8275 24.7789 81.2515 25.2429 80.4995 25.5789C79.7475 25.9149 78.8595 26.0829 77.8355 26.0829ZM90.4448 26.0829C89.3888 26.0829 88.4608 25.9149 87.6608 25.5789C86.8608 25.2269 86.2208 24.7469 85.7408 24.1389C85.2608 23.5309 84.9728 22.8269 84.8768 22.0269H87.9728C88.0688 22.4909 88.3248 22.8909 88.7408 23.2269C89.1728 23.5469 89.7248 23.7069 90.3968 23.7069C91.0688 23.7069 91.5568 23.5709 91.8608 23.2989C92.1808 23.0269 92.3408 22.7149 92.3408 22.3629C92.3408 21.8509 92.1168 21.5069 91.6688 21.3309C91.2208 21.1389 90.5968 20.9549 89.7968 20.7789C89.2848 20.6669 88.7648 20.5309 88.2368 20.3709C87.7088 20.2109 87.2208 20.0109 86.7728 19.7709C86.3408 19.5149 85.9888 19.1949 85.7168 18.8109C85.4448 18.4109 85.3088 17.9229 85.3088 17.3469C85.3088 16.2909 85.7248 15.4029 86.5568 14.6829C87.4048 13.9629 88.5888 13.6029 90.1088 13.6029C91.5168 13.6029 92.6368 13.9309 93.4688 14.5869C94.3168 15.2429 94.8208 16.1469 94.9808 17.2989H92.0768C91.9008 16.4189 91.2368 15.9789 90.0848 15.9789C89.5088 15.9789 89.0608 16.0909 88.7408 16.3149C88.4368 16.5389 88.2848 16.8189 88.2848 17.1549C88.2848 17.5069 88.5168 17.7869 88.9808 17.9949C89.4448 18.2029 90.0608 18.3949 90.8288 18.5709C91.6608 18.7629 92.4208 18.9789 93.1088 19.2189C93.8128 19.4429 94.3728 19.7869 94.7888 20.2509C95.2048 20.6989 95.4128 21.3469 95.4128 22.1949C95.4288 22.9309 95.2368 23.5949 94.8368 24.1869C94.4368 24.7789 93.8608 25.2429 93.1088 25.5789C92.3568 25.9149 91.4688 26.0829 90.4448 26.0829ZM103.918 26.0829C102.718 26.0829 101.654 25.8269 100.726 25.3149C99.7982 24.8029 99.0702 24.0829 98.5422 23.1549C98.0142 22.2269 97.7502 21.1549 97.7502 19.9389C97.7502 18.7069 98.0062 17.6109 98.5182 16.6509C99.0462 15.6909 99.7662 14.9469 100.678 14.4189C101.606 13.8749 102.694 13.6029 103.942 13.6029C105.11 13.6029 106.142 13.8589 107.038 14.3709C107.934 14.8829 108.63 15.5869 109.126 16.4829C109.638 17.3629 109.894 18.3469 109.894 19.4349C109.894 19.6109 109.886 19.7949 109.87 19.9869C109.87 20.1789 109.862 20.3789 109.846 20.5869H100.798C100.862 21.5149 101.182 22.2429 101.758 22.7709C102.35 23.2989 103.062 23.5629 103.894 23.5629C104.518 23.5629 105.038 23.4269 105.454 23.1549C105.886 22.8669 106.206 22.4989 106.414 22.0509H109.534C109.31 22.8029 108.934 23.4909 108.406 24.1149C107.894 24.7229 107.254 25.2029 106.486 25.5549C105.734 25.9069 104.878 26.0829 103.918 26.0829ZM103.942 16.0989C103.19 16.0989 102.526 16.3149 101.95 16.7469C101.374 17.1629 101.006 17.8029 100.846 18.6669H106.774C106.726 17.8829 106.438 17.2589 105.91 16.7949C105.382 16.3309 104.726 16.0989 103.942 16.0989ZM112.478 25.7949V13.8909H115.214L115.502 16.1229C115.934 15.3549 116.518 14.7469 117.254 14.2989C118.006 13.8349 118.886 13.6029 119.894 13.6029V16.8429H119.03C118.358 16.8429 117.758 16.9469 117.23 17.1549C116.702 17.3629 116.286 17.7229 115.982 18.2349C115.694 18.7469 115.55 19.4589 115.55 20.3709V25.7949H112.478ZM126.098 26.0829C125.074 26.0829 124.234 25.9229 123.578 25.6029C122.922 25.2669 122.434 24.8269 122.114 24.2829C121.794 23.7389 121.634 23.1389 121.634 22.4829C121.634 21.3789 122.066 20.4829 122.93 19.7949C123.794 19.1069 125.09 18.7629 126.818 18.7629H129.842V18.4749C129.842 17.6589 129.61 17.0589 129.146 16.6749C128.682 16.2909 128.106 16.0989 127.418 16.0989C126.794 16.0989 126.25 16.2509 125.786 16.5549C125.322 16.8429 125.034 17.2749 124.922 17.8509H121.922C122.002 16.9869 122.29 16.2349 122.786 15.5949C123.298 14.9549 123.954 14.4669 124.754 14.1309C125.554 13.7789 126.45 13.6029 127.442 13.6029C129.138 13.6029 130.474 14.0269 131.45 14.8749C132.426 15.7229 132.914 16.9229 132.914 18.4749V25.7949H130.298L130.01 23.8749C129.658 24.5149 129.162 25.0429 128.522 25.4589C127.898 25.8749 127.09 26.0829 126.098 26.0829ZM126.794 23.6829C127.674 23.6829 128.354 23.3949 128.834 22.8189C129.33 22.2429 129.642 21.5309 129.77 20.6829H127.154C126.338 20.6829 125.754 20.8349 125.402 21.1389C125.05 21.4269 124.874 21.7869 124.874 22.2189C124.874 22.6829 125.05 23.0429 125.402 23.2989C125.754 23.5549 126.218 23.6829 126.794 23.6829ZM141.677 26.0829C140.461 26.0829 139.389 25.8189 138.461 25.2909C137.533 24.7629 136.797 24.0269 136.253 23.0829C135.725 22.1389 135.461 21.0589 135.461 19.8429C135.461 18.6269 135.725 17.5469 136.253 16.6029C136.797 15.6589 137.533 14.9229 138.461 14.3949C139.389 13.8669 140.461 13.6029 141.677 13.6029C143.197 13.6029 144.477 14.0029 145.517 14.8029C146.557 15.5869 147.221 16.6749 147.509 18.0669H144.269C144.109 17.4909 143.789 17.0429 143.309 16.7229C142.845 16.3869 142.293 16.2189 141.653 16.2189C140.805 16.2189 140.085 16.5389 139.493 17.1789C138.901 17.8189 138.605 18.7069 138.605 19.8429C138.605 20.9789 138.901 21.8669 139.493 22.5069C140.085 23.1469 140.805 23.4669 141.653 23.4669C142.293 23.4669 142.845 23.3069 143.309 22.9869C143.789 22.6669 144.109 22.2109 144.269 21.6189H147.509C147.221 22.9629 146.557 24.0429 145.517 24.8589C144.477 25.6749 143.197 26.0829 141.677 26.0829ZM155.376 25.7949C154.128 25.7949 153.128 25.4909 152.376 24.8829C151.624 24.2749 151.248 23.1949 151.248 21.6429V16.4589H149.208V13.8909H151.248L151.608 10.6989H154.32V13.8909H157.536V16.4589H154.32V21.6669C154.32 22.2429 154.44 22.6429 154.68 22.8669C154.936 23.0749 155.368 23.1789 155.976 23.1789H157.464V25.7949H155.376ZM159.429 25.7949L164.685 17.2989L159.357 8.99492H162.885L166.653 14.8509L170.109 8.99492H173.565L168.309 17.4429L173.685 25.7949H170.157L166.341 19.8669L162.885 25.7949H159.429Z" fill="#191820"/>
<defs>
<linearGradient id="paint0_linear_673_22" x1="23.3348" y1="17.6408" x2="32.994" y2="17.6408" gradientUnits="userSpaceOnUse">
<stop stop-color="#3FCCEF"/>
<stop offset="1" stop-color="#07A4CA"/>
</linearGradient>
<linearGradient id="paint1_linear_673_22" x1="12.1858" y1="4.42176" x2="22.0844" y2="18.2067" gradientUnits="userSpaceOnUse">
<stop offset="0.1917" stop-color="#821FE2"/>
<stop offset="0.5742" stop-color="#FB4EF1"/>
</linearGradient>
<linearGradient id="paint2_linear_673_22" x1="4.77399" y1="24.2005" x2="24.5713" y2="35.4087" gradientUnits="userSpaceOnUse">
<stop stop-color="#7078F7"/>
<stop offset="0.0705" stop-color="#5D92F4"/>
<stop offset="0.1522" stop-color="#4DA8F1"/>
<stop offset="0.2487" stop-color="#41B9EF"/>
<stop offset="0.368" stop-color="#38C4ED"/>
<stop offset="0.5353" stop-color="#33CBEC"/>
<stop offset="1" stop-color="#32CDEC"/>
</linearGradient>
<linearGradient id="paint3_linear_673_22" x1="30.868" y1="10.0461" x2="31.3344" y2="23.4271" gradientUnits="userSpaceOnUse">
<stop stop-color="#063079"/>
<stop offset="1" stop-color="#07A4CA"/>
</linearGradient>
<linearGradient id="paint4_linear_673_22" x1="34.0011" y1="11.335" x2="32.9876" y2="23.3817" gradientUnits="userSpaceOnUse">
<stop stop-color="#1237A1"/>
<stop offset="1" stop-color="#2BD7EF"/>
</linearGradient>
<linearGradient id="paint5_linear_673_22" x1="20.6546" y1="8.87895" x2="40.9653" y2="8.87895" gradientUnits="userSpaceOnUse">
<stop offset="0.0123" stop-color="#945CD9"/>
<stop offset="1" stop-color="#30BDE4"/>
</linearGradient>
<linearGradient id="paint6_linear_673_22" x1="21.2769" y1="28.3271" x2="40.3265" y2="21.1916" gradientUnits="userSpaceOnUse">
<stop offset="0.2382" stop-color="#945CD9"/>
<stop offset="1" stop-color="#3898CA"/>
</linearGradient>
<linearGradient id="paint7_linear_673_22" x1="12.7665" y1="20.7514" x2="21.2438" y2="29.1518" gradientUnits="userSpaceOnUse">
<stop stop-color="#66B3F9"/>
<stop offset="1" stop-color="#79F2FA"/>
</linearGradient>
<linearGradient id="paint8_linear_673_22" x1="6.40466" y1="25.4177" x2="26.2045" y2="25.4177" gradientUnits="userSpaceOnUse">
<stop stop-color="#7078F7"/>
<stop offset="0.0519" stop-color="#5E89F4"/>
<stop offset="0.1351" stop-color="#489EF1"/>
<stop offset="0.2335" stop-color="#37AEEF"/>
<stop offset="0.3553" stop-color="#2CBAED"/>
<stop offset="0.526" stop-color="#25C0EC"/>
<stop offset="1" stop-color="#23C2EC"/>
</linearGradient>
<linearGradient id="paint9_linear_673_22" x1="1.32848" y1="32.7255" x2="12.2213" y2="15.2119" gradientUnits="userSpaceOnUse">
<stop stop-color="#18A0DD"/>
<stop offset="1" stop-color="#9540C2"/>
</linearGradient>
<linearGradient id="paint10_linear_673_22" x1="20.2188" y1="39.1709" x2="21.0239" y2="28.1634" gradientUnits="userSpaceOnUse">
<stop stop-color="#3353B7"/>
<stop offset="1" stop-color="#9540C2"/>
</linearGradient>
</defs>
</svg>
