<svg width="472" height="121" viewBox="0 0 472 121" fill="none" xmlns="http://www.w3.org/2000/svg">
    <path d="M43.6161 31.1016L29.8204 54.9956H57.5424L71.3375 31.1016H43.6161Z" fill="white" />
    <path d="M38.7793 22.7234L20.1483 54.9931H29.8202L43.6152 31.0991H71.3373L76.1726 22.7234H38.7793Z"
        fill="#073FB8" />
    <path d="M35.6319 17.0691L13.735 54.9958H20.1485L38.7796 22.7261H76.1729L79.4388 17.0691H35.6319Z" fill="#5302C2" />
    <path
        d="M31.7494 10.3516L2.73309 60.6101C22.0875 60.615 41.4844 60.6022 60.8389 60.5957C70.5185 43.8677 80.0892 27.1013 89.809 10.3966L31.7494 10.3516ZM35.63 17.0727H79.4368L57.5424 54.9957H13.735L35.63 17.0727Z"
        fill="url(#paint0_linear_6344_14560)" />
    <path d="M13.7285 66.2139L35.6304 104.149H79.4341L76.2471 98.6281H38.7799L20.0657 66.2139H13.7285Z"
        fill="url(#paint1_linear_6344_14560)" />
    <path d="M20.0656 66.2136L38.7798 98.6278H76.2469L71.411 90.2521H43.6158L29.7375 66.2136H20.0656Z"
        fill="url(#paint2_linear_6344_14560)" />
    <path d="M29.7376 66.2136L43.6164 90.2521H71.411L57.5322 66.2136H29.7376Z" fill="white" />
    <path
        d="M2.74658 60.5886L31.7498 110.87H89.7831L60.788 60.5886H2.74658ZM13.7285 66.2137H57.5322L79.434 104.148H35.6303L13.7285 66.2137Z"
        fill="url(#paint3_linear_6344_14560)" />
    <path
        d="M89.1153 22.6343L85.8329 28.3202L104.512 60.6732L85.8817 92.9423L89.1269 98.5649L111.04 60.6091L89.1153 22.6343Z"
        fill="url(#paint4_linear_6344_14560)" />
    <path d="M80.9976 36.6963L67.2025 60.5903L81.0457 84.5681L94.8407 60.6741L80.9976 36.6963Z" fill="white" />
    <path
        d="M85.8331 28.3237L80.9977 36.6994L94.841 60.6767L81.0459 84.5701L85.8819 92.9458L104.512 60.6767L85.8331 28.3237Z"
        fill="url(#paint5_linear_6344_14560)" />
    <path
        d="M89.8009 10.3806C80.1081 27.119 70.4614 43.8841 60.7983 60.6398C70.4677 77.3724 80.1104 94.1205 89.7959 110.844L118.8 60.6079L89.8009 10.3806ZM89.1156 22.6356L111.039 60.6079L89.1256 98.5627L67.2025 60.5904L89.1156 22.6356Z"
        fill="url(#paint6_linear_6344_14560)" />
    <path
        d="M432.985 82.8451L447.21 59.8503L432.79 37.3752H442.339L452.537 53.2247L461.891 37.3752H471.244L457.019 60.2401L471.569 82.8451H462.021L451.692 66.8007L442.339 82.8451H432.985Z"
        fill="white" />
    <path
        d="M422.014 82.8452C418.636 82.8452 415.929 82.0224 413.894 80.3768C411.859 78.7312 410.841 75.8082 410.841 71.6076V57.577H405.32V50.6266H410.841L411.815 41.9873H419.156V50.6266H427.86V57.577H419.156V71.6726C419.156 73.2316 419.48 74.3142 420.13 74.9204C420.823 75.4834 421.992 75.7649 423.638 75.7649H427.665V82.8452H422.014Z"
        fill="white" />
    <path
        d="M384.938 83.6245C381.647 83.6245 378.746 82.91 376.234 81.4809C373.722 80.0519 371.73 78.0599 370.258 75.5049C368.829 72.9499 368.114 70.0269 368.114 66.7357C368.114 63.4446 368.829 60.5215 370.258 57.9665C371.73 55.4116 373.722 53.4195 376.234 51.9905C378.746 50.5614 381.647 49.8469 384.938 49.8469C389.052 49.8469 392.516 50.9295 395.331 53.0948C398.146 55.2167 399.943 58.1614 400.723 61.9289H391.953C391.52 60.3699 390.654 59.1574 389.355 58.2913C388.099 57.3819 386.605 56.9272 384.873 56.9272C382.578 56.9272 380.629 57.7933 379.027 59.5255C377.425 61.2577 376.624 63.6611 376.624 66.7357C376.624 69.8103 377.425 72.2137 379.027 73.9459C380.629 75.6781 382.578 76.5442 384.873 76.5442C386.605 76.5442 388.099 76.1111 389.355 75.2451C390.654 74.379 391.52 73.1448 391.953 71.5425H400.723C399.943 75.1801 398.146 78.1032 395.331 80.3117C392.516 82.5202 389.052 83.6245 384.938 83.6245Z"
        fill="white" />
    <path
        d="M342.771 83.6245C340 83.6245 337.726 83.1914 335.951 82.3254C334.175 81.416 332.855 80.2251 331.989 78.7527C331.123 77.2804 330.689 75.6564 330.689 73.881C330.689 70.8929 331.859 68.4679 334.197 66.6058C336.536 64.7437 340.043 63.8126 344.72 63.8126H352.905V63.0332C352.905 60.8246 352.277 59.2007 351.021 58.1614C349.765 57.1221 348.206 56.6024 346.344 56.6024C344.655 56.6024 343.183 57.0138 341.927 57.8366C340.671 58.6161 339.892 59.7853 339.589 61.3443H331.469C331.685 59.0058 332.465 56.9705 333.807 55.2383C335.193 53.5062 336.969 52.1854 339.134 51.276C341.299 50.3233 343.724 49.8469 346.409 49.8469C350.999 49.8469 354.615 50.9945 357.257 53.2896C359.898 55.5848 361.219 58.8326 361.219 63.0332V82.845H354.139L353.359 77.6485C352.407 79.3806 351.064 80.8097 349.332 81.9356C347.643 83.0615 345.456 83.6245 342.771 83.6245ZM344.655 77.1288C347.037 77.1288 348.877 76.3493 350.177 74.7904C351.519 73.2314 352.363 71.3043 352.71 69.0092H345.63C343.421 69.0092 341.84 69.4206 340.888 70.2434C339.935 71.0229 339.459 71.9972 339.459 73.1664C339.459 74.4223 339.935 75.3966 340.888 76.0895C341.84 76.7824 343.096 77.1288 344.655 77.1288Z"
        fill="white" />
    <path
        d="M305.909 82.845V50.6264H313.314L314.094 56.6674C315.263 54.5888 316.844 52.9432 318.836 51.7307C320.871 50.4748 323.253 49.8469 325.981 49.8469V58.6161H323.643C321.824 58.6161 320.2 58.8976 318.771 59.4605C317.342 60.0235 316.216 60.9978 315.393 62.3836C314.614 63.7693 314.224 65.6964 314.224 68.1648V82.845H305.909Z"
        fill="white" />
    <path
        d="M282.742 83.6245C279.494 83.6245 276.615 82.9316 274.103 81.5459C271.591 80.1601 269.621 78.2114 268.192 75.6998C266.763 73.1881 266.048 70.2867 266.048 66.9955C266.048 63.6611 266.741 60.6947 268.127 58.0964C269.556 55.4982 271.505 53.4845 273.973 52.0555C276.485 50.5831 279.429 49.8469 282.807 49.8469C285.968 49.8469 288.762 50.5398 291.187 51.9255C293.612 53.3113 295.495 55.2167 296.838 57.6417C298.224 60.0235 298.916 62.6867 298.916 65.6314C298.916 66.1078 298.895 66.6058 298.851 67.1254C298.851 67.6451 298.83 68.1864 298.787 68.7494H274.298C274.471 71.261 275.337 73.2314 276.896 74.6604C278.498 76.0895 280.425 76.804 282.677 76.804C284.366 76.804 285.773 76.4359 286.899 75.6998C288.069 74.9203 288.935 73.9243 289.498 72.7117H297.942C297.336 74.7471 296.318 76.6091 294.889 78.298C293.503 79.9436 291.771 81.2427 289.693 82.1954C287.657 83.1481 285.34 83.6245 282.742 83.6245ZM282.807 56.6024C280.772 56.6024 278.975 57.187 277.416 58.3563C275.857 59.4822 274.861 61.2144 274.428 63.5528H290.472C290.342 61.4309 289.563 59.742 288.134 58.4862C286.705 57.2304 284.929 56.6024 282.807 56.6024Z"
        fill="white" />
    <path
        d="M246.276 83.6245C243.418 83.6245 240.906 83.1698 238.741 82.2604C236.576 81.3077 234.844 80.0086 233.544 78.363C232.245 76.7174 231.466 74.812 231.206 72.6468H239.585C239.845 73.9026 240.538 74.9852 241.664 75.8946C242.833 76.7607 244.327 77.1938 246.146 77.1938C247.965 77.1938 249.286 76.8257 250.108 76.0895C250.974 75.3533 251.408 74.5089 251.408 73.5562C251.408 72.1704 250.801 71.2394 249.589 70.763C248.376 70.2434 246.687 69.7454 244.522 69.269C243.136 68.9659 241.729 68.5978 240.3 68.1648C238.871 67.7317 237.55 67.1904 236.338 66.5408C235.168 65.848 234.216 64.9819 233.479 63.9426C232.743 62.8599 232.375 61.5392 232.375 59.9802C232.375 57.1221 233.501 54.7187 235.753 52.77C238.048 50.8213 241.253 49.8469 245.367 49.8469C249.177 49.8469 252.209 50.7347 254.46 52.5102C256.756 54.2856 258.12 56.7323 258.553 59.8503H250.693C250.217 57.4685 248.42 56.2777 245.302 56.2777C243.743 56.2777 242.53 56.5808 241.664 57.187C240.841 57.7933 240.43 58.5511 240.43 59.4605C240.43 60.4132 241.058 61.1711 242.314 61.734C243.569 62.297 245.237 62.8166 247.315 63.293C249.567 63.8126 251.624 64.3973 253.486 65.0468C255.392 65.6531 256.907 66.5841 258.033 67.84C259.159 69.0525 259.722 70.8063 259.722 73.1015C259.765 75.0935 259.246 76.8906 258.163 78.4929C257.08 80.0952 255.521 81.351 253.486 82.2604C251.451 83.1698 249.047 83.6245 246.276 83.6245Z"
        fill="white" />
    <path
        d="M212.148 83.6245C209.29 83.6245 206.778 83.1698 204.613 82.2604C202.448 81.3077 200.716 80.0086 199.417 78.363C198.118 76.7174 197.338 74.812 197.078 72.6468H205.458C205.718 73.9026 206.41 74.9852 207.536 75.8946C208.706 76.7607 210.2 77.1938 212.018 77.1938C213.837 77.1938 215.158 76.8257 215.981 76.0895C216.847 75.3533 217.28 74.5089 217.28 73.5562C217.28 72.1704 216.674 71.2394 215.461 70.763C214.249 70.2434 212.56 69.7454 210.394 69.269C209.009 68.9659 207.601 68.5978 206.172 68.1648C204.743 67.7317 203.422 67.1904 202.21 66.5408C201.041 65.848 200.088 64.9819 199.352 63.9426C198.616 62.8599 198.247 61.5392 198.247 59.9802C198.247 57.1221 199.373 54.7187 201.625 52.77C203.92 50.8213 207.125 49.8469 211.239 49.8469C215.05 49.8469 218.081 50.7347 220.333 52.5102C222.628 54.2856 223.992 56.7323 224.425 59.8503H216.565C216.089 57.4685 214.292 56.2777 211.174 56.2777C209.615 56.2777 208.402 56.5808 207.536 57.187C206.714 57.7933 206.302 58.5511 206.302 59.4605C206.302 60.4132 206.93 61.1711 208.186 61.734C209.442 62.297 211.109 62.8166 213.188 63.293C215.439 63.8126 217.496 64.3973 219.358 65.0468C221.264 65.6531 222.78 66.5841 223.905 67.84C225.031 69.0525 225.594 70.8063 225.594 73.1015C225.638 75.0935 225.118 76.8906 224.035 78.4929C222.953 80.0952 221.394 81.351 219.358 82.2604C217.323 83.1698 214.92 83.6245 212.148 83.6245Z"
        fill="white" />
    <path
        d="M175.665 83.6245C172.417 83.6245 169.537 82.9316 167.026 81.5459C164.514 80.1601 162.544 78.2114 161.115 75.6998C159.685 73.1881 158.971 70.2867 158.971 66.9955C158.971 63.6611 159.664 60.6947 161.05 58.0964C162.479 55.4982 164.427 53.4845 166.896 52.0555C169.407 50.5831 172.352 49.8469 175.73 49.8469C178.891 49.8469 181.684 50.5398 184.109 51.9255C186.534 53.3113 188.418 55.2167 189.76 57.6417C191.146 60.0235 191.839 62.6867 191.839 65.6314C191.839 66.1078 191.817 66.6058 191.774 67.1254C191.774 67.6451 191.753 68.1864 191.709 68.7494H167.22C167.394 71.261 168.26 73.2314 169.819 74.6604C171.421 76.0895 173.348 76.804 175.6 76.804C177.289 76.804 178.696 76.4359 179.822 75.6998C180.991 74.9203 181.857 73.9243 182.42 72.7117H190.865C190.259 74.7471 189.241 76.6091 187.812 78.298C186.426 79.9436 184.694 81.2427 182.615 82.1954C180.58 83.1481 178.263 83.6245 175.665 83.6245ZM175.73 56.6024C173.695 56.6024 171.897 57.187 170.338 58.3563C168.779 59.4822 167.783 61.2144 167.35 63.5528H183.395C183.265 61.4309 182.485 59.742 181.056 58.4862C179.627 57.2304 177.852 56.6024 175.73 56.6024Z"
        fill="white" />
    <path d="M138.251 82.8451V44.0658H125V37.3752H159.882V44.0658H146.566V82.8451H138.251Z" fill="white" />
    <defs>
        <linearGradient id="paint0_linear_6344_14560" x1="39.8424" y1="24.2223" x2="55.6888" y2="52.5195"
            gradientUnits="userSpaceOnUse">
            <stop stop-color="#8122E2" />
            <stop offset="1" stop-color="#FF56EF" />
        </linearGradient>
        <linearGradient id="paint1_linear_6344_14560" x1="39.8427" y1="67.6879" x2="55.9155" y2="103.003"
            gradientUnits="userSpaceOnUse">
            <stop stop-color="#5302C2" />
            <stop offset="1" stop-color="#31CEF0" />
        </linearGradient>
        <linearGradient id="paint2_linear_6344_14560" x1="42.3329" y1="67.235" x2="62.4805" y2="105.04"
            gradientUnits="userSpaceOnUse">
            <stop stop-color="#073FB8" />
            <stop offset="1" stop-color="#31CEF0" />
        </linearGradient>
        <linearGradient id="paint3_linear_6344_14560" x1="60.8958" y1="57.9536" x2="33.0514" y2="109.115"
            gradientUnits="userSpaceOnUse">
            <stop stop-color="#FF56EF" />
            <stop offset="1" stop-color="#31CEF0" />
        </linearGradient>
        <linearGradient id="paint4_linear_6344_14560" x1="76.9682" y1="46.1777" x2="99.1531" y2="78.776"
            gradientUnits="userSpaceOnUse">
            <stop stop-color="#5302C2" />
            <stop offset="1" stop-color="#31CEF0" />
        </linearGradient>
        <linearGradient id="paint5_linear_6344_14560" x1="76.9685" y1="44.5965" x2="99.6062" y2="77.1949"
            gradientUnits="userSpaceOnUse">
            <stop stop-color="#073FB8" />
            <stop offset="1" stop-color="#31CEF0" />
        </linearGradient>
        <linearGradient id="paint6_linear_6344_14560" x1="57.9526" y1="60.4405" x2="116.358" y2="61.1196"
            gradientUnits="userSpaceOnUse">
            <stop stop-color="#FF55F3" />
            <stop offset="1" stop-color="#31CEF0" />
        </linearGradient>
    </defs>
</svg>