<svg width="19" height="20" viewBox="0 0 19 20" fill="none" xmlns="http://www.w3.org/2000/svg">
<path d="M14.2507 1.66663C13.5382 1.66663 12.6673 2.49996 12.6673 3.33329H6.33398C6.33398 2.49996 5.46315 1.66663 4.75065 1.66663H1.58398V9.16663C1.58398 9.99996 2.37565 10.8333 3.16732 10.8333H4.90898C5.22565 12.5 6.25482 13.9166 8.70898 14.1666V15.9C6.33398 16.2833 6.33398 18.3333 6.33398 18.3333H12.6673C12.6673 18.3333 12.6673 16.2833 10.2923 15.9V14.1666C12.7465 13.9166 13.7757 12.5 14.0923 10.8333H15.834C16.6257 10.8333 17.4173 9.99996 17.4173 9.16663V1.66663H14.2507ZM4.75065 9.16663H3.16732V3.33329H4.75065V9.16663ZM15.834 9.16663H14.2507V3.33329H15.834V9.16663Z" fill="black"/>
</svg>
