<svg width="20" height="20" viewBox="0 0 20 20" fill="none" xmlns="http://www.w3.org/2000/svg">
<path d="M17.3172 10.4425L11.6922 16.0675C11.5749 16.1848 11.4159 16.2507 11.25 16.2507C11.0841 16.2507 10.9251 16.1848 10.8078 16.0675C10.6905 15.9503 10.6247 15.7912 10.6247 15.6253C10.6247 15.4595 10.6905 15.3004 10.8078 15.1832L15.3664 10.6253H3.125C2.95924 10.6253 2.80027 10.5595 2.68306 10.4423C2.56585 10.3251 2.5 10.1661 2.5 10.0003C2.5 9.83459 2.56585 9.67562 2.68306 9.55841C2.80027 9.4412 2.95924 9.37535 3.125 9.37535H15.3664L10.8078 4.81753C10.6905 4.70026 10.6247 4.5412 10.6247 4.37535C10.6247 4.2095 10.6905 4.05044 10.8078 3.93316C10.9251 3.81588 11.0841 3.75 11.25 3.75C11.4159 3.75 11.5749 3.81588 11.6922 3.93316L17.3172 9.55816C17.3753 9.61621 17.4214 9.68514 17.4529 9.76101C17.4843 9.83688 17.5005 9.91821 17.5005 10.0003C17.5005 10.0825 17.4843 10.1638 17.4529 10.2397C17.4214 10.3156 17.3753 10.3845 17.3172 10.4425Z" fill="black"/>
</svg>
