<svg width="20" height="20" viewBox="0 0 20 20" fill="none" xmlns="http://www.w3.org/2000/svg">
    <path
        d="M18.3496 5.68686C18.3452 5.58153 18.3143 5.47903 18.2596 5.38887C18.205 5.29872 18.1285 5.22385 18.0371 5.17123L10.3121 0.708734C10.2171 0.653879 10.1093 0.625 9.99961 0.625C9.8899 0.625 9.78212 0.653879 9.68711 0.708734L1.95898 5.17123C1.86407 5.22603 1.78523 5.30483 1.73038 5.39972C1.67553 5.49461 1.6466 5.60226 1.64648 5.71186V14.2869C1.6466 14.3965 1.67553 14.5041 1.73038 14.599C1.78523 14.6939 1.86407 14.7727 1.95898 14.8275L9.68711 19.29C9.78271 19.3431 9.89026 19.3709 9.99961 19.3709C10.109 19.3709 10.2165 19.3431 10.3121 19.29L18.0402 14.8275C18.1352 14.7727 18.214 14.6939 18.2688 14.599C18.3237 14.5041 18.3526 14.3965 18.3527 14.2869C18.3496 14.2619 18.359 5.70873 18.3496 5.68686ZM9.99961 1.97123L16.4777 5.72123L9.99961 9.45248L3.52148 5.70248L9.99961 1.97123ZM2.89648 6.79311L9.37461 10.5337V17.6681L2.89648 13.9181V6.79311ZM10.6246 17.6681V10.5337L17.1027 6.78373V13.9275L10.6246 17.6681Z"
        fill="white" />
</svg>