<svg width="16" height="16" viewBox="0 0 16 16" fill="none" xmlns="http://www.w3.org/2000/svg">
<mask id="mask0_386_36" style="mask-type:luminance" maskUnits="userSpaceOnUse" x="0" y="0" width="15" height="15">
<path fill-rule="evenodd" clip-rule="evenodd" d="M1.33337 1.33301H14.1487V13.8654H1.33337V1.33301Z" fill="white" stroke="white"/>
</mask>
<g mask="url(#mask0_386_36)">
<path fill-rule="evenodd" clip-rule="evenodd" d="M7.74134 2.29818C4.75214 2.29818 2.32024 4.67572 2.32024 7.5989C2.32024 10.5221 4.75214 12.9003 7.74134 12.9003C10.7299 12.9003 13.1618 10.5221 13.1618 7.5989C13.1618 4.67572 10.7299 2.29818 7.74134 2.29818ZM7.74133 13.8654C4.20797 13.8654 1.33325 11.0542 1.33325 7.5989C1.33325 4.14359 4.20797 1.33301 7.74133 1.33301C11.2747 1.33301 14.1488 4.14359 14.1488 7.5989C14.1488 11.0542 11.2747 13.8654 7.74133 13.8654Z" fill="#B9B8BB"/>
<path d="M7.74134 1.79818C4.48666 1.79818 1.82024 4.38903 1.82024 7.5989H2.82024C2.82024 4.96241 5.01761 2.79818 7.74134 2.79818V1.79818ZM1.82024 7.5989C1.82024 10.8087 4.48658 13.4003 7.74134 13.4003V12.4003C5.01769 12.4003 2.82024 10.2355 2.82024 7.5989H1.82024ZM7.74134 13.4003C10.9955 13.4003 13.6618 10.8087 13.6618 7.5989H12.6618C12.6618 10.2355 10.4643 12.4003 7.74134 12.4003V13.4003ZM13.6618 7.5989C13.6618 4.38907 10.9954 1.79818 7.74134 1.79818V2.79818C10.4644 2.79818 12.6618 4.96237 12.6618 7.5989H13.6618ZM7.74133 13.3654C4.47353 13.3654 1.83325 10.7676 1.83325 7.5989H0.833252C0.833252 11.3408 3.94242 14.3654 7.74133 14.3654V13.3654ZM1.83325 7.5989C1.83325 4.43027 4.47346 1.83301 7.74133 1.83301V0.833008C3.94248 0.833008 0.833252 3.85691 0.833252 7.5989H1.83325ZM7.74133 1.83301C11.0091 1.83301 13.6488 4.4302 13.6488 7.5989H14.6488C14.6488 3.85698 11.5402 0.833008 7.74133 0.833008V1.83301ZM13.6488 7.5989C13.6488 10.7677 11.0091 13.3654 7.74133 13.3654V14.3654C11.5403 14.3654 14.6488 11.3408 14.6488 7.5989H13.6488Z" fill="#B9B8BB"/>
</g>
<mask id="mask1_386_36" style="mask-type:luminance" maskUnits="userSpaceOnUse" x="10" y="10" width="6" height="6">
<path fill-rule="evenodd" clip-rule="evenodd" d="M11.361 11.4395H14.6667V14.6662H11.361V11.4395Z" fill="white" stroke="white"/>
</mask>
<g mask="url(#mask1_386_36)">
<path fill-rule="evenodd" clip-rule="evenodd" d="M14.1733 14.6662C14.0477 14.6662 13.9213 14.6192 13.8246 14.5253L11.5059 12.2642C11.3131 12.0757 11.3124 11.77 11.5052 11.5815C11.6974 11.3917 12.0099 11.393 12.2033 11.5802L14.5221 13.8419C14.7149 14.0305 14.7155 14.3355 14.5227 14.524C14.4267 14.6192 14.2997 14.6662 14.1733 14.6662Z" fill="#B9B8BB"/>
<path d="M14.1733 14.6662C14.0477 14.6662 13.9213 14.6192 13.8246 14.5253L11.5059 12.2642C11.3131 12.0757 11.3124 11.77 11.5052 11.5815C11.6974 11.3917 12.0099 11.393 12.2033 11.5802L14.5221 13.8419C14.7149 14.0305 14.7155 14.3355 14.5227 14.524C14.4267 14.6192 14.2997 14.6662 14.1733 14.6662" stroke="#B9B8BB"/>
</g>
</svg>
