<svg width="25" height="26" viewBox="0 0 25 26" fill="none" xmlns="http://www.w3.org/2000/svg">
<g clip-path="url(#clip0_4_28172)">
<path d="M20.7374 20.135C20.7375 20.644 20.6261 21.1469 20.4111 21.6084C20.1962 22.0698 19.8828 22.4786 19.493 22.806C19.1032 23.1334 18.6465 23.3715 18.1549 23.5036C17.6633 23.6357 17.1487 23.6586 16.6473 23.5707C16.1459 23.4828 15.6698 23.2861 15.2525 22.9946C14.8352 22.7031 14.4867 22.3238 14.2316 21.8833C13.9765 21.4428 13.821 20.9517 13.7758 20.4447C13.7307 19.9376 13.7971 19.4269 13.9704 18.9482L8.83574 15.6495C8.34535 16.1305 7.72382 16.456 7.04913 16.5851C6.37445 16.7143 5.67665 16.6413 5.04328 16.3754C4.40991 16.1094 3.86917 15.6624 3.48891 15.0903C3.10865 14.5182 2.90579 13.8466 2.90579 13.1596C2.90579 12.4727 3.10865 11.8011 3.48891 11.229C3.86917 10.6569 4.40991 10.2099 5.04328 9.94393C5.67665 9.67799 6.37445 9.60502 7.04913 9.73416C7.72382 9.8633 8.34535 10.1888 8.83574 10.6698L13.9704 7.37592C13.6764 6.56799 13.6903 5.68005 14.0096 4.88176C14.3289 4.08348 14.9312 3.43083 15.7012 3.04852C16.4713 2.66621 17.3553 2.58105 18.1842 2.80931C19.0131 3.03757 19.7289 3.56325 20.1947 4.28589C20.6605 5.00854 20.8438 5.87748 20.7094 6.72668C20.575 7.57589 20.1325 8.34581 19.4663 8.88934C18.8001 9.43286 17.957 9.71187 17.0981 9.67307C16.2392 9.63426 15.4248 9.28034 14.8103 8.67896L9.67569 11.9777C9.95319 12.7446 9.95319 13.5844 9.67569 14.3513L14.8103 17.65C15.3006 17.1702 15.9214 16.8457 16.5951 16.7169C17.2689 16.5882 17.9657 16.661 18.5983 16.9262C19.2309 17.1914 19.7712 17.6373 20.1517 18.208C20.5322 18.7788 20.7359 19.4491 20.7374 20.135Z" fill="#191820"/>
</g>
<defs>
<clipPath id="clip0_4_28172">
<rect width="24.8012" height="24.8012" fill="white" transform="translate(0.198761 0.759033)"/>
</clipPath>
</defs>
</svg>
