<svg width="33" height="33" viewBox="0 0 33 33" fill="none" xmlns="http://www.w3.org/2000/svg">
<g clip-path="url(#clip0_4_28202)">
<path d="M16.4204 9.95392C12.9736 9.95392 10.1815 12.7474 10.1815 16.1928C10.1815 19.6394 12.9736 22.4329 16.4204 22.4329C19.8643 22.4329 22.6592 19.6394 22.6592 16.1928C22.6592 12.7474 19.8643 9.95392 16.4204 9.95392ZM16.4204 20.2467C14.1815 20.2467 12.3663 18.4316 12.3663 16.1941C12.3663 13.9553 14.1815 12.1415 16.4204 12.1415C18.6592 12.1415 20.4716 13.9553 20.4716 16.1941C20.4716 18.4316 18.6592 20.2467 16.4204 20.2467Z" fill="#565660"/>
<path d="M22.9087 11.179C23.7121 11.179 24.3635 10.5277 24.3635 9.72419C24.3635 8.92074 23.7121 8.26941 22.9087 8.26941C22.1052 8.26941 21.4539 8.92074 21.4539 9.72419C21.4539 10.5277 22.1052 11.179 22.9087 11.179Z" fill="#565660"/>
<path d="M27.9369 8.24446C27.304 6.61289 26.0152 5.32275 24.3836 4.69253C23.4403 4.3376 22.443 4.14732 21.4336 4.12573C20.134 4.06905 19.7224 4.05286 16.4269 4.05286C13.1313 4.05286 12.7089 4.05286 11.4201 4.12573C10.4134 4.14597 9.41606 4.33626 8.47275 4.69253C6.83983 5.32275 5.55104 6.61289 4.91946 8.24446C4.56454 9.18913 4.37426 10.1851 4.35402 11.1945C4.29599 12.4927 4.27844 12.9044 4.27844 16.2013C4.27844 19.4968 4.27844 19.9165 4.35402 21.208C4.37426 22.2174 4.56454 23.2134 4.91946 24.1594C5.55239 25.7896 6.84118 27.0797 8.4741 27.7113C9.41336 28.0784 10.4107 28.2862 11.4228 28.3186C12.7224 28.3753 13.134 28.3928 16.4296 28.3928C19.7251 28.3928 20.1475 28.3928 21.4363 28.3186C22.4444 28.2983 23.4417 28.1067 24.3863 27.7531C26.0179 27.1202 27.3067 25.8314 27.9396 24.1999C28.2946 23.2552 28.4848 22.2592 28.5051 21.2498C28.5631 19.9516 28.5807 19.54 28.5807 16.2431C28.5807 12.9462 28.5807 12.5278 28.5051 11.2363C28.4875 10.2134 28.2986 9.19992 27.9369 8.24446ZM26.2932 21.1081C26.2838 21.8854 26.1434 22.656 25.8735 23.3861C25.4619 24.4482 24.6239 25.2876 23.5631 25.6951C22.8411 25.9637 22.08 26.104 21.3094 26.1148C20.0274 26.1742 19.6657 26.189 16.3783 26.189C13.0881 26.189 12.7521 26.189 11.4457 26.1148C10.6779 26.1054 9.91403 25.9637 9.19339 25.6951C8.12862 25.2889 7.28517 24.4495 6.87357 23.3861C6.60906 22.6654 6.46601 21.903 6.45387 21.1337C6.39584 19.8517 6.38234 19.49 6.38234 16.2026C6.38234 12.9138 6.38234 12.5778 6.45387 11.2701C6.46331 10.4928 6.60366 9.72354 6.87357 8.99345C7.28517 7.92868 8.12862 7.09062 9.19339 6.68307C9.91403 6.41586 10.6779 6.27416 11.4457 6.26337C12.7291 6.20534 13.0895 6.18915 16.3783 6.18915C19.6671 6.18915 20.0045 6.18915 21.3094 6.26337C22.08 6.27282 22.8411 6.41451 23.5631 6.68307C24.6239 7.09197 25.4619 7.93137 25.8735 8.99345C26.138 9.71409 26.2811 10.4766 26.2932 11.2458C26.3512 12.5292 26.3661 12.8895 26.3661 16.1783C26.3661 19.4657 26.3661 19.8193 26.3081 21.1095L26.2932 21.1081Z" fill="#565660"/>
</g>
<defs>
<clipPath id="clip0_4_28202">
<rect width="32.3885" height="32.3885" fill="white" transform="translate(0.228455)"/>
</clipPath>
</defs>
</svg>
