<svg width="28" height="28" viewBox="0 0 28 28" fill="none" xmlns="http://www.w3.org/2000/svg">
<g filter="url(#filter0_i_4_28209)">
<path d="M3.86302 13.0143C3.86302 13.0143 14.6608 8.22566 18.4056 6.53945C19.8412 5.86502 24.7095 3.70666 24.7095 3.70666C24.7095 3.70666 26.9565 2.76246 26.7692 5.05562C26.7067 5.99991 26.2074 9.30475 25.7082 12.8795C24.9591 17.938 24.1477 23.4686 24.1477 23.4686C24.1477 23.4686 24.0229 25.0199 22.9619 25.2897C21.9009 25.5595 20.1532 24.3455 19.8412 24.0756C19.5914 23.8734 15.1601 20.8382 13.5373 19.3543C13.1004 18.9497 12.6011 18.1404 13.5997 17.1961C15.8466 14.9703 18.5304 12.205 20.1532 10.4514C20.9022 9.64201 21.6511 7.75352 18.5304 10.0467C14.099 13.3516 9.73 16.4542 9.73 16.4542C9.73 16.4542 8.73134 17.1286 6.85892 16.5216C4.98642 15.9146 2.80191 15.1052 2.80191 15.1052C2.80191 15.1052 1.30404 14.0935 3.86302 13.0143Z" fill="#565660"/>
</g>
<defs>
<filter id="filter0_i_4_28209" x="0.534241" y="0.461365" width="27.4658" height="27.7709" filterUnits="userSpaceOnUse" color-interpolation-filters="sRGB">
<feFlood flood-opacity="0" result="BackgroundImageFix"/>
<feBlend mode="normal" in="SourceGraphic" in2="BackgroundImageFix" result="shape"/>
<feColorMatrix in="SourceAlpha" type="matrix" values="0 0 0 0 0 0 0 0 0 0 0 0 0 0 0 0 0 0 127 0" result="hardAlpha"/>
<feOffset dy="0.305175"/>
<feGaussianBlur stdDeviation="0.762938"/>
<feComposite in2="hardAlpha" operator="arithmetic" k2="-1" k3="1"/>
<feColorMatrix type="matrix" values="0 0 0 0 0 0 0 0 0 0 0 0 0 0 0 0 0 0 0.1 0"/>
<feBlend mode="normal" in2="shape" result="effect1_innerShadow_4_28209"/>
</filter>
</defs>
</svg>
