<svg width="33" height="33" viewBox="0 0 33 33" fill="none" xmlns="http://www.w3.org/2000/svg">
<g clip-path="url(#clip0_4_28196)">
<path fill-rule="evenodd" clip-rule="evenodd" d="M6.31773 15.0891H10.729C10.9765 12.0381 11.9977 9.1095 13.6833 6.57593C9.75591 7.59853 6.77382 10.9632 6.31773 15.0891ZM16.1944 6.86408C14.3509 9.23926 13.2229 12.0934 12.9456 15.0891H19.4433C19.1659 12.0934 18.038 9.23926 16.1944 6.86408ZM19.4433 17.2975C19.1659 20.2931 18.038 23.1474 16.1944 25.5225C14.3509 23.1474 13.2229 20.2931 12.9456 17.2975H19.4433ZM10.729 17.2975H6.31773C6.77382 21.4233 9.75591 24.788 13.6833 25.8106C11.9977 23.277 10.9765 20.3484 10.729 17.2975ZM18.7056 25.8106C20.3912 23.277 21.4124 20.3484 21.6599 17.2975H26.0712C25.615 21.4233 22.633 24.788 18.7056 25.8106ZM26.0712 15.0891H21.6599C21.4124 12.0381 20.3912 9.1095 18.7056 6.57593C22.633 7.59853 25.615 10.9632 26.0712 15.0891ZM4.04877 16.1933C4.04877 9.48541 9.48657 4.04761 16.1944 4.04761C22.9024 4.04761 28.3401 9.48541 28.3401 16.1933C28.3401 22.9012 22.9024 28.3389 16.1944 28.3389C9.48657 28.3389 4.04877 22.9012 4.04877 16.1933Z" fill="#565660"/>
</g>
<defs>
<clipPath id="clip0_4_28196">
<rect width="32.3885" height="32.3885" fill="white"/>
</clipPath>
</defs>
</svg>
