<svg width="28" height="28" viewBox="0 0 28 28" fill="none" xmlns="http://www.w3.org/2000/svg">
<g clip-path="url(#clip0_4_28207)" filter="url(#filter0_i_4_28207)">
<path d="M27.6863 5.62595C26.7978 6.00865 25.8638 6.27514 24.9073 6.41883C25.3545 6.3421 26.0125 5.53643 26.2744 5.21033C26.6723 4.71843 26.9756 4.15689 27.1688 3.55423C27.1688 3.50947 27.2135 3.44553 27.1688 3.41356C27.1463 3.40125 27.121 3.39479 27.0953 3.39479C27.0697 3.39479 27.0444 3.40125 27.0219 3.41356C25.9832 3.97652 24.8778 4.40619 23.7318 4.6924C23.6918 4.70461 23.6493 4.70571 23.6088 4.69557C23.5683 4.68543 23.5313 4.66444 23.5018 4.63485C23.4126 4.52853 23.3166 4.42815 23.2143 4.33432C22.7469 3.91515 22.2166 3.57208 21.6427 3.31765C20.8682 2.99958 20.0315 2.86184 19.1959 2.91481C18.3852 2.96606 17.5936 3.18371 16.8705 3.55423C16.1584 3.94487 15.5326 4.47556 15.0306 5.11442C14.5026 5.77196 14.1214 6.53506 13.9126 7.35239C13.7405 8.12983 13.721 8.93334 13.8551 9.71824C13.8551 9.85252 13.8551 9.8717 13.7401 9.85252C9.18512 9.18113 5.44783 7.5634 2.39412 4.09134C2.25996 3.93788 2.18968 3.93788 2.08108 4.09134C0.752267 6.11191 1.39751 9.30901 3.05852 10.8884C3.28212 11.0994 3.51211 11.304 3.75487 11.4958C2.99331 11.4417 2.25034 11.2352 1.57 10.8884C1.44223 10.8053 1.37195 10.85 1.36556 11.0035C1.34745 11.2162 1.34745 11.4301 1.36556 11.6429C1.49887 12.6625 1.90033 13.6284 2.52891 14.4418C3.1575 15.2552 3.99064 15.8869 4.94314 16.2723C5.17533 16.3718 5.41728 16.4468 5.66504 16.4961C4.96002 16.635 4.23693 16.6566 3.52489 16.56C3.37156 16.5281 3.31406 16.6112 3.37156 16.7583C4.31067 19.3159 6.34861 20.096 7.84353 20.5308C8.04796 20.5628 8.25239 20.5628 8.48238 20.614C8.48238 20.614 8.48238 20.614 8.44405 20.6523C8.00324 21.458 6.22084 22.0015 5.40311 22.2828C3.91054 22.8194 2.31919 23.0245 0.73949 22.8839C0.490337 22.8455 0.432841 22.8519 0.368955 22.8839C0.30507 22.9159 0.368955 22.9862 0.439229 23.0501C0.758655 23.2612 1.07808 23.4466 1.41028 23.6256C2.39926 24.1655 3.4448 24.5944 4.52788 24.9045C10.137 26.4519 16.4489 25.3137 20.6589 21.1255C23.9682 17.8389 25.1309 13.3054 25.1309 8.7655C25.1309 8.59286 25.3417 8.49055 25.4631 8.40104C26.3003 7.74812 27.0384 6.97704 27.6543 6.11191C27.761 5.98295 27.8157 5.81876 27.8077 5.65153C27.8077 5.55562 27.8077 5.5748 27.6863 5.62595Z" fill="#565660"/>
</g>
<defs>
<filter id="filter0_i_4_28207" x="0.342651" y="0.461365" width="27.4658" height="27.7709" filterUnits="userSpaceOnUse" color-interpolation-filters="sRGB">
<feFlood flood-opacity="0" result="BackgroundImageFix"/>
<feBlend mode="normal" in="SourceGraphic" in2="BackgroundImageFix" result="shape"/>
<feColorMatrix in="SourceAlpha" type="matrix" values="0 0 0 0 0 0 0 0 0 0 0 0 0 0 0 0 0 0 127 0" result="hardAlpha"/>
<feOffset dy="0.305175"/>
<feGaussianBlur stdDeviation="0.762938"/>
<feComposite in2="hardAlpha" operator="arithmetic" k2="-1" k3="1"/>
<feColorMatrix type="matrix" values="0 0 0 0 0 0 0 0 0 0 0 0 0 0 0 0 0 0 0.1 0"/>
<feBlend mode="normal" in2="shape" result="effect1_innerShadow_4_28207"/>
</filter>
<clipPath id="clip0_4_28207">
<rect width="27.4658" height="27.4658" fill="white" transform="translate(0.342651 0.461365)"/>
</clipPath>
</defs>
</svg>
