<svg width="33" height="33" viewBox="0 0 33 33" fill="none" xmlns="http://www.w3.org/2000/svg">
<g clip-path="url(#clip0_4_28199)">
<path d="M25.6609 7.18734C23.9407 6.35888 22.0961 5.74851 20.1672 5.39893C20.1321 5.39218 20.097 5.40904 20.0789 5.44276C19.8417 5.88565 19.5788 6.46341 19.3949 6.91754C17.3202 6.59157 15.2564 6.59157 13.2244 6.91754C13.0403 6.45332 12.768 5.88565 12.5297 5.44276C12.5116 5.41016 12.4765 5.3933 12.4414 5.39893C10.5137 5.74739 8.66891 6.35776 6.94757 7.18734C6.93268 7.19409 6.91991 7.20534 6.91142 7.21994C3.41235 12.7066 2.45381 18.0584 2.92404 23.3438C2.92617 23.3697 2.93999 23.3944 2.95915 23.4102C5.26773 25.1895 7.50399 26.2698 9.69873 26.9858C9.73386 26.997 9.77108 26.9836 9.79343 26.9532C10.3126 26.2091 10.7754 25.4245 11.1722 24.5994C11.1956 24.551 11.1732 24.4937 11.1254 24.4747C10.3913 24.1824 9.69235 23.8261 9.01998 23.4214C8.96681 23.3888 8.96254 23.3089 9.01148 23.2708C9.15296 23.1594 9.29448 23.0436 9.4296 22.9268C9.45404 22.9054 9.4881 22.9009 9.51683 22.9144C13.934 25.0311 18.716 25.0311 23.0811 22.9144C23.1098 22.8998 23.144 22.9042 23.1695 22.9257C23.3045 23.0426 23.446 23.1594 23.5886 23.2708C23.6375 23.3089 23.6344 23.3888 23.5812 23.4214C22.9087 23.8339 22.2098 24.1824 21.4747 24.4734C21.4268 24.4926 21.4055 24.551 21.429 24.5994C21.8342 25.4234 22.297 26.208 22.8066 26.9521C22.8279 26.9836 22.8662 26.997 22.9013 26.9858C25.1067 26.2698 27.343 25.1895 29.6516 23.4102C29.6717 23.3944 29.6845 23.3708 29.6867 23.345C30.2494 17.2344 28.7441 11.9265 25.696 7.22106C25.6886 7.20534 25.6759 7.19409 25.6609 7.18734ZM11.8318 20.1256C10.502 20.1256 9.40617 18.8441 9.40617 17.2704C9.40617 15.6966 10.4807 14.4152 11.8318 14.4152C13.1935 14.4152 14.2787 15.7079 14.2574 17.2704C14.2574 18.8441 13.1829 20.1256 11.8318 20.1256ZM20.8002 20.1256C19.4703 20.1256 18.3746 18.8441 18.3746 17.2704C18.3746 15.6966 19.4491 14.4152 20.8002 14.4152C22.1619 14.4152 23.2471 15.7079 23.2259 17.2704C23.2259 18.8441 22.1619 20.1256 20.8002 20.1256Z" fill="#565660"/>
</g>
<defs>
<clipPath id="clip0_4_28199">
<rect width="32.3885" height="32.3885" fill="white" transform="translate(0.114258)"/>
</clipPath>
</defs>
</svg>
