<svg width="24" height="24" viewBox="0 0 24 24" fill="none" xmlns="http://www.w3.org/2000/svg">
<g clip-path="url(#clip0_1_12423)">
<path d="M19.4999 13.5C19.5018 13.8058 19.4089 14.1047 19.234 14.3555C19.059 14.6063 18.8107 14.7968 18.523 14.9006L13.6808 16.6819L11.8996 21.5203C11.7941 21.8069 11.6033 22.0542 11.3528 22.2289C11.1023 22.4036 10.8043 22.4972 10.499 22.4972C10.1936 22.4972 9.89559 22.4036 9.64513 22.2289C9.39467 22.0542 9.20383 21.8069 9.09834 21.5203L7.31241 16.6875L2.47303 14.9062C2.18646 14.8008 1.93915 14.6099 1.76445 14.3595C1.58976 14.109 1.49609 13.811 1.49609 13.5056C1.49609 13.2003 1.58976 12.9022 1.76445 12.6518C1.93915 12.4013 2.18646 12.2105 2.47303 12.105L7.31522 10.3238L9.09647 5.48531C9.20195 5.19875 9.3928 4.95143 9.64326 4.77674C9.89371 4.60204 10.1917 4.50838 10.4971 4.50838C10.8025 4.50838 11.1005 4.60204 11.3509 4.77674C11.6014 4.95143 11.7922 5.19875 11.8977 5.48531L13.679 10.3275L18.5174 12.1088C18.8046 12.2111 19.0531 12.3998 19.229 12.6488C19.4048 12.8978 19.4995 13.1951 19.4999 13.5ZM14.2499 4.5H15.7499V6C15.7499 6.19891 15.8289 6.38968 15.9696 6.53033C16.1102 6.67098 16.301 6.75 16.4999 6.75C16.6988 6.75 16.8896 6.67098 17.0302 6.53033C17.1709 6.38968 17.2499 6.19891 17.2499 6V4.5H18.7499C18.9488 4.5 19.1396 4.42098 19.2802 4.28033C19.4209 4.13968 19.4999 3.94891 19.4999 3.75C19.4999 3.55109 19.4209 3.36032 19.2802 3.21967C19.1396 3.07902 18.9488 3 18.7499 3H17.2499V1.5C17.2499 1.30109 17.1709 1.11032 17.0302 0.96967C16.8896 0.829018 16.6988 0.75 16.4999 0.75C16.301 0.75 16.1102 0.829018 15.9696 0.96967C15.8289 1.11032 15.7499 1.30109 15.7499 1.5V3H14.2499C14.051 3 13.8602 3.07902 13.7196 3.21967C13.5789 3.36032 13.4999 3.55109 13.4999 3.75C13.4999 3.94891 13.5789 4.13968 13.7196 4.28033C13.8602 4.42098 14.051 4.5 14.2499 4.5ZM22.4999 7.5H21.7499V6.75C21.7499 6.55109 21.6709 6.36032 21.5302 6.21967C21.3896 6.07902 21.1988 6 20.9999 6C20.801 6 20.6102 6.07902 20.4696 6.21967C20.3289 6.36032 20.2499 6.55109 20.2499 6.75V7.5H19.4999C19.301 7.5 19.1102 7.57902 18.9696 7.71967C18.8289 7.86032 18.7499 8.05109 18.7499 8.25C18.7499 8.44891 18.8289 8.63968 18.9696 8.78033C19.1102 8.92098 19.301 9 19.4999 9H20.2499V9.75C20.2499 9.94891 20.3289 10.1397 20.4696 10.2803C20.6102 10.421 20.801 10.5 20.9999 10.5C21.1988 10.5 21.3896 10.421 21.5302 10.2803C21.6709 10.1397 21.7499 9.94891 21.7499 9.75V9H22.4999C22.6988 9 22.8896 8.92098 23.0302 8.78033C23.1709 8.63968 23.2499 8.44891 23.2499 8.25C23.2499 8.05109 23.1709 7.86032 23.0302 7.71967C22.8896 7.57902 22.6988 7.5 22.4999 7.5Z" fill="#565660"/>
</g>
<defs>
<clipPath id="clip0_1_12423">
<rect width="24" height="24" fill="white"/>
</clipPath>
</defs>
</svg>
