<svg width="24" height="24" viewBox="0 0 24 24" fill="none" xmlns="http://www.w3.org/2000/svg">
<g clip-path="url(#clip0_1_12440)">
<path fill-rule="evenodd" clip-rule="evenodd" d="M3.80322 5.28678V12.128C3.80322 12.4799 3.94321 12.8175 4.1923 13.066L11.7527 20.6123C12.2702 21.1287 13.1079 21.1287 13.6253 20.6123L20.635 13.6157C21.1538 13.0979 21.1538 12.2574 20.635 11.7397L13.077 4.1959C12.8287 3.94789 12.4919 3.80859 12.1408 3.80859H5.12858C4.39661 3.80859 3.80322 4.40198 3.80322 5.13396V5.28678ZM7.87582 8.98217C8.48925 8.98217 8.98654 8.48582 8.98654 7.87353C8.98654 7.26125 8.48925 6.76489 7.87582 6.76489C7.26238 6.76489 6.76509 7.26125 6.76509 7.87353C6.76509 8.48582 7.26238 8.98217 7.87582 8.98217Z" fill="#565660"/>
</g>
<defs>
<clipPath id="clip0_1_12440">
<rect width="24" height="24" fill="white"/>
</clipPath>
</defs>
</svg>
