<svg width="306" height="52" viewBox="0 0 306 52" fill="none" xmlns="http://www.w3.org/2000/svg">
<path d="M28.2247 17.3789L32.9932 26.0503L28.0701 34.3122L23.3325 25.9576L28.2247 17.3789Z" fill="url(#paint0_linear_613_25696)"/>
<path d="M9.74567 24.0024L14.3905 15.3155L24.4377 15.2459L25.9834 12.5332L12.8912 12.7032L6.6156 23.8555L9.74567 24.0024Z" fill="#0640BB"/>
<path d="M26.7563 10.5391L19.3059 23.6158H4.01885L11.4924 10.5391H26.7563ZM30.7674 8.20508H10.1399L0 25.9498H20.6507L30.7674 8.20508Z" fill="url(#paint1_linear_613_25696)"/>
<path d="M26.7562 10.5391H11.4923L4.0188 23.6158L6.73925 23.6235L12.8912 12.7031L25.6201 12.533L26.7562 10.5391Z" fill="#5606C6"/>
<path d="M6.08232 28.2754H4.0188L11.5541 41.4603H26.7639L25.5892 39.3813L12.9453 39.505L6.70834 28.2754H6.08232Z" fill="url(#paint2_linear_613_25696)"/>
<path d="M27.1891 17.834L32.004 26.0108L27.0577 34.2417L28.9976 37.31L35.5051 25.9567L29.1367 14.418L27.1891 17.834Z" fill="url(#paint3_linear_613_25696)"/>
<path d="M30.7905 12.8574L29.523 15.1142L35.505 25.9573L29.3298 36.7232L30.7828 39.0959L38.3104 26.0037L30.7905 12.8574Z" fill="url(#paint4_linear_613_25696)"/>
<path d="M30.7752 12.904L38.2796 25.9576H40.9691L30.7674 8.20508L20.6508 25.9498H20.6585L23.3326 25.9576L30.7752 12.904Z" fill="url(#paint5_linear_613_25696)"/>
<path d="M20.6584 25.9492L30.7674 43.7945L41 26.011L40.9691 25.9569H38.2796L38.3105 26.011L30.7829 39.0955L23.3325 25.9569" fill="url(#paint6_linear_613_25696)"/>
<path d="M9.05017 28.2754H19.2982L24.43 37.341L14.0274 37.3564L9.05017 28.2754Z" fill="url(#paint7_linear_613_25696)"/>
<path d="M24.6 36.1894L14.7075 36.2899L10.2017 27.7344H6.40698L12.9453 39.505L26.2075 39.3813L24.6 36.1894Z" fill="url(#paint8_linear_613_25696)"/>
<path d="M11.5542 41.4604L4.01885 28.2755H19.2596L20.6275 25.9492H0L10.2017 43.7867L11.5542 41.4604Z" fill="url(#paint9_linear_613_25696)"/>
<path d="M30.7674 43.7945L20.6507 25.9492H20.6275L19.2595 28.2755H19.2982L26.764 41.4604H11.5542L10.2017 43.7867V43.7945H30.7674Z" fill="url(#paint10_linear_613_25696)"/>
<path d="M19.2982 23.6161L24.0667 15.2461L14.3905 15.3157L9.95435 23.6161H19.2982Z" fill="white"/>
<path d="M50.544 24V9.672H45.648V7.2H58.536V9.672H53.616V24H50.544ZM64.3674 24.288C63.1674 24.288 62.1034 24.032 61.1754 23.52C60.2474 23.008 59.5194 22.288 58.9914 21.36C58.4634 20.432 58.1994 19.36 58.1994 18.144C58.1994 16.912 58.4554 15.816 58.9674 14.856C59.4954 13.896 60.2154 13.152 61.1274 12.624C62.0554 12.08 63.1434 11.808 64.3914 11.808C65.5594 11.808 66.5914 12.064 67.4874 12.576C68.3834 13.088 69.0794 13.792 69.5754 14.688C70.0874 15.568 70.3434 16.552 70.3434 17.64C70.3434 17.816 70.3354 18 70.3194 18.192C70.3194 18.384 70.3114 18.584 70.2954 18.792H61.2474C61.3114 19.72 61.6314 20.448 62.2074 20.976C62.7994 21.504 63.5114 21.768 64.3434 21.768C64.9674 21.768 65.4874 21.632 65.9034 21.36C66.3354 21.072 66.6554 20.704 66.8634 20.256H69.9834C69.7594 21.008 69.3834 21.696 68.8554 22.32C68.3434 22.928 67.7034 23.408 66.9354 23.76C66.1834 24.112 65.3274 24.288 64.3674 24.288ZM64.3914 14.304C63.6394 14.304 62.9754 14.52 62.3994 14.952C61.8234 15.368 61.4554 16.008 61.2954 16.872H67.2234C67.1754 16.088 66.8874 15.464 66.3594 15C65.8314 14.536 65.1754 14.304 64.3914 14.304ZM77.8472 24.288C76.7912 24.288 75.8632 24.12 75.0632 23.784C74.2632 23.432 73.6232 22.952 73.1432 22.344C72.6632 21.736 72.3752 21.032 72.2792 20.232H75.3752C75.4712 20.696 75.7272 21.096 76.1432 21.432C76.5752 21.752 77.1272 21.912 77.7992 21.912C78.4712 21.912 78.9592 21.776 79.2632 21.504C79.5832 21.232 79.7432 20.92 79.7432 20.568C79.7432 20.056 79.5192 19.712 79.0712 19.536C78.6232 19.344 77.9992 19.16 77.1992 18.984C76.6872 18.872 76.1672 18.736 75.6392 18.576C75.1112 18.416 74.6232 18.216 74.1752 17.976C73.7432 17.72 73.3912 17.4 73.1192 17.016C72.8472 16.616 72.7112 16.128 72.7112 15.552C72.7112 14.496 73.1272 13.608 73.9592 12.888C74.8072 12.168 75.9912 11.808 77.5112 11.808C78.9192 11.808 80.0392 12.136 80.8712 12.792C81.7192 13.448 82.2232 14.352 82.3832 15.504H79.4792C79.3032 14.624 78.6392 14.184 77.4872 14.184C76.9112 14.184 76.4632 14.296 76.1432 14.52C75.8392 14.744 75.6872 15.024 75.6872 15.36C75.6872 15.712 75.9192 15.992 76.3832 16.2C76.8472 16.408 77.4632 16.6 78.2312 16.776C79.0632 16.968 79.8232 17.184 80.5112 17.424C81.2152 17.648 81.7752 17.992 82.1912 18.456C82.6072 18.904 82.8152 19.552 82.8152 20.4C82.8312 21.136 82.6392 21.8 82.2392 22.392C81.8392 22.984 81.2632 23.448 80.5112 23.784C79.7592 24.12 78.8712 24.288 77.8472 24.288ZM90.4566 24.288C89.4006 24.288 88.4726 24.12 87.6726 23.784C86.8726 23.432 86.2326 22.952 85.7526 22.344C85.2726 21.736 84.9846 21.032 84.8886 20.232H87.9846C88.0806 20.696 88.3366 21.096 88.7526 21.432C89.1846 21.752 89.7366 21.912 90.4086 21.912C91.0806 21.912 91.5686 21.776 91.8726 21.504C92.1926 21.232 92.3526 20.92 92.3526 20.568C92.3526 20.056 92.1286 19.712 91.6806 19.536C91.2326 19.344 90.6086 19.16 89.8086 18.984C89.2966 18.872 88.7766 18.736 88.2486 18.576C87.7206 18.416 87.2326 18.216 86.7846 17.976C86.3526 17.72 86.0006 17.4 85.7286 17.016C85.4566 16.616 85.3206 16.128 85.3206 15.552C85.3206 14.496 85.7366 13.608 86.5686 12.888C87.4166 12.168 88.6006 11.808 90.1206 11.808C91.5286 11.808 92.6486 12.136 93.4806 12.792C94.3286 13.448 94.8326 14.352 94.9926 15.504H92.0886C91.9126 14.624 91.2486 14.184 90.0966 14.184C89.5206 14.184 89.0726 14.296 88.7526 14.52C88.4486 14.744 88.2966 15.024 88.2966 15.36C88.2966 15.712 88.5286 15.992 88.9926 16.2C89.4566 16.408 90.0726 16.6 90.8406 16.776C91.6726 16.968 92.4326 17.184 93.1206 17.424C93.8246 17.648 94.3846 17.992 94.8006 18.456C95.2166 18.904 95.4246 19.552 95.4246 20.4C95.4406 21.136 95.2486 21.8 94.8486 22.392C94.4486 22.984 93.8726 23.448 93.1206 23.784C92.3686 24.12 91.4806 24.288 90.4566 24.288ZM103.93 24.288C102.73 24.288 101.666 24.032 100.738 23.52C99.8099 23.008 99.0819 22.288 98.5539 21.36C98.0259 20.432 97.7619 19.36 97.7619 18.144C97.7619 16.912 98.0179 15.816 98.5299 14.856C99.0579 13.896 99.7779 13.152 100.69 12.624C101.618 12.08 102.706 11.808 103.954 11.808C105.122 11.808 106.154 12.064 107.05 12.576C107.946 13.088 108.642 13.792 109.138 14.688C109.65 15.568 109.906 16.552 109.906 17.64C109.906 17.816 109.898 18 109.882 18.192C109.882 18.384 109.874 18.584 109.858 18.792H100.81C100.874 19.72 101.194 20.448 101.77 20.976C102.362 21.504 103.074 21.768 103.906 21.768C104.53 21.768 105.05 21.632 105.466 21.36C105.898 21.072 106.218 20.704 106.426 20.256H109.546C109.322 21.008 108.946 21.696 108.418 22.32C107.906 22.928 107.266 23.408 106.498 23.76C105.746 24.112 104.89 24.288 103.93 24.288ZM103.954 14.304C103.202 14.304 102.538 14.52 101.962 14.952C101.386 15.368 101.018 16.008 100.858 16.872H106.786C106.738 16.088 106.45 15.464 105.922 15C105.394 14.536 104.738 14.304 103.954 14.304ZM112.49 24V12.096H115.226L115.514 14.328C115.946 13.56 116.53 12.952 117.266 12.504C118.018 12.04 118.898 11.808 119.906 11.808V15.048H119.042C118.37 15.048 117.77 15.152 117.242 15.36C116.714 15.568 116.298 15.928 115.994 16.44C115.706 16.952 115.562 17.664 115.562 18.576V24H112.49ZM126.109 24.288C125.085 24.288 124.245 24.128 123.589 23.808C122.933 23.472 122.445 23.032 122.125 22.488C121.805 21.944 121.645 21.344 121.645 20.688C121.645 19.584 122.077 18.688 122.941 18C123.805 17.312 125.101 16.968 126.829 16.968H129.853V16.68C129.853 15.864 129.621 15.264 129.157 14.88C128.693 14.496 128.117 14.304 127.429 14.304C126.805 14.304 126.261 14.456 125.797 14.76C125.333 15.048 125.045 15.48 124.933 16.056H121.933C122.013 15.192 122.301 14.44 122.797 13.8C123.309 13.16 123.965 12.672 124.765 12.336C125.565 11.984 126.461 11.808 127.453 11.808C129.149 11.808 130.485 12.232 131.461 13.08C132.437 13.928 132.925 15.128 132.925 16.68V24H130.309L130.021 22.08C129.669 22.72 129.173 23.248 128.533 23.664C127.909 24.08 127.101 24.288 126.109 24.288ZM126.805 21.888C127.685 21.888 128.365 21.6 128.845 21.024C129.341 20.448 129.653 19.736 129.781 18.888H127.165C126.349 18.888 125.765 19.04 125.413 19.344C125.061 19.632 124.885 19.992 124.885 20.424C124.885 20.888 125.061 21.248 125.413 21.504C125.765 21.76 126.229 21.888 126.805 21.888ZM141.689 24.288C140.473 24.288 139.401 24.024 138.473 23.496C137.545 22.968 136.809 22.232 136.265 21.288C135.737 20.344 135.473 19.264 135.473 18.048C135.473 16.832 135.737 15.752 136.265 14.808C136.809 13.864 137.545 13.128 138.473 12.6C139.401 12.072 140.473 11.808 141.689 11.808C143.209 11.808 144.489 12.208 145.529 13.008C146.569 13.792 147.233 14.88 147.521 16.272H144.281C144.121 15.696 143.801 15.248 143.321 14.928C142.857 14.592 142.305 14.424 141.665 14.424C140.817 14.424 140.097 14.744 139.505 15.384C138.913 16.024 138.617 16.912 138.617 18.048C138.617 19.184 138.913 20.072 139.505 20.712C140.097 21.352 140.817 21.672 141.665 21.672C142.305 21.672 142.857 21.512 143.321 21.192C143.801 20.872 144.121 20.416 144.281 19.824H147.521C147.233 21.168 146.569 22.248 145.529 23.064C144.489 23.88 143.209 24.288 141.689 24.288ZM155.387 24C154.139 24 153.139 23.696 152.387 23.088C151.635 22.48 151.259 21.4 151.259 19.848V14.664H149.219V12.096H151.259L151.619 8.904H154.331V12.096H157.547V14.664H154.331V19.872C154.331 20.448 154.451 20.848 154.691 21.072C154.947 21.28 155.379 21.384 155.987 21.384H157.475V24H155.387ZM159.441 24L164.697 15.504L159.369 7.2H162.897L166.665 13.056L170.121 7.2H173.577L168.321 15.648L173.697 24H170.169L166.353 18.072L162.897 24H159.441Z" fill="#191820"/>
<path d="M49.56 47L45.352 35.8H46.808L50.344 45.576L53.912 35.8H55.336L51.128 47H49.56ZM57.6075 37.304C57.3408 37.304 57.1168 37.2187 56.9355 37.048C56.7648 36.8667 56.6795 36.6427 56.6795 36.376C56.6795 36.12 56.7648 35.9067 56.9355 35.736C57.1168 35.5653 57.3408 35.48 57.6075 35.48C57.8635 35.48 58.0822 35.5653 58.2635 35.736C58.4448 35.9067 58.5355 36.12 58.5355 36.376C58.5355 36.6427 58.4448 36.8667 58.2635 37.048C58.0822 37.2187 57.8635 37.304 57.6075 37.304ZM56.9355 47V39.064H58.2795V47H56.9355ZM64.1876 47.192C63.4303 47.192 62.7583 47.0213 62.1716 46.68C61.585 46.328 61.121 45.8427 60.7796 45.224C60.449 44.6053 60.2836 43.8747 60.2836 43.032C60.2836 42.2 60.449 41.4747 60.7796 40.856C61.1103 40.2267 61.569 39.7413 62.1556 39.4C62.753 39.048 63.441 38.872 64.2196 38.872C64.9876 38.872 65.649 39.048 66.2036 39.4C66.769 39.7413 67.201 40.1947 67.4996 40.76C67.7983 41.3253 67.9476 41.9333 67.9476 42.584C67.9476 42.7013 67.9423 42.8187 67.9316 42.936C67.9316 43.0533 67.9316 43.1867 67.9316 43.336H61.6116C61.6436 43.944 61.7823 44.4507 62.0276 44.856C62.2836 45.2507 62.5983 45.5493 62.9716 45.752C63.3556 45.9547 63.761 46.056 64.1876 46.056C64.7423 46.056 65.2063 45.928 65.5796 45.672C65.953 45.416 66.225 45.0693 66.3956 44.632H67.7236C67.5103 45.368 67.0996 45.9813 66.4916 46.472C65.8943 46.952 65.1263 47.192 64.1876 47.192ZM64.1876 40.008C63.5476 40.008 62.977 40.2053 62.4756 40.6C61.985 40.984 61.7023 41.5493 61.6276 42.296H66.6196C66.5876 41.5813 66.3423 41.0213 65.8836 40.616C65.425 40.2107 64.8596 40.008 64.1876 40.008ZM71.0165 47L68.6965 39.064H70.0405L71.7205 45.288L73.5765 39.064H75.0965L76.9685 45.288L78.6325 39.064H79.9925L77.6725 47H76.2965L74.3445 40.456L72.3925 47H71.0165ZM85.7934 47V35.8H89.4734C90.348 35.8 91.068 35.944 91.6334 36.232C92.1987 36.52 92.6147 36.9093 92.8814 37.4C93.1587 37.8907 93.2974 38.4453 93.2974 39.064C93.2974 39.672 93.164 40.2213 92.8974 40.712C92.6307 41.2027 92.2147 41.5973 91.6494 41.896C91.084 42.184 90.3587 42.328 89.4734 42.328H87.1374V47H85.7934ZM87.1374 41.192H89.4414C90.3374 41.192 90.972 41.0053 91.3454 40.632C91.7294 40.248 91.9214 39.7253 91.9214 39.064C91.9214 38.392 91.7294 37.8693 91.3454 37.496C90.972 37.112 90.3374 36.92 89.4414 36.92H87.1374V41.192ZM94.979 47V39.064H96.195L96.307 40.584C96.5523 40.0613 96.9257 39.6453 97.427 39.336C97.9283 39.0267 98.547 38.872 99.283 38.872V40.28H98.915C98.4457 40.28 98.0137 40.3653 97.619 40.536C97.2243 40.696 96.9097 40.9733 96.675 41.368C96.4403 41.7627 96.323 42.3067 96.323 43V47H94.979ZM104.111 47.192C103.364 47.192 102.692 47.0213 102.095 46.68C101.497 46.3387 101.023 45.8587 100.671 45.24C100.329 44.6107 100.159 43.8747 100.159 43.032C100.159 42.1893 100.335 41.4587 100.687 40.84C101.039 40.2107 101.513 39.7253 102.111 39.384C102.719 39.0427 103.396 38.872 104.143 38.872C104.889 38.872 105.561 39.0427 106.159 39.384C106.756 39.7253 107.225 40.2107 107.567 40.84C107.919 41.4587 108.095 42.1893 108.095 43.032C108.095 43.8747 107.919 44.6107 107.567 45.24C107.215 45.8587 106.735 46.3387 106.127 46.68C105.529 47.0213 104.857 47.192 104.111 47.192ZM104.111 46.04C104.569 46.04 104.996 45.928 105.391 45.704C105.785 45.48 106.105 45.144 106.351 44.696C106.596 44.248 106.719 43.6933 106.719 43.032C106.719 42.3707 106.596 41.816 106.351 41.368C106.116 40.92 105.801 40.584 105.407 40.36C105.012 40.136 104.591 40.024 104.143 40.024C103.684 40.024 103.257 40.136 102.863 40.36C102.468 40.584 102.148 40.92 101.903 41.368C101.657 41.816 101.535 42.3707 101.535 43.032C101.535 43.6933 101.657 44.248 101.903 44.696C102.148 45.144 102.463 45.48 102.847 45.704C103.241 45.928 103.663 46.04 104.111 46.04ZM110.395 47V40.2H109.195V39.064H110.395V37.688C110.395 36.92 110.587 36.36 110.971 36.008C111.355 35.656 111.915 35.48 112.651 35.48H113.451V36.632H112.859C112.454 36.632 112.166 36.7173 111.995 36.888C111.825 37.048 111.739 37.3253 111.739 37.72V39.064H116.667V47H115.323V40.2H111.739V47H110.395ZM116.011 37.544C115.755 37.544 115.537 37.4587 115.355 37.288C115.174 37.1067 115.083 36.8827 115.083 36.616C115.083 36.36 115.174 36.1467 115.355 35.976C115.537 35.8053 115.755 35.72 116.011 35.72C116.278 35.72 116.497 35.8053 116.667 35.976C116.849 36.1467 116.939 36.36 116.939 36.616C116.939 36.8827 116.849 37.1067 116.667 37.288C116.497 37.4587 116.278 37.544 116.011 37.544ZM119.042 47V35.48H120.386V47H119.042ZM126.156 47.192C125.399 47.192 124.727 47.0213 124.14 46.68C123.554 46.328 123.09 45.8427 122.748 45.224C122.418 44.6053 122.252 43.8747 122.252 43.032C122.252 42.2 122.418 41.4747 122.748 40.856C123.079 40.2267 123.538 39.7413 124.124 39.4C124.722 39.048 125.41 38.872 126.188 38.872C126.956 38.872 127.618 39.048 128.172 39.4C128.738 39.7413 129.17 40.1947 129.468 40.76C129.767 41.3253 129.916 41.9333 129.916 42.584C129.916 42.7013 129.911 42.8187 129.9 42.936C129.9 43.0533 129.9 43.1867 129.9 43.336H123.58C123.612 43.944 123.751 44.4507 123.996 44.856C124.252 45.2507 124.567 45.5493 124.94 45.752C125.324 45.9547 125.73 46.056 126.156 46.056C126.711 46.056 127.175 45.928 127.548 45.672C127.922 45.416 128.194 45.0693 128.364 44.632H129.692C129.479 45.368 129.068 45.9813 128.46 46.472C127.863 46.952 127.095 47.192 126.156 47.192ZM126.156 40.008C125.516 40.008 124.946 40.2053 124.444 40.6C123.954 40.984 123.671 41.5493 123.596 42.296H128.588C128.556 41.5813 128.311 41.0213 127.852 40.616C127.394 40.2107 126.828 40.008 126.156 40.008Z" fill="#565660"/>
<defs>
<linearGradient id="paint0_linear_613_25696" x1="23.3348" y1="25.8459" x2="32.994" y2="25.8459" gradientUnits="userSpaceOnUse">
<stop stop-color="#3FCCEF"/>
<stop offset="1" stop-color="#07A4CA"/>
</linearGradient>
<linearGradient id="paint1_linear_613_25696" x1="12.1858" y1="12.6268" x2="22.0844" y2="26.4118" gradientUnits="userSpaceOnUse">
<stop offset="0.1917" stop-color="#821FE2"/>
<stop offset="0.5742" stop-color="#FB4EF1"/>
</linearGradient>
<linearGradient id="paint2_linear_613_25696" x1="4.77399" y1="32.4048" x2="24.5713" y2="43.613" gradientUnits="userSpaceOnUse">
<stop stop-color="#7078F7"/>
<stop offset="0.0705" stop-color="#5D92F4"/>
<stop offset="0.1522" stop-color="#4DA8F1"/>
<stop offset="0.2487" stop-color="#41B9EF"/>
<stop offset="0.368" stop-color="#38C4ED"/>
<stop offset="0.5353" stop-color="#33CBEC"/>
<stop offset="1" stop-color="#32CDEC"/>
</linearGradient>
<linearGradient id="paint3_linear_613_25696" x1="30.868" y1="18.2503" x2="31.3344" y2="31.6313" gradientUnits="userSpaceOnUse">
<stop stop-color="#063079"/>
<stop offset="1" stop-color="#07A4CA"/>
</linearGradient>
<linearGradient id="paint4_linear_613_25696" x1="34.0011" y1="19.5398" x2="32.9876" y2="31.5865" gradientUnits="userSpaceOnUse">
<stop stop-color="#1237A1"/>
<stop offset="1" stop-color="#2BD7EF"/>
</linearGradient>
<linearGradient id="paint5_linear_613_25696" x1="20.6546" y1="17.084" x2="40.9653" y2="17.084" gradientUnits="userSpaceOnUse">
<stop offset="0.0123" stop-color="#945CD9"/>
<stop offset="1" stop-color="#30BDE4"/>
</linearGradient>
<linearGradient id="paint6_linear_613_25696" x1="21.2769" y1="36.5315" x2="40.3265" y2="29.3961" gradientUnits="userSpaceOnUse">
<stop offset="0.2382" stop-color="#945CD9"/>
<stop offset="1" stop-color="#3898CA"/>
</linearGradient>
<linearGradient id="paint7_linear_613_25696" x1="12.7665" y1="28.9557" x2="21.2438" y2="37.3561" gradientUnits="userSpaceOnUse">
<stop stop-color="#66B3F9"/>
<stop offset="1" stop-color="#79F2FA"/>
</linearGradient>
<linearGradient id="paint8_linear_613_25696" x1="6.40466" y1="33.622" x2="26.2045" y2="33.622" gradientUnits="userSpaceOnUse">
<stop stop-color="#7078F7"/>
<stop offset="0.0519" stop-color="#5E89F4"/>
<stop offset="0.1351" stop-color="#489EF1"/>
<stop offset="0.2335" stop-color="#37AEEF"/>
<stop offset="0.3553" stop-color="#2CBAED"/>
<stop offset="0.526" stop-color="#25C0EC"/>
<stop offset="1" stop-color="#23C2EC"/>
</linearGradient>
<linearGradient id="paint9_linear_613_25696" x1="1.32848" y1="40.93" x2="12.2213" y2="23.4164" gradientUnits="userSpaceOnUse">
<stop stop-color="#18A0DD"/>
<stop offset="1" stop-color="#9540C2"/>
</linearGradient>
<linearGradient id="paint10_linear_613_25696" x1="20.2188" y1="47.3753" x2="21.0239" y2="36.3678" gradientUnits="userSpaceOnUse">
<stop stop-color="#3353B7"/>
<stop offset="1" stop-color="#9540C2"/>
</linearGradient>
</defs>
</svg>
