<svg width="36" height="32" viewBox="0 0 36 32" fill="none" xmlns="http://www.w3.org/2000/svg">
<path d="M11.4992 2.74711L20.4282 7.90239C21.1337 8.30893 22.0337 8.06736 22.4387 7.3633C22.8467 6.65924 22.6052 5.7578 21.9011 5.35274L12.9721 0.197457C12.2666 -0.209074 11.3666 0.0324878 10.9601 0.735079C10.5536 1.43767 10.7951 2.33911 11.4992 2.74711ZM17.1155 13.6424C18.5391 11.1768 17.6943 8.02391 15.2287 6.60032C12.763 5.17673 9.61016 6.02149 8.18656 8.48715C6.76297 10.9528 7.60774 14.1057 10.0734 15.5293C12.5391 16.9529 15.6919 16.1081 17.1155 13.6424ZM3.39804 16.7783L12.327 21.9336C13.0311 22.3401 13.9325 22.0986 14.3376 21.3945C14.7426 20.6904 14.5025 19.789 13.7999 19.3839L4.87098 14.2287C4.16544 13.8221 3.26548 14.0637 2.85895 14.7663C2.45094 15.4703 2.69398 16.3718 3.39804 16.7783ZM34.1662 20.9349L19.1559 13.0517C18.4275 12.6691 17.5269 12.9298 17.1155 13.6424C16.7041 14.355 16.9286 15.2653 17.6242 15.7048L31.9568 24.7616C33.0129 25.3714 34.3651 25.0106 34.9749 23.953C35.5847 22.8954 35.2223 21.5447 34.1662 20.9349ZM17.9949 28.3718C17.9949 27.5573 17.335 26.8989 16.5219 26.8989H3.26548C2.45094 26.8989 1.79254 27.5573 1.79254 28.3718C1.79254 28.6351 1.79254 28.8824 1.79254 29.0963C1.79254 29.5073 1.45495 29.8379 1.04407 29.8295C0.623854 29.821 0.282582 30.1723 0.296159 30.5924C0.309132 30.9937 0.638419 31.3177 1.03998 31.3177H18.781C19.1656 31.3177 19.4826 31.0159 19.5015 30.6317C19.5211 30.232 19.2116 29.8927 18.8117 29.8757L18.7438 29.8728C18.3636 29.8565 18.0502 29.5709 18.024 29.1913C18.0078 28.9569 17.9949 28.675 17.9949 28.3718Z" fill="url(#paint0_linear_1_9754)"/>
<path d="M11.4992 2.74711L20.4282 7.90239C21.1337 8.30893 22.0337 8.06736 22.4387 7.3633C22.8467 6.65924 22.6052 5.7578 21.9011 5.35274L12.9721 0.197457C12.2666 -0.209074 11.3666 0.0324878 10.9601 0.735079C10.5536 1.43767 10.7951 2.33911 11.4992 2.74711ZM17.1155 13.6424C18.5391 11.1768 17.6943 8.02391 15.2287 6.60032C12.763 5.17673 9.61016 6.02149 8.18656 8.48715C6.76297 10.9528 7.60774 14.1057 10.0734 15.5293C12.5391 16.9529 15.6919 16.1081 17.1155 13.6424ZM3.39804 16.7783L12.327 21.9336C13.0311 22.3401 13.9325 22.0986 14.3376 21.3945C14.7426 20.6904 14.5025 19.789 13.7999 19.3839L4.87098 14.2287C4.16544 13.8221 3.26548 14.0637 2.85895 14.7663C2.45094 15.4703 2.69398 16.3718 3.39804 16.7783ZM34.1662 20.9349L19.1559 13.0517C18.4275 12.6691 17.5269 12.9298 17.1155 13.6424C16.7041 14.355 16.9286 15.2653 17.6242 15.7048L31.9568 24.7616C33.0129 25.3714 34.3651 25.0106 34.9749 23.953C35.5847 22.8954 35.2223 21.5447 34.1662 20.9349ZM17.9949 28.3718C17.9949 27.5573 17.335 26.8989 16.5219 26.8989H3.26548C2.45094 26.8989 1.79254 27.5573 1.79254 28.3718C1.79254 28.6351 1.79254 28.8824 1.79254 29.0963C1.79254 29.5073 1.45495 29.8379 1.04407 29.8295C0.623854 29.821 0.282582 30.1723 0.296159 30.5924C0.309132 30.9937 0.638419 31.3177 1.03998 31.3177H18.781C19.1656 31.3177 19.4826 31.0159 19.5015 30.6317C19.5211 30.232 19.2116 29.8927 18.8117 29.8757L18.7438 29.8728C18.3636 29.8565 18.0502 29.5709 18.024 29.1913C18.0078 28.9569 17.9949 28.675 17.9949 28.3718Z" fill="url(#paint1_linear_1_9754)"/>
<defs>
<linearGradient id="paint0_linear_1_9754" x1="8.37285" y1="7.24946" x2="23.2233" y2="28.8563" gradientUnits="userSpaceOnUse">
<stop stop-color="#FF8DB6"/>
<stop offset="1" stop-color="#FFB7D7"/>
</linearGradient>
<linearGradient id="paint1_linear_1_9754" x1="17.771" y1="0" x2="17.771" y2="31.3177" gradientUnits="userSpaceOnUse">
<stop stop-color="#2BD7EF"/>
<stop offset="1" stop-color="#FB4EF1"/>
</linearGradient>
</defs>
</svg>
