<svg xmlns="http://www.w3.org/2000/svg" fill="none" viewBox="0 0 96 65"><path fill="#565660" d="M77.438 24.905C74.624 11.218 62.624.718 48 .718 36.375.718 26.437 7.28 21.375 17.03 9.375 18.155 0 28.468 0 40.843c0 13.125 10.688 24 24 24h51.938C87 64.843 96 55.843 96 44.78c0-10.5-8.25-19.125-18.563-19.875Zm-1.5 31.875H24c-8.813 0-15.938-7.125-15.938-15.937 0-8.25 6-15.188 14.25-15.938l4.125-.375 2.063-3.937C32.25 13.28 39.75 8.78 48 8.78c10.5 0 19.5 7.5 21.563 17.813l1.124 6 6.188.375c6.188.375 11.063 5.625 11.063 11.812 0 6.563-5.25 12-12 12ZM32.062 36.718h10.126v12h11.624v-12h10.126L48 20.78 32.062 36.718Z" opacity=".4"/></svg>