<svg width="20" height="19" viewBox="0 0 20 19" fill="none" xmlns="http://www.w3.org/2000/svg">
<path fill-rule="evenodd" clip-rule="evenodd" d="M6.9507 2.476C7.82416 2.13232 8.84788 3.10287 9.78652 3.10287C10.7252 3.10287 11.7489 2.13232 12.6223 2.476C12.7097 2.51036 12.7962 2.54626 12.882 2.58367C13.742 2.95887 13.7801 4.36819 14.4435 5.03167C15.107 5.69515 16.5164 5.73321 16.8916 6.59324C16.9291 6.67924 16.9652 6.76605 16.9996 6.85365C17.3432 7.72698 16.3731 8.75038 16.3731 9.68886C16.3731 10.6273 17.3432 11.6507 16.9996 12.5241C16.9652 12.6116 16.9292 12.6983 16.8917 12.7843C16.5165 13.6443 15.1072 13.6824 14.4437 14.3459C13.7802 15.0094 13.7421 16.4188 12.8821 16.794C12.7963 16.8314 12.7097 16.8673 12.6223 16.9017C11.7489 17.2454 10.7252 16.2749 9.78652 16.2749C8.84788 16.2749 7.82416 17.2454 6.9507 16.9017C6.8635 16.8674 6.77706 16.8316 6.69143 16.7942C5.83142 16.4191 5.79326 15.0098 5.1298 14.3463C4.46628 13.6828 3.05681 13.6448 2.68153 12.7848C2.64405 12.6989 2.60808 12.6122 2.57366 12.5247C2.22998 11.6512 3.20053 10.6275 3.20053 9.68886C3.20053 8.75021 2.22998 7.7265 2.57366 6.85304C2.60801 6.76575 2.6439 6.67923 2.68129 6.59352C3.05654 5.73335 4.46635 5.69542 5.12993 5.03184C5.79348 4.36829 5.83151 2.95859 6.69165 2.58342C6.77721 2.5461 6.86357 2.51029 6.9507 2.476Z" fill="#3749E9"/>
<path fill-rule="evenodd" clip-rule="evenodd" d="M13.5149 7.50038C13.6084 7.58756 13.6609 7.70579 13.6609 7.82907C13.6609 7.95235 13.6084 8.07058 13.5149 8.15777L9.52657 11.8771C9.43308 11.9642 9.3063 12.0132 9.1741 12.0132C9.04191 12.0132 8.91512 11.9642 8.82163 11.8771L6.82745 10.0174C6.73663 9.92974 6.68638 9.8123 6.68752 9.6904C6.68865 9.5685 6.74109 9.45189 6.83352 9.3657C6.92596 9.2795 7.051 9.2306 7.18171 9.22954C7.31243 9.22848 7.43836 9.27534 7.53239 9.36003L9.1741 10.891L12.81 7.50038C12.9035 7.41322 13.0303 7.36426 13.1625 7.36426C13.2947 7.36426 13.4214 7.41322 13.5149 7.50038Z" fill="#191820"/>
</svg>
