<svg width="74" height="74" viewBox="0 0 74 74" fill="none" xmlns="http://www.w3.org/2000/svg">
<path d="M68.6332 36.6668C68.6332 54.1375 54.4704 68.3001 36.9999 68.3001C19.5293 68.3001 5.36652 54.1375 5.36652 36.6668C5.36652 19.1962 19.5293 5.03345 36.9999 5.03345C54.4704 5.03345 68.6332 19.1962 68.6332 36.6668Z" fill="#0052FF"/>
<path d="M37.0071 25.5456C30.8626 25.5456 25.8859 30.5224 25.8859 36.6667C25.8859 42.8111 30.8626 47.7878 37.0071 47.7878C42.5119 47.7878 47.0809 43.7749 47.9614 38.5202H59.1658C58.2205 49.9379 48.6656 58.9089 37.0071 58.9089C24.7274 58.9089 14.7648 48.9463 14.7648 36.6667C14.7648 24.3871 24.7274 14.4246 37.0071 14.4246C48.6656 14.4246 58.2205 23.3955 59.1658 34.8132H47.952C47.0717 29.5585 42.5119 25.5456 37.0071 25.5456Z" fill="white"/>
</svg>
