<svg width="74" height="74" viewBox="0 0 74 74" fill="none" xmlns="http://www.w3.org/2000/svg">
<path fill-rule="evenodd" clip-rule="evenodd" d="M22.9062 60.9061L31.4871 63.1828V60.2056L32.1876 59.5051H37.0909V63.0075V65.4591H31.8374L25.3578 62.6572L22.9062 60.9061Z" fill="#CDBDB2"/>
<path fill-rule="evenodd" clip-rule="evenodd" d="M50.9304 60.9061L42.5248 63.1828V60.2056L41.8243 59.5051H36.921V63.0075V65.4591H42.1745L48.6537 62.6572L50.9304 60.9061Z" fill="#CDBDB2"/>
<path fill-rule="evenodd" clip-rule="evenodd" d="M32.2004 54.4248L31.4999 60.2036L32.3754 59.5031H41.4815L42.5322 60.2036L41.8317 54.4248L40.4308 53.5491L33.4261 53.7243L32.2004 54.4248Z" fill="#393939"/>
<path fill-rule="evenodd" clip-rule="evenodd" d="M27.4652 15.3711L31.668 25.1777L33.5945 53.7221H40.4239L42.5253 25.1777L46.3779 15.3711H27.4652Z" fill="#F89C35"/>
<path fill-rule="evenodd" clip-rule="evenodd" d="M9.08229 36.9154L4.17899 51.0998L16.4372 50.3993H24.3174V44.2704L23.9672 31.6619L22.216 33.0628L9.08229 36.9154Z" fill="#F89D35"/>
<path fill-rule="evenodd" clip-rule="evenodd" d="M18.3629 38.4915L32.7226 38.8417L31.1467 46.1967L24.317 44.4455L18.3629 38.4915Z" fill="#D87C30"/>
<path fill-rule="evenodd" clip-rule="evenodd" d="M18.3629 38.6638L24.317 44.2676V49.8714L18.3629 38.6638Z" fill="#EA8D3A"/>
<path fill-rule="evenodd" clip-rule="evenodd" d="M24.3113 44.4402L31.316 46.1914L33.5927 53.7216L32.0165 54.597L24.3113 50.044V44.4402Z" fill="#F89D35"/>
<path fill-rule="evenodd" clip-rule="evenodd" d="M24.3071 50.0452L22.9062 60.9025L32.1876 54.4233L24.3071 50.0452Z" fill="#EB8F35"/>
<path fill-rule="evenodd" clip-rule="evenodd" d="M32.7126 38.8357L33.5883 53.7209L30.9614 46.1032L32.7126 38.8357Z" fill="#EA8E3A"/>
<path fill-rule="evenodd" clip-rule="evenodd" d="M16.2561 50.2204L24.3115 50.0452L22.9106 60.9025L16.2561 50.2204Z" fill="#D87C30"/>
<path fill-rule="evenodd" clip-rule="evenodd" d="M8.03158 65.6347L22.9164 60.9064L16.262 50.2244L4.17899 51.0998L8.03158 65.6347Z" fill="#EB8F35"/>
<path fill-rule="evenodd" clip-rule="evenodd" d="M31.6719 25.1826L24.142 31.4869L18.3629 38.4916L32.7226 39.0171L31.6719 25.1826Z" fill="#E8821E"/>
<path fill-rule="evenodd" clip-rule="evenodd" d="M22.9062 60.9028L32.1876 54.4236L31.4871 60.0274V63.1795L25.1829 61.9535L22.9062 60.9028Z" fill="#DFCEC3"/>
<path fill-rule="evenodd" clip-rule="evenodd" d="M50.9304 60.9028L41.8243 54.4236L42.5248 60.0274V63.1795L48.829 61.9535L50.9304 60.9028Z" fill="#DFCEC3"/>
<path fill-rule="evenodd" clip-rule="evenodd" d="M28.8717 41.9893L30.7981 46.0171L23.9684 44.266L28.8717 41.9893Z" fill="#393939"/>
<path fill-rule="evenodd" clip-rule="evenodd" d="M7.85568 7.14282L31.6717 25.1798L27.6442 15.3732L7.85568 7.14282Z" fill="#E88F35"/>
<path fill-rule="evenodd" clip-rule="evenodd" d="M7.85387 7.14282L4.70175 16.7743L6.45293 27.2814L5.22711 27.9818L6.97828 29.5579L5.57734 30.7837L7.50364 32.5349L6.27781 33.5856L9.0797 37.088L22.2135 33.0603C28.6345 27.9235 31.7866 25.2967 31.6699 25.18C31.5532 25.0632 23.6145 19.0508 7.85387 7.14282Z" fill="#8E5A30"/>
<path fill-rule="evenodd" clip-rule="evenodd" d="M64.7688 36.9144L69.6721 51.0988L57.4138 50.3984H49.5336V44.2694L49.8839 31.6609L51.6351 33.0618L64.7688 36.9144Z" fill="#F89D35"/>
<path fill-rule="evenodd" clip-rule="evenodd" d="M55.4881 38.491L41.1284 38.8412L42.7043 46.1962L49.5341 44.445L55.4881 38.491Z" fill="#D87C30"/>
<path fill-rule="evenodd" clip-rule="evenodd" d="M55.4881 38.6628L49.5341 44.2666V49.8704L55.4881 38.6628Z" fill="#EA8D3A"/>
<path fill-rule="evenodd" clip-rule="evenodd" d="M49.5412 44.4395L42.5365 46.1906L40.2598 53.7209L41.836 54.5963L49.5412 50.0432V44.4395Z" fill="#F89D35"/>
<path fill-rule="evenodd" clip-rule="evenodd" d="M49.5282 50.0439L50.9291 60.9013L41.823 54.597L49.5282 50.0439Z" fill="#EB8F35"/>
<path fill-rule="evenodd" clip-rule="evenodd" d="M41.1227 38.8394L40.247 53.7245L42.8739 46.1068L41.1227 38.8394Z" fill="#EA8E3A"/>
<path fill-rule="evenodd" clip-rule="evenodd" d="M57.5893 50.2192L49.5338 50.0439L50.9348 60.9013L57.5893 50.2192Z" fill="#D87C30"/>
<path fill-rule="evenodd" clip-rule="evenodd" d="M65.8195 65.6337L50.9346 60.9054L57.5891 50.2234L69.6721 51.0988L65.8195 65.6337Z" fill="#EB8F35"/>
<path fill-rule="evenodd" clip-rule="evenodd" d="M42.1791 25.1819L49.709 31.4861L55.4881 38.4908L41.1284 39.0164L42.1791 25.1819Z" fill="#E8821E"/>
<path fill-rule="evenodd" clip-rule="evenodd" d="M44.9808 41.9883L43.0544 46.0161L49.8841 44.265L44.9808 41.9883Z" fill="#393939"/>
<path fill-rule="evenodd" clip-rule="evenodd" d="M65.9954 7.14258L42.1793 25.1796L46.2069 15.373L65.9954 7.14258Z" fill="#E88F35"/>
<path fill-rule="evenodd" clip-rule="evenodd" d="M65.9957 7.14258L69.1479 16.7741L67.3967 27.2811L68.6225 27.9816L66.8713 29.5577L68.2723 30.7835L66.346 32.5347L67.5718 33.5854L64.7699 37.0878L51.6361 33.06C45.2151 27.9232 42.063 25.2965 42.1797 25.1797C42.2965 25.063 50.2351 19.0506 65.9957 7.14258Z" fill="#8E5A30"/>
</svg>
