<svg width="74" height="74" viewBox="0 0 74 74" fill="none" xmlns="http://www.w3.org/2000/svg">
<path d="M15.4445 22.3455C27.3492 10.6182 46.6506 10.6182 58.5553 22.3455L59.9881 23.7569C60.5833 24.3433 60.5833 25.294 59.9881 25.8803L55.0869 30.7084C54.7893 31.0016 54.3068 31.0016 54.0092 30.7084L52.0375 28.7662C43.7325 20.5849 30.2674 20.5849 21.9623 28.7662L19.8509 30.8462C19.5532 31.1394 19.0707 31.1394 18.7731 30.8462L13.8719 26.0181C13.2767 25.4317 13.2767 24.481 13.8719 23.8947L15.4445 22.3455ZM68.6914 32.3306L73.0535 36.6276C73.6487 37.214 73.6487 38.1647 73.0535 38.751L53.3847 58.1269C52.7895 58.7133 51.8244 58.7133 51.2291 58.1269C51.2291 58.1269 51.2291 58.1269 51.2291 58.1269L37.2695 44.3753C37.1206 44.2287 36.8794 44.2287 36.7306 44.3753C36.7306 44.3753 36.7306 44.3753 36.7306 44.3753L22.7712 58.1269C22.1759 58.7133 21.2109 58.7133 20.6156 58.127C20.6156 58.1269 20.6156 58.1269 20.6156 58.1269L0.946305 38.7508C0.351069 38.1644 0.351069 37.2137 0.946305 36.6274L5.30836 32.3303C5.90359 31.744 6.86866 31.744 7.4639 32.3303L21.4238 46.0822C21.5726 46.2288 21.8139 46.2288 21.9627 46.0822C21.9627 46.0822 21.9627 46.0822 21.9627 46.0822L35.9219 32.3303C36.5171 31.7439 37.4822 31.7439 38.0774 32.3303C38.0774 32.3303 38.0774 32.3303 38.0774 32.3303L52.0373 46.0822C52.1861 46.2287 52.4274 46.2287 52.5762 46.0822L66.5359 32.3306C67.1311 31.7442 68.0962 31.7442 68.6914 32.3306Z" fill="#3B99FC"/>
</svg>
