<svg width="20" height="17" viewBox="0 0 20 17" fill="none" xmlns="http://www.w3.org/2000/svg">
<path d="M18.2389 3.25H3.23889C3.03998 3.25 2.84921 3.17098 2.70856 3.03033C2.56791 2.88968 2.48889 2.69891 2.48889 2.5C2.48889 2.30109 2.56791 2.11032 2.70856 1.96967C2.84921 1.82902 3.03998 1.75 3.23889 1.75H15.9889C16.1878 1.75 16.3786 1.67098 16.5192 1.53033C16.6599 1.38968 16.7389 1.19891 16.7389 1C16.7389 0.801088 16.6599 0.610322 16.5192 0.46967C16.3786 0.329018 16.1878 0.25 15.9889 0.25H3.23889C2.64215 0.25 2.06986 0.487053 1.6479 0.90901C1.22594 1.33097 0.988892 1.90326 0.988892 2.5V14.5C0.988892 15.0967 1.22594 15.669 1.6479 16.091C2.06986 16.5129 2.64215 16.75 3.23889 16.75H18.2389C18.6367 16.75 19.0182 16.592 19.2996 16.3107C19.5809 16.0294 19.7389 15.6478 19.7389 15.25V4.75C19.7389 4.35218 19.5809 3.97064 19.2996 3.68934C19.0182 3.40804 18.6367 3.25 18.2389 3.25ZM14.8639 10.75C14.6414 10.75 14.4239 10.684 14.2389 10.5604C14.0539 10.4368 13.9097 10.2611 13.8245 10.0555C13.7394 9.84995 13.7171 9.62375 13.7605 9.40552C13.8039 9.18729 13.9111 8.98684 14.0684 8.82951C14.2257 8.67217 14.4262 8.56502 14.6444 8.52162C14.8626 8.47821 15.0888 8.50049 15.2944 8.58564C15.5 8.67078 15.6757 8.81498 15.7993 8.99998C15.9229 9.18499 15.9889 9.4025 15.9889 9.625C15.9889 9.92337 15.8704 10.2095 15.6594 10.4205C15.4484 10.6315 15.1623 10.75 14.8639 10.75Z" fill="#191820"/>
</svg>
