<svg width="23" height="20" viewBox="0 0 23 20" fill="none" xmlns="http://www.w3.org/2000/svg">
<path d="M22.3215 9.601L11.9773 1.05575C11.5447 0.700621 10.9599 0.5009 10.35 0.5H2.3C1.02925 0.5 0 1.35025 0 2.4V9.05C0 9.57725 0.25875 10.0522 0.6785 10.3942L11.0285 18.9443C11.4425 19.2863 12.0175 19.5 12.65 19.5C13.2825 19.5 13.8632 19.2863 14.2772 18.9443L22.3273 12.2943C22.7413 11.9475 23 11.4725 23 10.95C23 10.4228 22.7412 9.94775 22.3215 9.601ZM4.025 5.25C3.0705 5.25 2.3 4.6135 2.3 3.825C2.3 3.0365 3.0705 2.4 4.025 2.4C4.9795 2.4 5.75 3.0365 5.75 3.825C5.75 4.6135 4.9795 5.25 4.025 5.25Z" fill="#F51FC6"/>
</svg>
