<svg width="21" height="21" viewBox="0 0 21 21" fill="none" xmlns="http://www.w3.org/2000/svg">
    <path
        d="M10.8538 17.7809L9.64551 16.6976C8.24273 15.4337 7.08301 14.3434 6.16634 13.4268C5.24967 12.5101 4.52051 11.687 3.97884 10.9576C3.43717 10.2287 3.05884 9.5587 2.84384 8.94759C2.62884 8.33648 2.52106 7.71148 2.52051 7.07259C2.52051 5.76704 2.95801 4.67676 3.83301 3.80176C4.70801 2.92676 5.79829 2.48926 7.10384 2.48926C7.82606 2.48926 8.51356 2.64204 9.16634 2.94759C9.81912 3.25315 10.3816 3.6837 10.8538 4.23926C11.3261 3.6837 11.8886 3.25315 12.5413 2.94759C13.1941 2.64204 13.8816 2.48926 14.6038 2.48926C15.9094 2.48926 16.9997 2.92676 17.8747 3.80176C18.7497 4.67676 19.1872 5.76704 19.1872 7.07259C19.1872 7.71148 19.0794 8.33648 18.8638 8.94759C18.6483 9.5587 18.27 10.2287 17.7288 10.9576C17.1872 11.687 16.458 12.5101 15.5413 13.4268C14.6247 14.3434 13.465 15.4337 12.0622 16.6976L10.8538 17.7809Z"
        fill="black" />
</svg>