<svg width="21" height="21" viewBox="0 0 21 21" fill="none" xmlns="http://www.w3.org/2000/svg">
    <g clip-path="url(#clip0_577_5620)">
        <path
            d="M2.5922 9.14533C2.39869 9.3388 2.24518 9.56848 2.14045 9.82128C2.03572 10.0741 1.98181 10.345 1.98181 10.6187C1.98181 10.8923 2.03572 11.1633 2.14045 11.416C2.24518 11.6688 2.39869 11.8985 2.5922 12.092L4.9497 14.4487C5.28815 14.7871 5.73281 14.9987 6.20892 15.0478C6.68503 15.097 7.16354 14.9807 7.56399 14.7185C7.96444 14.4564 8.2624 14.0643 8.40777 13.6083C8.55313 13.1522 8.53704 12.6601 8.3622 12.2145L9.02137 11.5553L14.3605 17.7153C14.5699 17.9567 14.8268 18.1523 15.1151 18.2901C15.4034 18.4279 15.7169 18.5048 16.0363 18.5161C16.3556 18.5275 16.6738 18.4729 16.9711 18.3559C17.2685 18.2388 17.5385 18.0618 17.7644 17.8359C17.9904 17.61 18.1674 17.3399 18.2844 17.0426C18.4014 16.7453 18.456 16.427 18.4447 16.1077C18.4334 15.7884 18.3564 15.4748 18.2187 15.1865C18.0809 14.8982 17.8852 14.6414 17.6439 14.432L11.4839 9.09283L12.143 8.4345C12.5887 8.60977 13.0812 8.62612 13.5376 8.48079C13.9939 8.33547 14.3863 8.03735 14.6486 7.63663C14.9109 7.23591 15.0271 6.75705 14.9776 6.28068C14.9282 5.8043 14.7162 5.35951 14.3772 5.02117L12.0205 2.66367C11.6821 2.32522 11.2374 2.11363 10.7613 2.06448C10.2852 2.01533 9.80669 2.13163 9.40625 2.3938C9.0058 2.65597 8.70784 3.04804 8.56247 3.50407C8.4171 3.9601 8.43319 4.45227 8.60803 4.89783L4.8272 8.67867C4.44967 8.53046 4.03709 8.49567 3.64008 8.57856C3.24306 8.66146 2.87888 8.85844 2.5922 9.14533Z"
            fill="black" />
    </g>
    <defs>
        <clipPath id="clip0_577_5620">
            <rect width="20" height="20" fill="white" transform="translate(0.353882 0.427002)" />
        </clipPath>
    </defs>
</svg>