<svg width="21" height="21" viewBox="0 0 21 21" fill="none" xmlns="http://www.w3.org/2000/svg">
    <g clip-path="url(#clip0_577_5648)">
        <path
            d="M17.5609 9.93627L8.81087 19.3113C8.71814 19.4102 8.59574 19.4763 8.46215 19.4996C8.32855 19.5229 8.191 19.5021 8.07026 19.4404C7.94952 19.3787 7.85213 19.2793 7.7928 19.1574C7.73346 19.0354 7.7154 18.8975 7.74133 18.7644L8.88665 13.0355L4.3843 11.3449C4.28761 11.3087 4.20138 11.2491 4.13332 11.1715C4.06526 11.0939 4.01749 11.0006 3.99428 10.9C3.97106 10.7994 3.97313 10.6946 4.00029 10.595C4.02745 10.4954 4.07886 10.4041 4.14993 10.3292L12.8999 0.954242C12.9927 0.855286 13.115 0.789173 13.2486 0.765881C13.3822 0.742588 13.5198 0.76338 13.6405 0.825118C13.7613 0.886857 13.8587 0.986192 13.918 1.10813C13.9773 1.23008 13.9954 1.36801 13.9695 1.50112L12.821 7.23627L17.3234 8.92455C17.4193 8.96097 17.5049 9.02046 17.5724 9.09778C17.6399 9.1751 17.6874 9.26786 17.7106 9.36787C17.7337 9.46787 17.7319 9.57205 17.7052 9.67118C17.6786 9.77032 17.6279 9.86137 17.5577 9.93627H17.5609Z"
            fill="black" />
    </g>
    <defs>
        <clipPath id="clip0_577_5648">
            <rect width="20" height="20" fill="white" transform="translate(0.853882 0.134766)" />
        </clipPath>
    </defs>
</svg>