<svg width="21" height="21" viewBox="0 0 21 21" fill="none" xmlns="http://www.w3.org/2000/svg">
    <path fill-rule="evenodd" clip-rule="evenodd"
        d="M8.35393 7.09367C8.35393 6.43063 8.61732 5.79474 9.08616 5.3259C9.555 4.85706 10.1909 4.59367 10.8539 4.59367C11.517 4.59367 12.1529 4.85706 12.6217 5.3259C13.0905 5.79474 13.3539 6.43063 13.3539 7.09367H8.35393ZM6.68726 7.09367C6.68726 5.9886 7.12625 4.92879 7.90765 4.14739C8.68905 3.36599 9.74886 2.927 10.8539 2.927C11.959 2.927 13.0188 3.36599 13.8002 4.14739C14.5816 4.92879 15.0206 5.9886 15.0206 7.09367H17.5206C17.6364 7.09366 17.7509 7.11777 17.8568 7.16447C17.9627 7.21116 18.0577 7.27941 18.1358 7.36487C18.2139 7.45033 18.2733 7.55112 18.3103 7.66081C18.3473 7.77051 18.361 7.88671 18.3506 8.002L17.6548 15.6537C17.5982 16.2748 17.3115 16.8524 16.851 17.273C16.3904 17.6936 15.7893 17.9269 15.1656 17.927H6.54226C5.91855 17.9269 5.31742 17.6936 4.85688 17.273C4.39633 16.8524 4.10965 16.2748 4.0531 15.6537L3.35726 8.002C3.34685 7.88671 3.36056 7.77051 3.39754 7.66081C3.43452 7.55112 3.49394 7.45033 3.57203 7.36487C3.65012 7.27941 3.74516 7.21116 3.85108 7.16447C3.95701 7.11777 4.0715 7.09366 4.18726 7.09367H6.68726Z"
        fill="black" />
</svg>