<svg width="197" height="41" viewBox="0 0 197 41" fill="none" xmlns="http://www.w3.org/2000/svg">
<g clip-path="url(#clip0_1_40)">
<path fill-rule="evenodd" clip-rule="evenodd" d="M27.4454 0.111907L16.7863 0.0559537L6.18304 0C6.18304 3.32924 3.46929 6.043 0.140044 6.043C0.112067 6.043 0.112067 6.043 0.0840904 6.043L0.000160154 19.5838C-0.0278167 27.9209 3.60917 32.4252 11.2468 37.1532V33.9639C9.12061 32.593 7.38604 31.2221 6.04316 29.6834C3.6931 27.0256 2.57403 23.9482 2.60201 19.6397L2.65796 8.19721H2.71391C5.53957 8.19721 7.83367 5.90311 7.83367 3.10543L16.8142 3.16138L25.8228 3.21734C25.8787 5.98704 28.1169 8.19721 30.8866 8.22519L30.8027 19.8076C30.7747 28.0048 26.5502 31.7817 17.7375 36.4818V39.5872C22.8293 36.8735 26.6341 34.4395 29.208 31.5579C31.9777 28.4524 33.3485 24.8155 33.3765 19.7796L33.4325 6.07097C30.1592 6.01502 27.5294 3.3852 27.4454 0.111907Z" fill="url(#paint0_linear_1_40)"/>
<path fill-rule="evenodd" clip-rule="evenodd" d="M16.3663 22.6894C15.499 22.6894 13.8484 22.7734 12.2817 23.0811C12.0019 23.1371 11.7781 23.4168 11.7781 23.6966C11.8061 25.0675 11.918 29.0122 11.9459 34.4397C11.9459 35.4469 11.9459 36.51 11.9459 37.6011C13.3448 38.4404 16.8139 40.175 16.9258 40.091C16.9538 38.9999 16.9818 37.8529 17.0097 36.8457C17.1496 29.6836 17.0377 24.8716 16.9818 23.249C16.9818 22.9412 16.702 22.6615 16.3663 22.6894Z" fill="url(#paint1_linear_1_40)"/>
<path fill-rule="evenodd" clip-rule="evenodd" d="M16.1431 7.35776C15.5556 7.21787 13.821 7.49764 13.1496 7.6655C12.4781 7.83336 12.0305 8.28099 11.9186 9.14827C11.8347 9.90365 11.8626 18.7723 11.8626 21.0384C12.674 20.9265 13.4853 20.8426 14.2686 20.7587C15.1079 20.6747 15.9472 20.6188 16.7866 20.5628C16.7586 20.1711 16.6746 19.8354 16.5348 19.7235C16.3389 19.5557 16.3949 19.4158 16.8705 18.8283C17.3181 18.2407 17.0104 17.3455 16.5627 16.8699C16.1431 16.3663 16.3389 16.1705 16.7026 15.7788C17.0663 15.4151 16.9824 14.324 16.6187 13.8484C16.255 13.3728 16.4508 13.1769 16.7026 12.8132C16.9544 12.4495 17.0104 11.5823 16.6467 10.9108C16.283 10.2394 16.5068 10.1834 16.9264 9.26018C17.3461 8.3929 16.7306 7.52562 16.1431 7.35776Z" fill="url(#paint2_linear_1_40)"/>
<path fill-rule="evenodd" clip-rule="evenodd" d="M22.829 21.3463C24.3118 19.6957 24.7594 17.1778 24.5916 14.6319C24.3957 12.002 23.5285 9.34424 22.3814 7.5817C21.2623 5.84714 18.6325 5.56737 16.7301 5.84714C15.4991 6.04298 14.3241 6.43465 13.1211 6.71442C11.8341 7.02217 11.0788 6.91026 11.7222 8.44898C12.1139 7.52575 13.233 7.27396 14.2122 7.1061C14.9116 6.99419 15.639 6.88228 16.2825 7.1061C16.9539 7.32991 17.5134 8.00135 17.3736 8.6728C18.2408 8.50494 19.4718 8.33708 20.2831 8.70078C21.8778 9.42817 22.2135 11.8062 22.2975 13.3449C22.3814 15.0795 22.1576 16.9539 21.5981 18.6046C21.4022 19.1361 21.1784 19.6957 20.7587 20.0873C20.2272 20.5909 19.192 20.7308 18.4646 20.8427C15.3872 21.2904 12.1978 21.0945 9.28825 22.1297C8.86859 22.2695 8.47692 22.4374 8.22513 22.8291C8.08524 23.0529 8.02929 23.3327 8.1412 23.5845C8.39299 24.1999 9.31622 24.088 9.95969 23.8922C10.2115 23.8083 10.4633 23.7243 10.7151 23.6404C10.827 23.6124 10.9389 23.5565 10.9948 23.5005C10.9948 23.4725 11.0228 23.4725 11.0228 23.4446C11.1067 23.3047 11.0228 23.1088 11.0508 22.941C11.1067 22.5493 11.5823 22.4094 11.974 22.3814C13.4288 22.2416 14.8836 22.1297 16.3104 21.9898C16.6182 21.9618 16.9259 21.9338 17.2057 22.0737C17.4855 22.2136 17.6813 22.5493 17.5134 22.8291C19.3599 22.8291 21.654 22.6892 22.829 21.3463Z" fill="url(#paint3_linear_1_40)"/>
<path d="M145.891 33.2289H144.15L140.274 19.1462L136.397 33.2289H134.656L130.147 15.665H132.125L135.527 29.8269L139.403 15.665H141.065L144.942 29.8269L148.344 15.665H150.321L145.891 33.2289Z" fill="white"/>
<path d="M158.866 33.2289V32.0421C158.392 32.5168 157.838 32.9124 157.363 33.0706C156.809 33.2289 156.176 33.3871 155.385 33.3871C154.515 33.3871 153.882 33.308 153.328 33.1497C152.774 32.9915 152.3 32.675 151.983 32.2795C151.667 31.963 151.429 31.6465 151.271 31.1718C151.113 30.7762 151.034 30.3016 151.034 29.8269C151.034 28.7983 151.429 27.9281 152.141 27.2951C152.853 26.6622 153.882 26.3457 155.227 26.3457H158.866V25.159C158.866 24.2887 158.629 23.5766 158.154 23.1811C157.679 22.7064 156.888 22.5481 155.781 22.5481C154.99 22.5481 154.357 22.6273 153.961 22.8646C153.565 23.102 153.091 23.4184 152.774 23.9722L151.588 22.8646C152.141 22.1526 152.695 21.6779 153.407 21.4405C154.04 21.2032 154.91 21.0449 155.86 21.0449C157.521 21.0449 158.708 21.3614 159.499 22.0734C160.29 22.7855 160.686 23.7349 160.686 25.0799V33.308H158.866V33.2289ZM158.866 27.6116H155.464C153.645 27.6116 152.774 28.3236 152.774 29.7477C152.774 30.4598 153.012 31.0136 153.407 31.3301C153.803 31.6465 154.594 31.8048 155.543 31.8048C156.097 31.8048 156.572 31.7257 157.047 31.6465C157.521 31.5674 157.917 31.3301 158.312 30.9345C158.708 30.5389 158.945 29.8269 158.945 28.8775V27.6116H158.866Z" fill="white"/>
<path d="M168.043 33.2289C166.936 33.2289 166.224 32.9124 165.67 32.2795C165.195 31.6466 164.958 30.8554 164.958 29.9851V15.665H166.698V29.906C166.698 30.4598 166.778 30.9345 167.015 31.251C167.252 31.5675 167.648 31.7257 168.281 31.7257H169.23V33.2289H168.043Z" fill="white"/>
<path d="M175.322 33.2289C174.214 33.2289 173.502 32.9124 172.949 32.2795C172.474 31.6466 172.237 30.8554 172.237 29.9851V15.665H173.977V29.906C173.977 30.4598 174.056 30.9345 174.294 31.251C174.531 31.5675 174.927 31.7257 175.559 31.7257H176.509V33.2289H175.322Z" fill="white"/>
<path d="M180.149 27.6118C180.149 28.9568 180.465 29.9853 181.098 30.6974C181.731 31.4094 182.601 31.805 183.788 31.805C184.5 31.805 185.054 31.7259 185.528 31.4885C186.003 31.2512 186.478 30.9347 186.953 30.46L188.139 31.4885C187.823 31.805 187.506 32.0424 187.19 32.2797C186.873 32.5171 186.557 32.6753 186.241 32.8335C185.924 32.9918 185.528 33.15 185.133 33.2291C184.737 33.3082 184.263 33.3873 183.709 33.3873C182.918 33.3873 182.206 33.2291 181.494 32.9918C180.781 32.7544 180.307 32.3588 179.832 31.8841C179.357 31.4094 179.041 30.6974 178.724 29.9853C178.487 29.1942 178.329 28.2448 178.329 27.2163C178.329 25.2383 178.804 23.7351 179.674 22.6275C180.544 21.5199 181.81 20.9661 183.313 20.9661C184.896 20.9661 186.082 21.5199 186.953 22.5484C187.823 23.5769 188.298 25.001 188.298 26.8207V27.6118H180.149ZM186.478 25.6339C186.478 25.4757 186.478 25.3175 186.399 25.1592C186.399 25.001 186.32 24.8428 186.32 24.7636C186.32 24.6845 186.241 24.4472 186.161 24.289C185.924 23.7351 185.528 23.2604 185.054 22.944C184.579 22.6275 183.946 22.4693 183.313 22.4693C182.68 22.4693 182.126 22.6275 181.573 22.944C181.098 23.2604 180.702 23.7351 180.465 24.289C180.307 24.6054 180.228 24.9219 180.228 25.1592C180.149 25.3966 180.149 25.7922 180.149 26.2669H186.557C186.557 26.0295 186.478 25.8713 186.478 25.6339Z" fill="white"/>
<path d="M195.497 33.2291C194.943 33.2291 194.548 33.1499 194.152 32.9917C193.757 32.8335 193.44 32.5961 193.203 32.2796C192.965 31.9632 192.728 31.6467 192.649 31.2511C192.491 30.8556 192.491 30.46 192.491 29.9853V22.5483H190.988V21.2033H192.491V17.4058H194.231V21.2033H196.842V22.5483H194.231V29.9062C194.231 30.46 194.39 30.9347 194.627 31.2511C194.864 31.5676 195.339 31.7258 195.893 31.7258H196.842V33.2291H195.497Z" fill="white"/>
<path d="M64.7174 16.0605C64.7174 17.4846 64.48 18.5922 63.9262 19.5416C63.3724 20.491 62.7395 21.2821 61.8692 21.836C60.9989 22.3898 59.9704 22.8645 58.8628 23.1018C57.7551 23.3392 56.5684 23.4974 55.3025 23.4974H54.1949C53.2455 23.4974 52.4543 24.2886 52.4543 25.238V31.3299C52.4543 31.9629 51.9005 32.5167 51.2676 32.5167H46.6788V10.4432C46.6788 9.4938 47.47 8.70264 48.4194 8.70264H55.4608C56.7266 8.70264 57.9925 8.86087 59.1001 9.09822C60.2077 9.33557 61.2363 9.81026 62.0274 10.3641C62.8977 10.9179 63.5306 11.7091 64.0053 12.6585C64.48 13.5287 64.7174 14.7155 64.7174 16.0605ZM59.021 16.1396C59.021 15.5858 58.9419 15.1111 58.7045 14.7946C58.4672 14.399 58.1507 14.1617 57.7551 13.9243C57.3596 13.687 56.964 13.6079 56.4893 13.5287C56.0146 13.4496 55.5399 13.4496 54.9861 13.4496H53.6411C53.0082 13.4496 52.4543 14.0034 52.4543 14.6364V19.0669H54.9069C55.4608 19.0669 55.9355 18.9878 56.4893 18.9087C56.964 18.8295 57.4387 18.6713 57.8343 18.434C58.2298 18.1966 58.5463 17.8801 58.7837 17.5637C58.9419 17.089 59.021 16.6934 59.021 16.1396Z" fill="white"/>
<path d="M77.7715 32.5959V30.3016H77.6924C77.455 30.6971 77.2177 31.0136 76.9012 31.4092C76.5848 31.8048 76.1892 32.0421 75.7936 32.2795C75.3189 32.5168 74.8442 32.7542 74.3695 32.9124C73.8157 33.0706 73.2619 33.1498 72.7081 33.1498C71.6004 33.1498 70.651 32.9124 69.8599 32.5168C69.0687 32.1212 68.4358 31.5674 67.9611 30.9345C67.4864 30.3016 67.1699 29.5895 66.9326 28.7192C66.6952 27.9281 66.6161 27.0578 66.6161 26.1875V17.5638C66.6161 16.6144 67.4073 15.8233 68.3567 15.8233H72.1542V24.9217C72.1542 25.3964 72.1542 25.8711 72.2334 26.2666C72.3125 26.6622 72.3916 27.0578 72.6289 27.3743C72.7872 27.6907 73.1036 28.0072 73.4201 28.1654C73.7366 28.3237 74.1322 28.4819 74.686 28.4819C75.6354 28.4819 76.3474 28.0863 76.9012 27.3743C77.3759 26.6622 77.6924 25.7919 77.6924 24.8425V17.4847C77.6924 16.5353 78.4836 15.7441 79.433 15.7441H83.0723V30.7763C83.0723 31.7257 82.2811 32.5168 81.3317 32.5168H77.7715V32.5959Z" fill="white"/>
<path d="M85.7627 32.5959V8.86092C85.7627 7.91152 86.5539 7.12036 87.5033 7.12036H91.38V30.8553C91.38 31.8047 90.5888 32.5959 89.6394 32.5959H85.7627Z" fill="white"/>
<path d="M103.722 19.9372C103.564 19.8581 103.405 19.7789 103.247 19.6998C102.614 19.3834 101.981 19.2251 101.348 19.2251C100.794 19.2251 100.32 19.3042 99.9242 19.5416C99.5286 19.7789 99.2913 20.0954 99.2913 20.5701C99.2913 21.0448 99.5286 21.3613 100.003 21.5986C100.478 21.836 101.269 21.9942 102.377 22.3107C103.01 22.4689 103.643 22.6271 104.276 22.8645C104.909 23.1018 105.462 23.4183 106.016 23.8139C106.57 24.2095 106.966 24.6842 107.282 25.3171C107.599 25.8709 107.757 26.583 107.757 27.3741C107.757 28.4026 107.519 29.352 107.124 30.0641C106.728 30.7761 106.174 31.4091 105.462 31.8046C104.75 32.2793 104.038 32.5958 103.168 32.754C102.298 32.9914 101.427 33.0705 100.636 33.0705C99.2913 33.0705 97.9463 32.8332 96.6013 32.4376C95.2563 31.9629 94.2278 31.3299 93.3575 30.5388L95.3355 28.4026C95.8893 27.7697 96.9178 27.6906 97.6298 28.1653C97.8672 28.3235 98.1045 28.4817 98.2628 28.5609C98.9748 28.9564 99.766 29.1147 100.557 29.1147C101.032 29.1147 101.427 29.0356 101.902 28.7982C102.377 28.5609 102.535 28.2444 102.535 27.6906C102.535 27.1368 102.298 26.8203 101.744 26.583C101.19 26.3456 100.399 26.1083 99.2122 25.7918C98.6583 25.6336 98.0254 25.4753 97.4716 25.238C96.9178 25.0006 96.364 24.6842 95.8893 24.3677C95.4146 23.9721 95.019 23.4974 94.7816 22.9436C94.4652 22.3898 94.3069 21.6777 94.3069 20.8866C94.3069 19.8581 94.5443 18.9878 94.9399 18.2757C95.3355 17.5637 95.8893 17.0099 96.6013 16.5352C97.3134 16.0605 98.0254 15.744 98.8166 15.5066C99.6077 15.2693 100.478 15.1902 101.269 15.1902C102.535 15.1902 103.722 15.3484 104.988 15.744C106.174 16.1396 107.203 16.6934 107.994 17.4846L106.016 19.5416C105.304 20.2536 104.355 20.3328 103.722 19.9372Z" fill="white"/>
<path d="M121.523 21.3613C121.523 21.2031 121.444 21.1239 121.444 21.1239C121.285 20.7284 121.048 20.4119 120.811 20.1745C120.178 19.5416 119.466 19.2251 118.358 19.2251C117.804 19.2251 117.33 19.3043 116.855 19.4625C116.38 19.6207 115.985 19.8581 115.668 20.1745C115.352 20.491 115.035 20.8075 114.877 21.203C114.64 21.5986 114.56 21.9942 114.56 22.3898H120.652C121.127 22.3898 121.523 21.9942 121.523 21.5195C121.523 21.4404 121.523 21.4404 121.523 21.3613ZM126.586 23.8139V23.893C126.586 24.8424 125.795 25.6336 124.846 25.6336H114.402C114.481 26.1083 114.56 26.5039 114.798 26.8994C115.035 27.295 115.352 27.6115 115.747 27.9279C116.143 28.2444 116.538 28.4026 117.013 28.5609C117.488 28.7191 117.962 28.7982 118.437 28.7982C119.307 28.7982 120.019 28.64 120.652 28.3235C120.89 28.1653 121.206 28.0071 121.523 27.6906C121.918 27.3741 122.472 27.295 122.947 27.5324L126.032 29.4312C125.241 30.5388 124.213 31.4882 122.947 32.042C121.681 32.6749 120.178 32.9914 118.437 32.9914C117.171 32.9914 115.985 32.8332 114.877 32.4376C113.769 32.042 112.741 31.4882 111.95 30.697C111.079 29.9059 110.446 29.0356 109.972 27.9279C109.497 26.8203 109.26 25.5545 109.26 24.1304C109.26 22.7854 109.497 21.5195 109.972 20.4119C110.446 19.3043 111.079 18.3549 111.87 17.5637C112.662 16.7725 113.611 16.2187 114.719 15.744C115.826 15.3484 117.013 15.1111 118.279 15.1111C119.545 15.1111 120.652 15.3484 121.681 15.744C122.709 16.1396 123.58 16.7725 124.371 17.5637C125.083 18.3549 125.716 19.3043 126.111 20.4119C126.428 21.6777 126.586 22.3898 126.586 23.8139Z" fill="white"/>
</g>
<defs>
<linearGradient id="paint0_linear_1_40" x1="2.28578" y1="30.1872" x2="34.0745" y2="0.570306" gradientUnits="userSpaceOnUse">
<stop stop-color="#00EAFF"/>
<stop offset="0.2487" stop-color="#0080FF"/>
<stop offset="0.5214" stop-color="#8000FF"/>
<stop offset="0.7841" stop-color="#E619E6"/>
<stop offset="1" stop-color="#E51A5D"/>
</linearGradient>
<linearGradient id="paint1_linear_1_40" x1="8.67911" y1="37.0499" x2="40.4679" y2="7.43309" gradientUnits="userSpaceOnUse">
<stop stop-color="#00EAFF"/>
<stop offset="0.2487" stop-color="#0080FF"/>
<stop offset="0.5214" stop-color="#8000FF"/>
<stop offset="0.7841" stop-color="#E619E6"/>
<stop offset="1" stop-color="#E51A5D"/>
</linearGradient>
<linearGradient id="paint2_linear_1_40" x1="0.100727" y1="27.8414" x2="31.8895" y2="-1.77544" gradientUnits="userSpaceOnUse">
<stop stop-color="#00EAFF"/>
<stop offset="0.2487" stop-color="#0080FF"/>
<stop offset="0.5214" stop-color="#8000FF"/>
<stop offset="0.7841" stop-color="#E619E6"/>
<stop offset="1" stop-color="#E51A5D"/>
</linearGradient>
<linearGradient id="paint3_linear_1_40" x1="1.29208" y1="29.1208" x2="33.0808" y2="-0.49605" gradientUnits="userSpaceOnUse">
<stop stop-color="#00EAFF"/>
<stop offset="0.2487" stop-color="#0080FF"/>
<stop offset="0.5214" stop-color="#8000FF"/>
<stop offset="0.7841" stop-color="#E619E6"/>
<stop offset="1" stop-color="#E51A5D"/>
</linearGradient>
<clipPath id="clip0_1_40">
<rect width="197" height="40.3494" fill="white"/>
</clipPath>
</defs>
</svg>
